<svg width="191" height="142" viewBox="0 0 191 142" xmlns="http://www.w3.org/2000/svg">
<path fill-rule="evenodd" clip-rule="evenodd" d="M94.6942 53.626C100.394 53.626 105.179 58.4703 105.179 64.341C105.179 70.2994 100.394 75.1437 94.6942 75.1437C88.8086 75.1437 84.0234 70.2994 84.0234 64.341C84.0234 58.4703 88.8086 53.626 94.6942 53.626Z" />
<path fill-rule="evenodd" clip-rule="evenodd" d="M73.1786 43.3008C79.0642 43.3008 83.7504 48.0449 83.7504 54.0033C83.7504 59.9616 79.0642 64.8059 73.1786 64.8059C67.293 64.8059 62.5078 59.9616 62.5078 54.0033C62.4955 48.0449 67.293 43.3008 73.1786 43.3008Z" />
<path fill-rule="evenodd" clip-rule="evenodd" d="M67.4872 19.2773C73.2739 19.2773 78.059 24.1216 78.059 30.08C78.059 36.0383 73.2739 40.8826 67.4872 40.8826C61.6016 40.8826 56.8164 36.0383 56.8164 30.08C56.8164 24.1216 61.6016 19.2773 67.4872 19.2773Z" />
<path fill-rule="evenodd" clip-rule="evenodd" d="M82.5523 0C88.4379 0 93.2231 4.8443 93.2231 10.8027C93.2231 16.761 88.4379 21.5177 82.5523 21.5177C76.6667 21.5177 71.9805 16.7735 71.9805 10.8027C71.9805 4.8443 76.6667 0 82.5523 0Z" />
<path fill-rule="evenodd" clip-rule="evenodd" d="M106.655 0C112.54 0 117.313 4.8443 117.313 10.8027C117.313 16.761 112.528 21.5177 106.655 21.5177C100.769 21.5177 96.0703 16.7735 96.0703 10.8027C96.0827 4.8443 100.769 0 106.655 0Z" />
<path fill-rule="evenodd" clip-rule="evenodd" d="M121.826 19.2773C127.712 19.2773 132.497 24.1216 132.497 30.08C132.497 36.0383 127.712 40.8826 121.826 40.8826C115.941 40.8826 111.168 36.0383 111.168 30.08C111.168 24.1216 115.941 19.2773 121.826 19.2773Z" />
<path fill-rule="evenodd" clip-rule="evenodd" d="M116.483 43.3008C122.368 43.3008 127.153 48.0449 127.153 54.0033C127.153 59.9616 122.368 64.8059 116.483 64.8059C110.597 64.8059 105.824 59.9616 105.824 54.0033C105.824 48.0449 110.609 43.3008 116.483 43.3008Z" />
<path fill-rule="evenodd" clip-rule="evenodd" d="M36.6734 75.5187C34.8311 71.1376 32.5312 68.1709 32.5312 68.1709C32.5312 68.1709 53.0443 69.5729 62.3302 71.3378C91.8572 76.833 92.9577 104.584 92.9577 104.584C92.9577 104.584 88.1725 104.397 75.4739 104.397C58.015 104.372 42.2747 89.0126 36.6734 75.5187Z" />
<path fill-rule="evenodd" clip-rule="evenodd" d="M152.722 75.5187C154.552 71.1376 156.865 68.1709 156.865 68.1709C156.865 68.1709 136.351 69.5729 127.066 71.3378C97.551 76.833 96.4258 104.584 96.4258 104.584C96.4258 104.584 101.211 104.397 113.909 104.397C131.393 104.372 147.109 89.0126 152.722 75.5187Z" />
<path fill-rule="evenodd" clip-rule="evenodd" d="M13.1407 141.238H20.609V137.457C25.1716 137.495 33.1715 136.143 33.1715 126.68C33.1715 117.304 25.1716 115.727 20.609 115.89V112.923H13.1407V115.89C8.5781 115.739 0.578125 117.317 0.578125 126.68C0.578125 136.155 8.5781 137.495 13.1407 137.457V141.238ZM20.0773 121.272C21.9444 121.234 25.7156 121.885 25.7156 126.667C25.7156 131.436 21.9444 132.1 20.0773 132.062V121.272ZM13.6724 132.062C11.8177 132.1 8.03406 131.449 8.03406 126.667C8.03406 121.885 11.8053 121.234 13.6724 121.272V132.062Z" />
<path fill-rule="evenodd" clip-rule="evenodd" d="M50.4004 141.999C60.1438 141.999 64.7187 134.939 64.7187 127.742C64.7187 120.532 60.1438 113.484 50.4004 113.484C40.657 113.484 36.082 120.532 36.082 127.742C36.082 134.952 40.6446 141.999 50.4004 141.999ZM50.4004 135.528C46.9383 135.528 43.7729 132.937 43.7729 127.742C43.7729 122.535 46.9259 119.956 50.4004 119.956C53.8625 119.956 57.0155 122.535 57.0155 127.742C57.0155 132.949 53.8625 135.528 50.4004 135.528Z" />
<path fill-rule="evenodd" clip-rule="evenodd" d="M88.3612 132.336C86.9888 133.763 84.8249 135.265 82.0429 135.265C77.7771 135.265 75.2299 132.06 75.2299 127.98C75.2299 123.548 77.9254 120.231 82.0429 120.231C84.8991 120.231 86.9888 121.846 88.3612 123.461V115.637C86.1109 114.098 83.4154 113.484 81.0537 113.484C73.8203 113.484 67.5391 118.717 67.5391 127.742C67.5391 136.366 73.2516 141.999 81.165 141.999C83.4401 141.999 85.9625 141.649 88.3612 139.997V132.336Z" />
<path fill-rule="evenodd" clip-rule="evenodd" d="M89.3906 141.237H97.3782L98.862 136.568H107.925L109.409 141.237H117.397L107.925 114.262H98.862L89.3906 141.237ZM103.387 120.683L106.429 130.622H100.333L103.387 120.683Z" />
<path fill-rule="evenodd" clip-rule="evenodd" d="M119.566 141.237H127.022V120.733H135.554V114.262H119.566V141.237Z" />
<path fill-rule="evenodd" clip-rule="evenodd" d="M138.953 141.237H146.421V132.337H150.193C157.735 132.337 159.899 127.017 159.899 123.274C159.899 119.569 157.772 114.262 150.193 114.262H138.965V141.237H138.953ZM146.409 120.195H148.536C151.738 120.195 152.196 121.922 152.196 123.274C152.196 124.438 151.85 126.404 148.536 126.404H146.409V120.195Z" />
<path fill-rule="evenodd" clip-rule="evenodd" d="M176.228 141.999C185.971 141.999 190.546 134.939 190.546 127.742C190.546 120.532 185.971 113.484 176.228 113.484C166.484 113.484 161.922 120.532 161.922 127.742C161.922 134.952 166.484 141.999 176.228 141.999ZM176.228 135.528C172.766 135.528 169.6 132.937 169.6 127.742C169.6 122.535 172.766 119.956 176.228 119.956C179.69 119.956 182.855 122.535 182.855 127.742C182.855 132.949 179.69 135.528 176.228 135.528Z" />
</svg>
