<svg width="383" height="69" viewBox="0 0 383 69" xmlns="http://www.w3.org/2000/svg">
<path d="M57.3948 53.0579C54.9814 53.0579 53.1976 51.0457 53.1976 48.8217C53.1976 46.3859 55.1913 44.5856 57.3948 44.5856C59.8083 44.5856 61.5921 46.5978 61.5921 48.8217C61.5921 51.0457 59.8083 53.0579 57.3948 53.0579ZM47.4263 53.0579C45.0129 53.0579 43.2291 51.0457 43.2291 48.8217C43.2291 46.3859 45.2228 44.5856 47.4263 44.5856C49.8398 44.5856 51.6236 46.5978 51.6236 48.8217C51.6236 51.0457 49.8398 53.0579 47.4263 53.0579ZM37.4578 53.0579C35.0444 53.0579 33.2605 51.0457 33.2605 48.8217C33.2605 46.3859 35.2543 44.5856 37.4578 44.5856C39.8712 44.5856 41.6551 46.5978 41.6551 48.8217C41.8649 51.0457 39.7663 53.0579 37.4578 53.0579ZM38.1923 0.211914V35.5838C38.1923 37.1723 37.0381 38.4432 35.3592 38.4432H31.1619C30.9521 38.4432 30.7422 38.655 30.7422 38.8668V68.5198C31.7915 68.5198 32.7359 68.7316 33.9951 68.7316C52.7778 68.7316 67.9929 53.3756 67.9929 34.4188C67.9929 16.7329 54.9814 2.22409 38.1923 0.211914Z" />
<path d="M27.3872 28.2763C24.9737 28.2763 23.1899 26.2641 23.1899 24.0402C23.1899 21.6044 25.1836 19.804 27.3872 19.804C29.8006 19.804 31.5844 21.8162 31.5844 24.0402C31.5844 26.2641 29.8006 28.2763 27.3872 28.2763ZM33.9979 0C15.2151 0 0 15.356 0 34.3128C0 50.8338 11.4376 64.6013 26.8625 67.8843V36.9604C26.8625 35.5837 28.0168 34.3128 29.4858 34.101H33.6831C33.8929 34.101 34.1028 33.8892 34.1028 33.6774V0H33.9979Z" />
<path d="M219.939 38.9713L225.186 26.4747C225.396 26.0511 225.606 26.0511 225.816 26.0511C226.025 26.0511 226.445 26.0511 226.445 26.4747L231.692 38.9713H219.939ZM232.951 22.5563C231.587 19.485 228.754 17.8965 225.92 17.8965C223.087 17.8965 220.359 19.485 218.89 22.5563L205.039 53.0565H214.063L217.106 45.7492H234.735L237.778 53.0565H246.802L232.951 22.5563Z" />
<path d="M325.182 18.3208C337.984 18.3208 343.231 23.9337 343.231 35.9008C343.231 47.6561 337.984 53.269 324.973 53.4808H322.139C309.338 53.4808 304.091 47.6561 304.091 35.9008C304.091 23.9337 309.338 18.3208 322.139 18.3208H325.182ZM131.688 12.4961C127.701 12.4961 125.078 14.7201 123.294 18.9562L112.276 44.7967L101.258 18.9562C99.4744 14.7201 96.8511 12.4961 92.8637 12.4961C89.0861 12.4961 85.3086 15.1437 85.3086 20.9684V52.8454H93.7031V21.9215L104.826 47.6561C106.19 51.2569 108.813 53.4808 112.276 53.4808C115.844 53.4808 118.257 51.2569 119.726 47.6561L130.954 22.0274V53.1631H139.348V21.2861C139.243 15.3555 135.466 12.4961 131.688 12.4961ZM357.396 31.6647H374.605V18.7444H383V53.0572H374.605V39.0779H357.396V53.0572H348.792V18.7444H357.396V31.6647ZM211.332 18.7444V26.0518H190.345C189.925 26.0518 189.506 26.4754 189.506 26.899V52.9513H181.111V23.8278C181.111 21.1802 183.105 18.7444 186.148 18.7444H211.332ZM280.586 13.3433C292.968 13.3433 298.215 19.8035 298.425 30.9233C298.425 32.7237 298.215 34.3123 298.005 35.7949C296.641 43.6318 292.024 48.5034 280.167 48.5034H276.599V52.9513H268.205V48.5034H264.322C252.465 48.5034 247.953 43.6318 246.484 35.7949C246.274 34.4182 246.064 32.7237 246.064 30.9233C246.064 19.8035 251.101 13.3433 263.692 13.3433H280.586ZM175.34 18.5326V25.84H154.354C153.934 25.84 153.514 26.2636 153.514 26.6872V31.9824H174.71V39.0779H153.514V45.1144C153.514 45.5381 153.934 45.9617 154.354 45.9617V45.5381H175.34V52.8454H150.156C147.323 52.8454 145.12 50.4096 145.12 47.762V23.7219C145.12 21.0743 147.113 18.6385 150.156 18.6385L175.34 18.5326ZM324.973 46.2794C332.213 46.2794 334.731 42.9964 334.731 36.0067C334.731 29.123 332.108 25.7341 324.973 25.7341H322.139C314.689 25.7341 312.381 29.123 312.381 36.0067C312.381 43.1023 315.214 46.2794 322.139 46.2794H324.973ZM280.377 41.6196C285.938 41.6196 288.142 39.3956 289.401 36.0067C289.82 34.63 289.82 32.9355 290.03 30.9233C290.03 23.616 286.672 20.6507 281.846 20.6507H276.599V41.6196H280.377ZM267.89 41.4078V20.5448H262.643C257.816 20.5448 254.458 23.616 254.458 30.8174C254.458 32.6178 254.458 34.4182 254.878 35.689C256.032 39.0779 258.131 41.3019 263.902 41.3019H267.89V41.4078Z" />
</svg>
