<svg width="193" height="146" viewBox="0 0 193 146" xmlns="http://www.w3.org/2000/svg">
<g clip-path="url(#clip0_253_19276)">
<path d="M192.75 62.6909H122.68V44.7822H192.75V62.6909Z"/>
<path d="M183.649 62.6917H122.68V17.9004H183.649V62.6917Z"/>
<path d="M158.46 62.6906H122.68V0H158.46V62.6906Z"/>
<path d="M165.499 62.6914H122.68V6.99609H165.499V62.6914Z"/>
<path d="M122.672 7.00586V62.6849H158.458V7.00586H122.672Z"/>
<path d="M86.8047 62.6914H122.684V71.6467H86.8047V62.6914Z"/>
<path d="M122.672 17.8887V62.6841H165.521V17.8887H122.672Z"/>
<path d="M122.672 17.8887V62.6841H158.458V17.8887H122.672Z"/>
<path d="M145.055 62.6892H122.68V35.8047H145.055V62.6892Z"/>
<path d="M122.672 44.7959V62.6861H183.672V44.7959H122.672Z"/>
<path d="M122.672 44.7959V62.6861H165.521V44.7959H122.672Z"/>
<path d="M122.672 44.7959V62.6861H158.458V44.7959H122.672Z"/>
<path d="M122.672 44.7959V62.6861H145.079V44.7959H122.672Z"/>
<path d="M130.479 96.4184C124.374 97.5021 121.118 102.108 121.118 110.1C121.118 118.228 125.459 123.647 131.836 123.647C134.956 123.647 137.669 122.563 143.367 119.718C143.367 126.356 143.367 126.356 143.367 126.356C136.448 129.607 132.378 130.42 126.952 130.42C120.847 130.42 116.506 128.93 113.114 125.272C109.587 121.75 107.688 117.145 107.688 111.861C107.688 100.347 116.37 92.3545 128.987 92.3545C137.262 92.3545 143.096 96.283 143.096 101.837C143.096 105.495 140.382 108.068 136.448 108.068C134.413 108.068 132.785 107.391 130.479 106.172"/>
<path d="M99.9566 111.861C105.519 104.953 107.554 102.108 107.554 98.7213C107.554 95.3347 104.84 92.3545 101.042 92.3545C98.8713 92.3545 96.8363 93.5737 95.8867 94.6574C95.8867 108.881 95.8867 108.881 95.8867 108.881C86.7973 121.073 86.7973 121.073 86.7973 121.073C86.7973 93.4382 86.7973 93.4382 86.7973 93.4382C78.1148 93.4382 78.1149 93.4382 78.1149 93.4382C63.7346 117.145 63.7346 117.145 63.7346 117.145C63.7346 93.4382 63.7346 93.4382 63.7346 93.4382C58.8507 93.4382 58.8507 93.4382 58.8507 93.4382C45.6914 96.4184 45.6914 96.4184 45.6914 96.4184C45.6914 99.805 45.6914 99.805 45.6914 99.805C52.8815 100.482 52.8815 100.482 52.8815 100.482C52.8815 129.878 52.8815 129.878 52.8815 129.878C61.971 129.878 61.971 129.878 61.971 129.878C75.8086 107.12 75.8086 107.12 75.8086 107.12C75.8086 129.878 75.8086 129.878 75.8086 129.878C85.9833 129.878 85.9833 129.878 85.9833 129.878"/>
<path d="M18.1526 125.272C19.2379 125.272 19.5092 125.272 20.1875 125.272C27.5133 125.272 31.5832 120.802 31.5832 111.861C31.5832 104.41 28.3273 100.346 22.2224 100.346C21.4085 100.346 20.1875 100.482 18.1526 100.888V125.272ZM18.1526 141.257C24.1217 142.611 24.1217 142.611 24.1217 142.611C24.1217 145.998 24.1217 145.998 24.1217 145.998C0.652026 145.998 0.652029 145.998 0.652029 145.998C0.652029 142.611 0.652029 142.611 0.652029 142.611C6.07855 141.257 6.07855 141.257 6.07855 141.257C6.07855 100.346 6.07855 100.346 6.07855 100.346C0.109374 100.346 0.109375 100.346 0.109375 100.346C0.109375 96.9599 0.109375 96.9599 0.109375 96.9599C14.354 92.625 14.354 92.625 14.354 92.625C18.1526 92.625 18.1526 92.625 18.1526 92.625C18.1526 97.5017 18.1526 97.5017 18.1526 97.5017C24.8 93.4378 27.1063 92.7605 30.6335 92.7605C38.502 92.7605 44.4712 100.076 44.4712 110.235C44.4712 121.885 36.4671 129.878 24.2574 129.878C22.9008 129.878 20.5945 129.742 18.1526 129.607"/>
</g>
<defs>
<clipPath id="clip0_253_19276">
<rect width="192.641" height="146" transform="translate(0.109375)"/>
</clipPath>
</defs>
</svg>
