<svg width="221" height="69" viewBox="0 0 221 69" xmlns="http://www.w3.org/2000/svg">
<path d="M183.18 29.9932H178.569L173.056 35.4569V29.9932H169.146V45.048H173.056V38.8177L178.649 45.048H183.36L176.123 36.9703L183.18 29.9932Z" />
<path d="M59.5662 23.8018H49.7227V45.0279H53.8124V37.6184H59.5662C64.4579 37.6184 67.6655 35.1617 67.6655 30.7003C67.6655 26.2585 64.4579 23.8018 59.5662 23.8018ZM59.4459 34.0611H53.8124V27.3788H59.4459C62.2927 27.3788 63.5958 28.7152 63.5958 30.7199C63.5958 32.7246 62.2927 34.0611 59.4459 34.0611Z" />
<path d="M76.8878 29.5615C72.6778 29.5615 68.5078 32.2344 68.5078 37.5017C68.5078 42.7886 72.6778 45.4418 76.8878 45.4418C81.0979 45.4418 85.2679 42.7689 85.2679 37.5017C85.2879 32.2344 81.0979 29.5615 76.8878 29.5615ZM76.8878 41.8845C74.6024 41.8845 72.4572 40.2729 72.4572 37.5213C72.4572 34.7698 74.5823 33.1582 76.8878 33.1582C79.1933 33.1582 81.3184 34.7698 81.3184 37.5213C81.3184 40.2729 79.1933 41.8845 76.8878 41.8845Z" />
<path d="M95.2311 41.8834C92.8855 41.8834 91.1414 40.2128 91.1414 37.5202C91.1414 34.8473 92.9256 33.1571 95.2311 33.1571C96.6144 33.1571 97.8374 33.786 98.7796 35.2207L102.128 33.334C101.005 30.9952 98.5992 29.5801 95.2512 29.5801C90.8807 29.5801 87.1719 32.7443 87.1719 37.5202C87.1719 42.3158 90.7003 45.4604 95.2512 45.4604C98.539 45.4604 100.724 44.006 102.268 41.4314L99.0402 39.7018C98.1381 40.9793 97.1557 41.8834 95.2311 41.8834Z" />
<path d="M136.75 38.5229C136.569 40.8224 136.108 41.3531 135.286 41.3531C134.745 41.3531 134.484 41.2941 134.104 41.1959L134.124 45.0873C134.124 45.0873 134.605 45.2249 135.507 45.2249C138.815 45.2249 140.058 43.1416 140.358 38.6802L140.739 33.4129H145.13V45.0087H149.019V29.9932H137.391L136.75 38.5229Z" />
<path d="M125.683 29.5615C121.232 29.5615 117.604 32.7454 117.604 37.5017C117.604 42.2579 121.232 45.4418 125.502 45.4418C128.87 45.4418 131.016 44.2036 132.559 41.629L129.472 40.1156C128.51 41.2949 127.648 42.1793 125.563 42.1793C123.277 42.1793 121.593 40.7249 121.352 38.4254H133.181V37.0889C133.181 32.6865 130.093 29.5615 125.683 29.5615ZM121.413 35.5166C121.974 33.8264 123.518 32.4899 125.563 32.4899C127.728 32.4899 129.191 33.6495 129.552 35.5166H121.413Z" />
<path d="M159.304 29.5615C154.853 29.5615 151.225 32.7454 151.225 37.5017C151.225 42.2579 154.853 45.4418 159.123 45.4418C162.492 45.4418 164.637 44.2036 166.18 41.629L163.093 40.1156C162.131 41.2949 161.269 42.1793 159.204 42.1793C156.918 42.1793 155.234 40.7249 154.994 38.4254H166.822V37.0889C166.782 32.6865 163.694 29.5615 159.304 29.5615ZM155.034 35.5166C155.595 33.8264 157.139 32.4899 159.184 32.4899C161.349 32.4899 162.812 33.6495 163.173 35.5166H155.034Z" />
<path d="M103.512 33.3343H108.083V45.048H111.992V33.3343H116.563V29.9932H103.512V33.3343Z" />
<path d="M191.101 29.5615C186.891 29.5615 182.721 32.2344 182.721 37.5017C182.721 42.7886 186.891 45.4418 191.101 45.4418C195.311 45.4418 199.481 42.7689 199.481 37.5017C199.481 32.2344 195.311 29.5615 191.101 29.5615ZM191.101 41.8845C188.815 41.8845 186.67 40.2729 186.67 37.5213C186.67 34.7698 188.795 33.1582 191.101 33.1582C193.386 33.1582 195.531 34.7698 195.531 37.5213C195.531 40.2729 193.386 41.8845 191.101 41.8845Z" />
<path d="M214.998 29.9932L210.768 40.5276L206.537 29.9932H201.445V45.0087H205.154V35.4962L209.264 45.0087H212.291L216.401 35.4962V45.0087H220.09V29.9932H214.998Z" />
<path d="M55.7771 67.4732H49.7227V59.3955H50.705V66.6085H54.6945V59.3955H55.6769V66.6085H56.6793V68.9276H55.7571V67.4732H55.7771Z" />
<path d="M63.0541 59.3955V60.2406H58.9042V62.8546H62.7334V63.6997H58.9042V66.6281H63.0942V67.4732H57.9219V59.3955H63.0541Z" />
<path d="M65.4394 59.3955V62.9135H69.6094V59.3955H70.5917V67.4732H69.6094V63.798H65.4394V67.4732H64.457V59.3955H65.4394Z" />
<path d="M74.2805 60.2603H71.7344V59.3955H77.8089V60.2603H75.2628V67.4732H74.2805V60.2603Z" />
<path d="M78.9316 59.3955H82.3799C84.1441 59.3955 85.2668 60.3389 85.2668 61.9112C85.2668 63.4835 84.1441 64.4465 82.3799 64.4465H79.914V67.4536H78.9316V59.3955ZM82.3598 63.6211C83.6629 63.6211 84.2844 62.9922 84.2844 61.9309C84.2844 60.8892 83.6429 60.2603 82.3598 60.2603H79.934V63.6211H82.3598Z" />
<path d="M86.5918 59.3955H87.5741V62.4419H89.7995C91.4835 62.4419 92.6864 63.3066 92.6864 64.9575C92.6864 66.6085 91.5035 67.4732 89.7995 67.4732H86.5918V59.3955ZM89.6591 66.6281C90.842 66.6281 91.684 66.1761 91.684 64.9772C91.684 63.7783 90.842 63.3066 89.6591 63.3066H87.5741V66.6281H89.6591ZM94.8515 59.3955V67.4732H93.8692V59.3955H94.8515Z" />
<path d="M103.671 67.6313C101.426 67.6313 99.6816 65.9411 99.6816 63.4451C99.6816 60.9294 101.426 59.2588 103.671 59.2588C105.917 59.2588 107.661 60.949 107.661 63.4451C107.661 65.9607 105.917 67.6313 103.671 67.6313ZM106.658 63.4451C106.658 61.4207 105.375 60.1236 103.651 60.1236C101.927 60.1236 100.644 61.4404 100.644 63.4451C100.644 65.4694 101.927 66.7666 103.651 66.7666C105.375 66.7666 106.658 65.4497 106.658 63.4451Z" />
<path d="M109.064 59.3955H114.317V60.2406H110.067V62.658H112.192C113.816 62.658 114.979 63.5425 114.979 65.0755C114.979 66.5888 113.816 67.4732 112.192 67.4732H109.064V59.3955ZM112.032 66.6281C113.154 66.6281 113.976 66.1957 113.976 65.0755C113.976 63.9749 113.154 63.5228 112.032 63.5228H110.047V66.6281H112.032Z" />
<path d="M116.281 59.3955H119.729C121.494 59.3955 122.616 60.3389 122.616 61.9112C122.616 63.4835 121.494 64.4465 119.729 64.4465H117.264V67.4536H116.281V59.3955ZM119.689 63.6211C120.992 63.6211 121.614 62.9922 121.614 61.9309C121.614 60.8892 120.972 60.2603 119.689 60.2603H117.264V63.6211H119.689Z" />
<path d="M125.784 59.3955H126.786L130.074 67.4732H129.032L128.089 65.0951H124.461L123.519 67.4732H122.496L125.784 59.3955ZM127.769 64.2697L126.506 61.0857C126.425 60.9089 126.325 60.6337 126.285 60.4765C126.245 60.6337 126.145 60.9089 126.065 61.0857L124.802 64.2697H127.769Z" />
<path d="M131.137 59.3955H136.389V60.2406H132.119V62.658H134.244C135.868 62.658 137.031 63.5425 137.031 65.0755C137.031 66.5888 135.868 67.4732 134.244 67.4732H131.137V59.3955ZM134.104 66.6281C135.226 66.6281 136.048 66.1957 136.048 65.0755C136.048 63.9749 135.226 63.5228 134.104 63.5228H132.119V66.6281H134.104Z" />
<path d="M142.122 67.6313C139.877 67.6313 138.133 65.9411 138.133 63.4451C138.133 60.9294 139.877 59.2588 142.122 59.2588C144.368 59.2588 146.112 60.949 146.112 63.4451C146.092 65.9607 144.368 67.6313 142.122 67.6313ZM145.109 63.4451C145.109 61.4207 143.826 60.1236 142.102 60.1236C140.378 60.1236 139.095 61.4404 139.095 63.4451C139.095 65.4694 140.378 66.7666 142.102 66.7666C143.826 66.7666 145.109 65.4497 145.109 63.4451Z" />
<path d="M149.079 60.2603H146.533V59.3955H152.608V60.2603H150.062V67.4732H149.079V60.2603Z" />
<path d="M159.464 67.4732H158.201L155.435 64.4662L154.713 63.68V67.4929H153.73V59.4152H154.713V63.0511C154.913 62.8153 155.194 62.5205 155.475 62.206L158.041 59.3955H159.344L155.655 63.3066L159.464 67.4732Z" />
<path d="M160.607 59.3955H161.57V66.1564C161.65 65.9795 161.931 65.5275 161.931 65.5275L165.84 59.4152H166.862V67.4929H165.92V60.732C165.84 60.9089 165.559 61.3609 165.559 61.3609L161.65 67.4929H160.627V59.3955H160.607Z" />
<path d="M171.213 66.6093H171.874C172.396 65.6463 172.576 64.8405 172.656 63.4451L172.877 59.416H177.809V66.629H178.811V68.9481H177.889V67.4937H172.135V68.9481H171.213V66.6093ZM176.826 66.6093V60.2611H173.779L173.599 63.5433C173.518 64.9584 173.358 65.7052 172.897 66.629H176.826V66.6093Z" />
<path d="M182.861 59.3955H183.863L187.151 67.4732H186.108L185.166 65.0951H181.537L180.595 67.4732H179.553L182.861 59.3955ZM184.845 64.2697L183.582 61.0857C183.502 60.9089 183.402 60.6337 183.362 60.4765C183.322 60.6337 183.222 60.9089 183.141 61.0857L181.878 64.2697H184.845Z" />
<path d="M189.215 59.3955V62.9135H193.385V59.3955H194.367V67.4732H193.385V63.798H189.215V67.4732H188.232V59.3955H189.215Z" />
<path d="M197.154 59.3955V62.9135H201.324V59.3955H202.307V67.4732H201.324V63.798H197.154V67.4732H196.172V59.3955H197.154Z" />
<path d="M204.131 59.3955H205.113V62.4419H207.339C209.023 62.4419 210.225 63.3066 210.225 64.9575C210.225 66.6085 209.043 67.4732 207.339 67.4732H204.131V59.3955ZM207.218 66.6281C208.401 66.6281 209.243 66.1761 209.243 64.9772C209.243 63.7783 208.401 63.3066 207.218 63.3066H205.133V66.6281H207.218ZM212.411 59.3955V67.4732H211.428V59.3955H212.411Z" />
<path d="M218.666 59.3976H219.709L217.323 63.0729L220.09 67.4557H219.007L216.762 63.8787L214.536 67.4557H213.434L216.2 63.1122L213.815 59.3779H214.917L216.741 62.3653L218.666 59.3976Z" />
<path d="M32.8637 67.4726H4.77654C2.7517 67.4726 1.54883 65.7038 1.54883 64.1511C1.54883 63.2274 1.92974 62.402 2.55122 61.7927L14.8005 49.7842L32.8637 67.4726Z" />
<path d="M4.77548 67.4717C2.6504 67.4717 0.00407222 65.8011 0.00407222 62.4992V25.491C0.00407222 20.499 -0.25655 16.9809 3.39217 13.4039L17.0648 0L41.3028 23.8008L2.55016 61.7917C1.92867 62.401 1.54776 63.2264 1.54776 64.1502C1.56781 65.7028 2.75064 67.4717 4.77548 67.4717Z" />
</svg>
