<svg width="152" height="128" viewBox="0 0 152 128" xmlns="http://www.w3.org/2000/svg">
<path d="M17.0617 102.267C16.6478 100.77 15.8265 97.8684 11.5085 97.8684C8.99893 97.8684 5.20585 99.6462 5.20585 106.642C5.20585 111.085 7.10174 115.201 11.5085 115.201C14.4085 115.201 16.4428 113.467 17.0617 110.429H22.274C21.2412 115.827 17.6871 119.579 11.4132 119.579C4.76191 119.579 0 115.1 0 106.571C0 97.8981 5.0374 93.4996 11.4785 93.4996C18.9667 93.4996 21.9894 98.617 22.274 102.267H17.0617Z" />
<path d="M28.6528 107.532L34.7805 100.564H40.7489L34.2347 107.661L40.9238 118.933H35.0925L30.6727 111.043L28.6528 113.131V118.933H23.7891V100.564H28.6528V107.532Z" />
<path d="M58.7153 109.712C58.7153 116.333 54.2302 119.414 49.2646 119.414C44.3068 119.414 39.7852 116.378 39.7852 109.755C39.7852 103.126 44.3068 100.086 49.2646 100.086C54.2302 100.086 58.7153 103.09 58.7153 109.712ZM44.786 109.712C44.786 112.065 45.5067 115.34 49.2646 115.34C53.0237 115.34 53.7131 112.101 53.7131 109.755C53.7131 107.394 53.0237 104.154 49.2646 104.154C45.5067 104.154 44.786 107.358 44.786 109.712Z" />
<path d="M76.9942 100.564V118.934H72.1305V104.43H66.9259V110.094C66.9259 117.12 64.7898 119.336 61.3728 119.336C60.5228 119.336 59.1335 119.2 58.4141 118.934V115.342C58.5146 115.413 59.1335 115.479 59.8529 115.479C61.314 115.479 62.07 114.765 62.07 109.172V100.564H76.9942Z" />
<path d="M84.3403 107.532L90.468 100.564H96.4364L89.9157 107.661L96.6113 118.933H90.7801L86.3681 111.043L84.3403 113.131V118.933H79.4766V100.564H84.3403V107.532Z" />
<path d="M114.407 109.712C114.407 116.333 109.929 119.414 104.964 119.414C99.9982 119.414 95.4844 116.378 95.4844 109.755C95.4844 103.126 99.9982 100.086 104.964 100.086C109.929 100.086 114.407 103.09 114.407 109.712ZM100.487 109.712C100.487 112.065 101.206 115.34 104.964 115.34C108.706 115.34 109.42 112.101 109.42 109.755C109.42 107.394 108.706 104.154 104.964 104.154C101.206 104.154 100.487 107.358 100.487 109.712Z" />
<path d="M115.98 100.561H124.355C128.498 100.561 131.529 102.24 131.529 105.307C131.529 107.422 130.01 108.782 128.075 109.264C129.972 109.713 132.08 110.913 132.08 113.916C132.08 117.319 129.479 118.933 125.277 118.933H115.98V100.561ZM120.835 107.998H124.005C125.619 107.998 126.762 107.358 126.762 105.918C126.762 104.42 125.662 103.874 124.042 103.874H120.835V107.998ZM120.835 115.621H124.411C126.208 115.621 127.321 115.075 127.321 113.259C127.321 111.655 126.149 110.913 124.355 110.913H120.835V115.621Z" />
<path d="M151.547 109.712C151.547 116.333 147.077 119.414 142.104 119.414C137.145 119.414 132.617 116.378 132.617 109.755C132.617 103.126 137.145 100.086 142.104 100.086C147.077 100.086 151.547 103.09 151.547 109.712ZM137.619 109.712C137.619 112.065 138.352 115.34 142.104 115.34C145.862 115.34 146.546 112.101 146.546 109.755C146.546 107.394 145.862 104.154 142.104 104.154C138.352 104.154 137.619 107.358 137.619 109.712Z" />
<path d="M35.3531 89.3486C39.4974 89.3486 49.7028 88.6298 57.3295 83.1154V87.2981H72.7172L72.7329 68.9063L79.1583 62.3201L93.145 87.2981H111.608L90.4187 51.6083L111.057 29.114H92.1566L72.7329 51.1842V8.78675H57.3295V15.4944C52.6394 10.5076 45.0362 6.73618 33.1804 6.73618C7.51803 6.73618 2.69995 22.1956 2.69995 30.8491C2.69995 42.7401 9.15535 49.3482 20.4001 52.0479L36.3428 55.9344C44.7516 57.9927 50.7644 59.5041 50.7644 65.6675C50.7644 73.8879 42.0201 75.8311 34.1545 75.8311C19.7381 75.8311 17.3395 67.5086 17.3395 63.0765H1.5C1.5 72.807 6.52308 89.3486 35.3531 89.3486ZM45.8432 42.532L26.5213 37.8736C23.2361 37.1185 18.1021 35.8152 18.1021 29.6609C18.1021 22.6287 25.6412 20.2472 31.9739 20.2472C46.3889 20.2472 47.7051 28.5813 48.1334 32.1446H57.3295V46.7792C53.9555 44.8282 49.9731 43.5612 45.8432 42.532Z" />
</svg>
