<svg width="199" height="51" viewBox="0 0 199 51" fill="none" xmlns="http://www.w3.org/2000/svg">
<path d="M0.585938 45.4707H29.6495V51.5973H0.585938V45.4707ZM9.23094 31.0111H20.695L22.6296 37.1713H28.9862L20.4075 11.2761C19.5784 8.78957 18.6166 6.79591 15.3333 6.79591C12.05 6.79591 11.044 8.75597 10.1817 11.2761L1.20502 37.1601H7.16366L9.23094 31.0111ZM15.0459 13.5161H15.1896L19.0478 25.8365H10.9776L15.0459 13.5161Z" fill="white"/>
<path d="M186.378 30.1702L192.22 23.6395H187.866L183.078 29.0674V23.6395H179.609V37.3643H183.095V31.5832L188.215 37.3643H192.688L186.378 30.1702ZM72.945 31.0748C72.8514 33.6595 72.5283 34.1506 71.1167 34.1506V37.3729H71.6439C75.19 37.3729 76.0319 35.5205 76.1594 31.3936L76.3125 26.8273H79.5865V37.3643H83.0561V23.6395H73.1831L72.945 31.0748ZM57.8847 33.4355H65.198L66.414 37.3643H70.4704L65.0024 20.8567C64.4752 19.2628 63.8629 17.9963 61.7709 17.9963C59.679 17.9963 59.0412 19.2628 58.48 20.8567L52.7484 37.3643H56.5581L57.8847 33.4355ZM61.5924 22.3041H61.6859L64.135 30.1271H58.9817L61.5924 22.3041ZM142.642 25.5867H138.773V21.7096H147.753V18.2634H135.134V37.3643H142.642C146.801 37.3643 149.19 35.262 149.19 31.4195C149.19 27.775 146.767 25.5867 142.642 25.5867ZM142.464 33.9094H138.773V28.9468H142.464C144.386 28.9468 145.466 29.8083 145.466 31.4281C145.466 33.0478 144.386 33.9094 142.464 33.9094ZM108.151 23.3207V18.2375H104.69V23.3207C102.872 23.3815 101.153 24.1705 99.9095 25.5145C98.6659 26.8585 97.9995 28.6476 98.0568 30.489C97.9949 32.3341 98.6589 34.1286 99.9028 35.4777C101.147 36.8269 102.869 37.6201 104.69 37.683V42.8524H108.159V37.683C109.061 37.653 109.949 37.443 110.771 37.0649C111.593 36.687 112.333 36.1484 112.949 35.4802C113.565 34.8119 114.045 34.0271 114.361 33.1706C114.678 32.3141 114.824 31.4028 114.792 30.489C114.829 29.5745 114.685 28.6618 114.37 27.8043C114.054 26.9467 113.573 26.1614 112.955 25.4941C112.337 24.8269 111.593 24.291 110.769 23.9179C109.944 23.5448 109.054 23.3418 108.151 23.3207ZM104.698 34.366C103.78 34.2638 102.938 33.8 102.354 33.0748C101.771 32.3495 101.492 31.4208 101.577 30.489C101.503 29.5594 101.786 28.6366 102.368 27.9139C102.949 27.1912 103.785 26.7246 104.698 26.6119V34.366ZM108.168 34.366V26.6119C109.082 26.7246 109.917 27.1912 110.499 27.9139C111.081 28.6366 111.364 29.5594 111.289 30.489C111.37 31.4199 111.089 32.3462 110.506 33.0705C109.924 33.7947 109.084 34.2596 108.168 34.366ZM127.795 33.1512V28.5246C127.795 25.1473 125.677 23.0364 122.123 23.0364C118.568 23.0364 116.493 25.2765 116.323 27.6113H119.835C119.954 27.1116 120.481 26.2242 122.114 26.2242C122.419 26.1844 122.729 26.217 123.019 26.3195C123.31 26.422 123.573 26.5915 123.787 26.8147C124.001 27.0379 124.162 27.3086 124.255 27.6053C124.349 27.9021 124.373 28.2168 124.325 28.5246H120.924C117.845 28.5246 116.017 30.1702 116.017 32.8927C115.993 33.5424 116.104 34.19 116.342 34.7935C116.581 35.397 116.942 35.943 117.402 36.3962C117.862 36.8494 118.411 37.1996 119.014 37.4243C119.616 37.6489 120.258 37.7429 120.898 37.7003C121.621 37.7388 122.342 37.5962 122.998 37.2852C123.653 36.9741 124.223 36.5042 124.657 35.9168C124.939 36.4006 125.351 36.7933 125.845 37.0494C126.338 37.3057 126.893 37.4148 127.446 37.3643H128.645V34.1937C128.058 34.1937 127.795 33.9094 127.795 33.1512ZM124.325 32.2896C124.34 32.629 124.283 32.9676 124.158 33.283C124.034 33.5984 123.845 33.8836 123.604 34.1197C123.363 34.3558 123.075 34.5374 122.76 34.6527C122.444 34.7678 122.108 34.814 121.774 34.7882C120.524 34.7882 119.538 34.3315 119.538 32.9617C119.538 31.5918 120.635 31.3936 121.561 31.3936H124.325V32.2896ZM91.696 27.8095H89.2043V23.6395H85.7348V37.3643H91.7555C95.5227 37.3643 96.8578 34.8829 96.8578 32.5395C96.8748 29.5154 95.0039 27.8095 91.696 27.8095ZM91.4408 34.366H89.2043V30.9197H91.4408C92.6399 30.9197 93.3627 31.4711 93.3627 32.6429C93.3627 33.8146 92.6739 34.366 91.4408 34.366ZM162.431 33.1512V28.5246C162.431 25.1473 160.313 23.0364 156.759 23.0364C153.204 23.0364 151.129 25.2765 150.959 27.6113H154.471C154.59 27.1116 155.118 26.2242 156.75 26.2242C157.056 26.1844 157.365 26.217 157.655 26.3195C157.946 26.422 158.209 26.5915 158.423 26.8147C158.637 27.0379 158.798 27.3086 158.892 27.6053C158.985 27.9021 159.009 28.2168 158.961 28.5246H155.56C152.481 28.5246 150.653 30.1702 150.653 32.8927C150.629 33.5424 150.74 34.19 150.979 34.7935C151.217 35.397 151.578 35.943 152.038 36.3962C152.498 36.8494 153.048 37.1996 153.65 37.4243C154.252 37.6489 154.894 37.7429 155.534 37.7003C156.264 37.746 156.994 37.607 157.658 37.2957C158.321 36.9843 158.898 36.5104 159.335 35.9168C159.614 36.3922 160.018 36.7794 160.501 37.0351C160.985 37.2908 161.529 37.4048 162.074 37.3643H163.273V34.1937C162.669 34.1937 162.431 33.9094 162.431 33.1512ZM158.978 32.2896C158.991 32.6287 158.933 32.9666 158.808 33.2814C158.683 33.5962 158.494 33.8808 158.254 34.1166C158.013 34.3523 157.726 34.534 157.411 34.6498C157.096 34.7655 156.761 34.8126 156.427 34.7882C155.177 34.7882 154.191 34.3315 154.191 32.9617C154.191 31.5918 155.288 31.3936 156.215 31.3936H158.978V32.2896ZM173.511 28.7486H168.724V23.6395H165.254V37.3729H168.724V31.9622H173.511V37.3643H176.981V23.6395H173.511V28.7486Z" fill="white"/>
<path d="M249.112 30.7702C249.112 30.7702 250.921 33.2989 254.121 33.2989C255.931 33.2989 257.547 32.401 257.547 30.6364C257.547 26.9755 248.433 27.6411 248.433 22.2489C248.433 19.2196 250.954 17.722 254.218 17.722C255.866 17.722 259.162 18.3876 259.162 20.7512V22.1823H257.094V21.3836C257.094 20.1522 255.349 19.6862 254.283 19.6862C252.021 19.6862 250.664 20.485 250.664 22.1157C250.664 25.8772 259.777 25.0119 259.777 30.5698C259.777 33.3654 257.321 35.2631 254.089 35.2631C249.855 35.2631 247.851 32.3337 247.851 32.3337L249.112 30.7702ZM263.847 14.1616C263.847 13.6956 263.588 13.4294 263.136 13.4294H261.778V11.4651H264.073C265.462 11.4651 266.045 11.9643 266.045 13.3954V24.5127H267.725C268.339 24.5127 269.115 24.313 269.567 23.7139L273.735 18.1227H276.418L271.731 24.2471C270.923 25.2788 270.503 25.4459 270.503 25.4459V25.5125C270.503 25.5125 270.988 25.7455 271.505 26.7439L274.446 32.1694C274.737 32.7345 275.06 32.9016 275.933 32.9016H276.805V34.8651H275.287C273.671 34.8651 273.218 34.5989 272.475 33.2011L269.243 27.2098C268.888 26.5442 268.112 26.4776 267.53 26.4776H266.044V34.8651H263.846L263.847 14.1616ZM280.586 39.8226C282.008 39.8226 282.977 38.6245 283.591 37.0929L284.561 34.7965L278.84 20.8511C278.582 20.252 278.291 20.0856 277.709 20.0856H277.386V18.122H278.388C279.842 18.122 280.295 18.4548 280.876 19.9525L285.045 30.4034C285.368 31.2354 285.627 32.2006 285.627 32.2006H285.691C285.691 32.2006 285.917 31.2354 286.241 30.4034L290.248 19.9525C290.797 18.4548 291.282 18.122 292.769 18.122H293.771V20.0856H293.447C292.866 20.0856 292.543 20.252 292.316 20.8511L285.303 38.3583C284.463 40.4883 282.815 41.8535 280.649 41.8535C278.387 41.8535 277.126 40.222 277.126 40.222L278.161 38.558C278.162 38.5919 279.196 39.8226 280.586 39.8226ZM303.691 17.4897C308.409 17.4897 310.995 21.0507 310.995 25.5444C310.995 26.0436 310.897 27.1086 310.897 27.1086H299.522C299.845 30.1046 301.978 31.6688 304.466 31.6688C307.116 31.6688 309.088 29.7718 309.088 29.7718L310.8 32.7012C310.8 32.7012 308.28 35.2638 304.175 35.2638C298.713 35.2638 295.32 31.2035 295.32 26.3771C295.32 21.1506 298.746 17.4897 303.691 17.4897ZM306.793 24.1799C306.728 22.1497 305.371 20.7519 303.691 20.7519C301.59 20.7519 300.103 22.0499 299.651 24.1799H306.793ZM314.968 22.2156C314.968 21.7164 314.709 21.4834 314.257 21.4834H312.963V17.8891H316.745C318.199 17.8891 318.91 18.588 318.91 19.7861V20.2853C318.91 20.6514 318.845 21.0175 318.845 21.0175H318.91C319.621 19.5864 321.398 17.4897 324.727 17.4897C328.379 17.4897 330.48 19.4533 330.48 23.9469V30.5705C330.48 31.0364 330.738 31.3034 331.191 31.3034H332.484V34.8645H328.573C327.022 34.8645 326.375 34.1988 326.375 32.6007V24.8122C326.375 22.7481 325.858 21.3503 323.79 21.3503C321.592 21.3503 319.944 22.7814 319.362 24.8122C319.136 25.5111 319.04 26.2766 319.04 27.0753V34.8638H314.968V22.2156ZM341.402 17.4897C345.215 17.4897 346.476 19.8859 346.476 19.8859H346.54V19.4533C346.54 18.6878 347.058 17.8891 348.35 17.8891H352.163V21.4834H350.903C350.483 21.4834 350.192 21.7164 350.192 22.149V33.8314C350.192 39.6555 345.797 41.8528 341.499 41.8528C339.43 41.8528 337.232 41.2537 335.649 40.3884L336.91 37.0596C336.91 37.0596 338.945 38.1919 341.467 38.1919C343.955 38.1919 346.12 37.0929 346.12 34.031V33.2323C346.12 32.8329 346.152 32.3337 346.152 32.3337H346.088C345.118 33.7648 343.696 34.5309 341.499 34.5309C336.781 34.5309 334.098 30.6031 334.098 25.9431C334.098 21.283 336.651 17.4897 341.402 17.4897ZM346.217 25.977C346.217 22.1157 344.343 21.084 342.112 21.084C339.624 21.084 338.266 22.9478 338.266 25.8099C338.266 28.7726 339.721 30.9692 342.371 30.9692C344.343 30.9699 346.217 29.8043 346.217 25.977Z" fill="white"/>
<path d="M748.046 30.1247L753.761 36.7054H750.046L745.628 31.6342V36.7054H742.549V24.4344H745.628V28.8866L749.971 24.4344H753.61L748.046 30.1247ZM655.988 27.7502C658.23 27.7502 659.259 26.6647 659.259 25.028C659.259 23.3913 658.23 22.3059 655.988 22.3059H651.545V27.7502H655.988ZM656.088 19.3802C659.945 19.3802 662.489 21.3815 662.489 25.0196C662.489 28.6576 659.945 30.6589 656.088 30.6589H651.545V36.6969H648.324V19.3802H656.088ZM669.76 34.1358C671.567 34.1358 673.248 32.8214 673.248 30.5741C673.248 28.3269 671.567 27.0124 669.76 27.0124C667.952 27.0124 666.271 28.3269 666.271 30.5741C666.271 32.8214 667.952 34.1358 669.76 34.1358ZM669.76 24.0867C673.081 24.0867 676.378 26.2662 676.378 30.5741C676.378 34.8821 673.081 37.0615 669.76 37.0615C666.438 37.0615 663.142 34.8821 663.142 30.5741C663.142 26.2662 666.438 24.0867 669.76 24.0867ZM684.234 34.1358C682.376 34.1358 681.013 32.779 681.013 30.5741C681.013 28.3947 682.427 27.0124 684.234 27.0124C685.33 27.0124 686.284 27.5297 687.045 28.6915L689.681 27.1566C688.802 25.2485 686.894 24.0867 684.259 24.0867C680.82 24.0867 677.884 26.6647 677.884 30.5741C677.884 34.4835 680.67 37.0615 684.259 37.0615C686.844 37.0615 688.576 35.8743 689.798 33.7712L687.254 32.3635C686.526 33.3896 685.748 34.1358 684.234 34.1358ZM716.989 31.3882C716.839 33.2709 716.479 33.6864 715.843 33.6864C715.408 33.6864 715.207 33.6355 714.906 33.5592L714.923 36.7393C714.923 36.7393 715.308 36.858 716.01 36.858C718.621 36.858 719.6 35.1535 719.842 31.5154L720.135 27.2329H723.599V36.6884H726.678V24.4344H717.5L716.989 31.3882ZM711.308 28.9374C711.016 27.4025 709.869 26.4612 708.162 26.4612C706.548 26.4612 705.326 27.5467 704.891 28.9374H711.308ZM708.263 24.0867C711.727 24.0867 714.17 26.6393 714.17 30.2264V31.3119H704.841C705.033 33.1945 706.355 34.3818 708.162 34.3818C709.802 34.3818 710.48 33.6609 711.241 32.7027L713.684 33.9408C712.463 36.0439 710.781 37.0615 708.121 37.0615C704.749 37.0615 701.896 34.4666 701.896 30.5741C701.888 26.6817 704.741 24.0867 708.263 24.0867ZM737.822 28.9374C737.529 27.4025 736.383 26.4612 734.676 26.4612C733.062 26.4612 731.84 27.5467 731.405 28.9374H737.822ZM734.777 24.0867C738.241 24.0867 740.684 26.6393 740.684 30.2264V31.3119H731.355C731.547 33.1945 732.869 34.3818 734.676 34.3818C736.316 34.3818 736.994 33.6609 737.755 32.7027L740.198 33.9408C738.977 36.0439 737.295 37.0615 734.635 37.0615C731.263 37.0615 728.41 34.4666 728.41 30.5741C728.401 26.6817 731.254 24.0867 734.777 24.0867ZM690.751 27.1566H694.366V36.7054H697.445V27.1566H701.059V24.4344H690.751V27.1566ZM759.868 34.1358C761.675 34.1358 763.357 32.8214 763.357 30.5741C763.357 28.3269 761.675 27.0124 759.868 27.0124C758.061 27.0124 756.379 28.3269 756.379 30.5741C756.379 32.8214 758.061 34.1358 759.868 34.1358ZM759.868 24.0867C763.19 24.0867 766.486 26.2662 766.486 30.5741C766.486 34.8821 763.19 37.0615 759.868 37.0615C756.547 37.0615 753.25 34.8821 753.25 30.5741C753.25 26.2662 756.547 24.0867 759.868 24.0867ZM778.727 24.4259L775.388 33.0249L772.05 24.4259H768.026V36.6799H770.946V28.9205L774.184 36.6799H776.568L779.806 28.9205V36.6799H782.734V24.4259H778.727Z" fill="white"/>
<path d="M638.468 41.997H621.4C620.171 41.997 619.443 40.8776 619.443 39.9024C619.443 39.3257 619.677 38.7999 620.045 38.4268L627.491 30.8794L638.468 41.997Z" fill="white"/>
<path d="M621.4 41.997C620.111 41.997 618.496 40.9539 618.496 38.8763V15.6149C618.496 12.4687 618.337 10.2639 620.555 8.0166L628.863 -0.404297L643.596 14.5549L620.044 38.4268C619.668 38.8084 619.442 39.3257 619.442 39.9024C619.442 40.8776 620.17 41.997 621.4 41.997Z" fill="white"/>
<path d="M881.267 36.8822C880.212 36.8822 879.433 36.0146 879.433 35.0556C879.433 34.0054 880.304 33.2291 881.267 33.2291C882.322 33.2291 883.102 34.0967 883.102 35.0556C883.102 36.0146 882.322 36.8822 881.267 36.8822ZM876.91 36.8822C875.855 36.8822 875.076 36.0146 875.076 35.0556C875.076 34.0054 875.947 33.2291 876.91 33.2291C877.965 33.2291 878.745 34.0967 878.745 35.0556C878.745 36.0146 877.965 36.8822 876.91 36.8822ZM872.553 36.8822C871.498 36.8822 870.719 36.0146 870.719 35.0556C870.719 34.0054 871.59 33.2291 872.553 33.2291C873.608 33.2291 874.388 34.0967 874.388 35.0556C874.479 36.0146 873.562 36.8822 872.553 36.8822ZM872.874 14.0961V29.3477C872.874 30.0327 872.37 30.5806 871.636 30.5806H869.801C869.71 30.5806 869.618 30.6719 869.618 30.7633V43.549C870.076 43.549 870.489 43.6403 871.04 43.6403C879.249 43.6403 885.9 37.0192 885.9 28.8454C885.9 21.2196 880.212 14.9637 872.874 14.0961Z" fill="white"/>
<path d="M868.15 26.1981C867.095 26.1981 866.316 25.3305 866.316 24.3715C866.316 23.3213 867.187 22.545 868.15 22.545C869.205 22.545 869.985 23.4126 869.985 24.3715C869.985 25.3305 869.205 26.1981 868.15 26.1981ZM871.04 14.0059C862.83 14.0059 856.18 20.6271 856.18 28.8009C856.18 35.9244 861.179 41.8606 867.921 43.2762V29.9425C867.921 29.3489 868.425 28.8009 869.067 28.7096H870.902C870.994 28.7096 871.085 28.6182 871.085 28.5269V14.0059H871.04Z" fill="white"/>
<path d="M952.311 30.8089L954.604 25.4206C954.696 25.238 954.787 25.238 954.879 25.238C954.971 25.238 955.154 25.238 955.154 25.4206L957.448 30.8089H952.311ZM957.998 23.7311C957.402 22.4069 956.163 21.7219 954.925 21.7219C953.687 21.7219 952.494 22.4069 951.852 23.7311L945.798 36.8822H949.742L951.072 33.7314H958.778L960.108 36.8822H964.052L957.998 23.7311Z" fill="white"/>
<path d="M998.312 21.9046C1003.91 21.9046 1006.2 24.3248 1006.2 29.4847C1006.2 34.5534 1003.91 36.9735 998.22 37.0649H996.982C991.387 37.0649 989.094 34.5534 989.094 29.4847C989.094 24.3248 991.387 21.9046 996.982 21.9046H998.312ZM913.739 19.3931C911.996 19.3931 910.849 20.352 910.07 22.1786L905.254 33.3205L900.438 22.1786C899.659 20.352 898.512 19.3931 896.769 19.3931C895.118 19.3931 893.467 20.5347 893.467 23.0462V36.7909H897.136V23.4572L901.998 34.5534C902.594 36.1059 903.741 37.0649 905.254 37.0649C906.813 37.0649 907.868 36.1059 908.51 34.5534L913.418 23.5028V36.9279H917.087V23.1832C917.041 20.626 915.39 19.3931 913.739 19.3931ZM1012.39 27.6582H1019.91V22.0873H1023.58V36.8822H1019.91V30.8546H1012.39V36.8822H1008.63V22.0873H1012.39V27.6582ZM948.55 22.0873V25.238H939.377C939.193 25.238 939.01 25.4207 939.01 25.6033V36.8365H935.341V24.2791C935.341 23.1375 936.212 22.0873 937.542 22.0873H948.55ZM978.82 19.7584C984.232 19.7584 986.525 22.5439 986.617 27.3386C986.617 28.1148 986.525 28.7998 986.433 29.4391C985.837 32.8182 983.819 34.9187 978.637 34.9187H977.077V36.8365H973.408V34.9187H971.711C966.528 34.9187 964.556 32.8182 963.914 29.4391C963.823 28.8454 963.731 28.1148 963.731 27.3386C963.731 22.5439 965.932 19.7584 971.436 19.7584H978.82ZM932.818 21.9959V25.1467H923.646C923.462 25.1467 923.279 25.3294 923.279 25.512V27.7952H932.543V30.8546H923.279V33.4574C923.279 33.6401 923.462 33.8228 923.646 33.8228V33.6401H932.818V36.7909H921.811C920.573 36.7909 919.61 35.7406 919.61 34.599V24.2334C919.61 23.0919 920.481 22.0416 921.811 22.0416L932.818 21.9959ZM998.22 33.9597C1001.39 33.9597 1002.49 32.5442 1002.49 29.5304C1002.49 26.5623 1001.34 25.101 998.22 25.101H996.982C993.726 25.101 992.717 26.5623 992.717 29.5304C992.717 32.5898 993.955 33.9597 996.982 33.9597H998.22ZM978.728 31.9506C981.159 31.9506 982.122 30.9916 982.673 29.5304C982.856 28.9368 982.856 28.2062 982.948 27.3386C982.948 24.1878 981.48 22.9092 979.37 22.9092H977.077V31.9506H978.728ZM973.271 31.8592V22.8635H970.977C968.867 22.8635 967.4 24.1878 967.4 27.2929C967.4 28.0692 967.4 28.8454 967.583 29.3934C968.088 30.8546 969.005 31.8136 971.528 31.8136H973.271V31.8592Z" fill="white"/>
<path d="M1204.86 34.7911C1214.77 29.5521 1217.16 22.8949 1214.11 21.0435C1209.6 18.5224 1197.26 23.0524 1198.63 35.4608C1198 35.8153 1196.79 36.485 1196.79 36.485L1197.61 39.006C1197.61 39.006 1199.33 37.9819 1199.8 37.6273C1201.25 38.8091 1202 39.4393 1204.27 39.5181C1209.05 39.6363 1213.17 34.279 1213.17 34.279L1211.95 32.3882C1211.95 32.4276 1206.7 37.5092 1204.86 34.7911ZM1206.19 27.1886C1207.6 24.6675 1209.91 22.6979 1211.05 23.4857C1212.19 24.2736 1209.91 28.2521 1204.55 32.5064C1204.31 32.1519 1204.74 29.749 1206.19 27.1886ZM1115.01 39.5181C1114.26 39.5181 1113.2 39.2424 1112.38 38.4152C1109.99 35.9335 1112.26 27.4643 1112.73 25.6523C1112.77 25.4947 1112.65 25.3372 1112.46 25.3372C1112.34 25.3372 1112.26 25.3765 1112.22 25.4947C1111.2 27.5037 1105.76 39.5181 1100.94 39.5181C1100.86 39.5181 1100.74 39.5181 1100.66 39.5181C1096 39.0848 1096.63 32.6246 1098.08 28.6854H1105.6C1104.97 30.3793 1104.78 31.4429 1104.82 31.9943C1104.82 32.3882 1105.17 32.5852 1105.48 32.4276C1106.27 32.0337 1107.56 30.3399 1108.66 28.3703C1110.66 24.8645 1113.28 19.5072 1117.79 5.99588H1126.02C1123.59 13.5197 1121.59 20.3344 1120.53 28.0946C1120.49 28.4885 1120.92 28.8036 1121.28 28.4885C1123.63 26.2826 1132.21 7.61093 1132.76 5.99588H1141.03C1141.03 5.99588 1132.84 28.8036 1133.54 32.5852C1133.62 33.0973 1134.17 33.2549 1134.6 32.7428C1135.11 32.1519 1135.89 31.1277 1136.32 30.6156L1137.62 31.9156C1135.27 34.8305 1131.46 40.109 1127.62 39.4787C1127.04 39.4 1126.45 39.0454 1126.02 38.6121C1122.06 35.1457 1127.58 23.5645 1128.56 20.8465C1128.76 20.2556 1129 19.7042 1129.11 19.3496C1129.19 19.1921 1129.03 18.9951 1128.88 18.9951C1128.76 18.9951 1128.68 19.0345 1128.64 19.1527C1128.45 19.5466 1127.94 20.6496 1127.78 21.0435C1125.27 26.0856 1119.63 39.5181 1115.01 39.5181ZM1192.2 11.7077C1188.52 11.7471 1186.68 13.6772 1186.68 13.6772L1186.76 15.9226C1186.76 15.9226 1189.11 13.5985 1191.73 14.5832C1193.53 15.2529 1195.34 17.577 1194.08 22.6585C1192.99 19.8223 1188.71 19.1921 1185.27 22.8949C1182.52 25.8492 1178.8 35.7365 1184.29 38.8091C1191.1 42.5907 1197.06 31.5216 1198.43 23.9584C1199.37 19.1921 1199.88 11.6289 1192.2 11.7077ZM1189.38 34.6336C1188.64 35.1457 1187.34 35.4214 1187.11 33.0973C1186.76 29.749 1189.03 25.7311 1189.77 24.8251C1190.99 23.2494 1192.67 23.0918 1192.71 25.5341C1192.71 28.2915 1191.18 33.3336 1189.38 34.6336ZM1168.85 9.85625C1164.89 8.47755 1150.86 12.9288 1146.24 28.5279C1145.69 28.6854 1142.98 29.3945 1142.98 29.3945L1141.81 32.5852L1146 31.2853C1146 31.2853 1145.53 39.2818 1152.55 39.5181C1158.07 39.3212 1161.01 31.2065 1159.29 26.0068C1158.93 26.1644 1154.43 28.0946 1154.43 28.0946C1154.43 28.0946 1155.33 33.373 1153.37 34.5548C1153.06 34.7517 1152.66 34.7124 1152.43 34.3578C1151.84 33.57 1151.49 31.4822 1152.11 28.7642C1162.22 23.4857 1169.08 14.2287 1169.51 10.9986C1169.63 10.2108 1168.96 9.89565 1168.85 9.85625ZM1156.31 23.6433C1154.43 25.1008 1152.98 25.8099 1152.98 25.8099C1152.98 25.8099 1153.49 24.5887 1153.92 23.8797C1155.01 22.0677 1160.23 15.0166 1164.58 13.7166C1164.73 13.6772 1164.89 13.7954 1164.85 13.953C1164.81 15.4893 1159.29 21.3586 1156.31 23.6433ZM1177.39 35.4214C1178.06 34.9881 1178.96 34.279 1178.96 34.279L1179.51 36.0123C1179.19 36.3668 1176.49 38.5333 1174.8 39.3212C1173 40.1878 1171.32 39.0454 1171.08 37.6667C1170.81 36.0911 1171.63 34.0427 1171.63 34.0427C1171.63 34.0427 1168.73 37.3516 1165.79 38.9666C1164.97 39.4 1164.34 39.5969 1163.87 39.5969C1161.91 39.5575 1161.28 37.6273 1161.48 36.6031C1161.75 35.382 1164.42 27.0704 1164.77 25.7311C1164.81 25.6129 1164.65 25.4553 1164.5 25.4947C1163.67 25.7311 1161.56 27.1098 1161.56 27.1098V24.8251C1161.56 24.8251 1167.4 20.8465 1168.96 20.3738C1170.38 19.9799 1171.63 20.7677 1171.24 22.4222C1171.08 23.5645 1167.59 33.1367 1167.36 34.279C1167.32 34.5154 1167.55 34.5154 1167.63 34.5154C1168.77 34.1609 1170.85 32.3882 1172.45 29.8278C1173.94 27.4643 1174.96 24.4311 1176.21 20.6889H1181.54C1181.54 20.6889 1177.51 33.1367 1177.04 35.1851C1177.04 35.382 1177.27 35.5002 1177.39 35.4214ZM1220.06 39.5575C1217.2 39.5575 1215.87 37.1546 1215.56 36.3668C1212.3 28.2127 1221.87 20.6496 1221.87 20.6496H1227.39C1227.39 20.6496 1218.97 27.4249 1220.14 33.4124C1220.93 36.3274 1223.43 35.579 1225.08 33.2549C1227.08 30.4581 1228.88 24.9432 1227.51 24.8251C1226.25 24.6675 1224.57 27.4249 1224.57 27.4249L1223.39 25.6129C1224.3 24.4311 1226.88 21.3192 1229.78 20.3738C1230.21 20.2556 1232.84 19.5466 1232.84 23.407C1232.84 27.6219 1228.25 39.5969 1220.06 39.5575ZM1142.32 37.3122C1142.32 38.5333 1141.34 39.5181 1140.12 39.5181C1138.91 39.5181 1137.93 38.5333 1137.93 37.3122C1137.93 36.0911 1138.91 35.1063 1140.12 35.1063C1141.3 35.1063 1142.32 36.0911 1142.32 37.3122Z" fill="white"/>
<path d="M426.686 14.0658H450.833V38.4399H426.686V14.0658Z" fill="white"/>
<path d="M480.081 28.8735L479.458 32.756H483.212L483.835 28.8735H486.596L484.904 39.3174H482.165L482.881 34.837H479.127L478.411 39.3174H475.642L477.365 28.8735H480.112H480.081ZM491.02 28.8735H488.135L486.404 39.3174H489.235L490.004 34.806L492.928 39.3484H496.597L492.751 33.8431L497.905 28.9046H494.443L490.297 33.2064L491.02 28.8735ZM471.404 35.4039L470.803 32.0649L469.073 35.4039H471.404ZM471.819 37.4771H467.911L466.873 39.2863H463.857L469.757 28.8425H472.834L475.219 39.2863H472.211L471.819 37.4771ZM464.395 36.1493C464.314 36.851 464.025 37.5114 463.565 38.0439C462.465 39.1854 460.795 39.2475 459.718 39.2786H455.572L457.364 28.8735H464.426L464.095 30.9157H459.811L459.48 32.989H460.703C461.746 32.9155 462.781 33.2151 463.626 33.8353C463.944 34.1226 464.182 34.4886 464.317 34.8971C464.452 35.3056 464.479 35.7426 464.395 36.1648V36.1493ZM459.926 34.938H459.157L458.772 37.1665H459.488C461.095 37.1665 461.426 36.7161 461.518 36.1105C461.611 35.5048 461.518 34.938 459.911 34.938H459.926ZM531.452 19.1984H534.314C534.249 18.876 534.072 18.5874 533.815 18.3841C533.559 18.1807 533.24 18.0758 532.914 18.088C532.576 18.0532 532.238 18.1483 531.968 18.3541C531.697 18.56 531.512 18.8615 531.452 19.1984ZM536.599 20.3864V20.6582H531.414C531.389 20.8682 531.411 21.0811 531.481 21.2808C531.549 21.4806 531.661 21.6622 531.81 21.8116C531.958 21.9611 532.138 22.0748 532.335 22.144C532.533 22.2132 532.745 22.2362 532.952 22.2112C533.189 22.2316 533.427 22.1795 533.634 22.0617C533.841 21.944 534.009 21.7661 534.114 21.5512H536.499C536.114 23.2362 534.56 23.9894 532.983 23.9894C530.675 23.9894 528.96 22.6693 528.96 20.2001C528.931 19.6868 529.011 19.173 529.195 18.6936C529.379 18.2142 529.664 17.7803 530.028 17.4212C530.392 17.062 530.829 16.7859 531.308 16.6117C531.788 16.4374 532.298 16.3689 532.806 16.4108C535.222 16.4108 536.591 17.9638 536.591 20.3864H536.599ZM468.211 18.4918C467.999 18.481 467.788 18.5146 467.589 18.5902C467.391 18.6659 467.211 18.7821 467.059 18.9315C466.907 19.081 466.788 19.2605 466.708 19.4588C466.628 19.657 466.59 19.8697 466.596 20.0836C466.59 20.2941 466.628 20.5035 466.705 20.6991C466.782 20.8946 466.898 21.0722 467.046 21.2211C467.193 21.37 467.369 21.4871 467.563 21.5651C467.757 21.6432 467.964 21.6808 468.173 21.6754C468.383 21.6891 468.594 21.6573 468.792 21.5822C468.989 21.507 469.169 21.3902 469.318 21.2396C469.467 21.0889 469.583 20.9079 469.657 20.7086C469.732 20.5093 469.763 20.2962 469.75 20.0836C469.755 19.8731 469.718 19.6638 469.64 19.4682C469.563 19.2726 469.447 19.0951 469.299 18.9461C469.152 18.7973 468.976 18.6802 468.782 18.6021C468.589 18.524 468.381 18.4864 468.173 18.4918H468.211ZM472.134 16.535V23.64H469.673V22.8635C469.44 23.1987 469.126 23.4687 468.762 23.648C468.397 23.8273 467.993 23.91 467.588 23.8884C467.111 23.8766 466.641 23.7685 466.206 23.5705C465.77 23.3724 465.379 23.0884 465.054 22.7353C464.729 22.3822 464.478 21.967 464.315 21.5143C464.151 21.0615 464.079 20.5803 464.103 20.0991C464.077 19.6196 464.147 19.1396 464.307 18.6876C464.468 18.2354 464.716 17.8203 465.038 17.4665C465.36 17.1127 465.749 16.8275 466.181 16.6275C466.614 16.4276 467.082 16.3169 467.557 16.3021C467.955 16.2927 468.35 16.3704 468.715 16.5299C469.08 16.6895 469.407 16.9269 469.673 17.2261V16.535H472.134ZM508.174 18.4918C507.966 18.4864 507.758 18.524 507.564 18.6021C507.371 18.6802 507.195 18.7973 507.047 18.9461C506.9 19.0951 506.784 19.2726 506.707 19.4682C506.629 19.6638 506.592 19.8731 506.597 20.0836C506.592 20.2941 506.629 20.5035 506.707 20.6991C506.784 20.8946 506.9 21.0722 507.047 21.2211C507.195 21.37 507.371 21.4871 507.564 21.5651C507.758 21.6432 507.966 21.6808 508.174 21.6754C508.385 21.6891 508.596 21.6573 508.794 21.5822C508.991 21.507 509.171 21.3902 509.32 21.2396C509.469 21.0889 509.584 20.9079 509.659 20.7086C509.734 20.5093 509.765 20.2962 509.751 20.0836C509.757 19.8731 509.72 19.6638 509.642 19.4682C509.564 19.2726 509.449 19.0951 509.301 18.9461C509.154 18.7973 508.977 18.6802 508.784 18.6021C508.591 18.524 508.383 18.4864 508.174 18.4918ZM512.113 16.535V23.64H509.674V22.8635C509.441 23.1987 509.128 23.4687 508.764 23.648C508.399 23.8273 507.995 23.91 507.59 23.8884C507.113 23.8766 506.643 23.7685 506.207 23.5705C505.772 23.3724 505.38 23.0884 505.056 22.7353C504.731 22.3822 504.48 21.967 504.316 21.5143C504.153 21.0615 504.081 20.5803 504.105 20.0991C504.08 19.6196 504.15 19.1399 504.312 18.6881C504.473 18.2364 504.723 17.8218 505.046 17.4688C505.368 17.1158 505.757 16.8314 506.19 16.6324C506.623 16.4333 507.091 16.3237 507.567 16.3099C507.97 16.2969 508.371 16.3736 508.743 16.5346C509.114 16.6956 509.444 16.937 509.713 17.2416V16.535H512.113ZM455.957 23.64V13.1961H460.134C462.934 13.1961 463.742 15.215 463.742 16.6282C463.761 17.1037 463.68 17.5779 463.503 18.0191C463.326 18.4602 463.058 18.8581 462.716 19.1861C462.374 19.514 461.967 19.7644 461.522 19.9206C461.077 20.0767 460.603 20.1349 460.134 20.0914H458.595V23.64H455.957ZM458.611 15.4557V17.8551H459.503C460.726 17.8551 460.841 17.0786 460.841 16.6826C460.841 16.2866 460.665 15.5101 459.503 15.5101H458.734L458.641 15.4557H458.611ZM473.696 16.5428V23.6477H476.081L478.527 19.7653V23.6477H481.004V16.535H478.619L476.173 20.3554V16.535L473.696 16.5428ZM477.542 15.6421C478.123 15.6892 478.703 15.554 479.204 15.2552C479.706 14.9563 480.103 14.5083 480.342 13.9726L478.735 13.3669C478.675 13.6276 478.525 13.8582 478.312 14.0175C478.099 14.1769 477.837 14.2546 477.573 14.2366C477.308 14.2578 477.044 14.1814 476.831 14.0215C476.617 13.8617 476.468 13.6291 476.411 13.3669L474.804 13.9726C475.046 14.4981 475.44 14.9373 475.935 15.2325C476.429 15.5277 477 15.6651 477.573 15.6265L477.542 15.6421ZM486.096 26.7304V23.7564C484.635 23.7564 482.189 23.1508 482.189 20.0836C482.189 17.0165 484.604 16.4419 486.096 16.4419V13.3359H488.573V16.4419C490.066 16.4419 492.42 17.0475 492.42 20.0836C492.42 23.1197 490.004 23.7564 488.573 23.7564V26.7692L486.096 26.7304ZM488.404 18.189V22.1336C489.243 22.1336 490.074 21.5279 490.074 20.1457C490.074 18.7636 489.235 18.1579 488.404 18.189ZM486.258 18.189C485.419 18.189 484.589 18.7946 484.589 20.1768C484.589 21.559 485.427 22.1336 486.258 22.1025V18.189ZM497.197 23.7564C495.735 23.7564 493.289 23.1508 493.289 20.0836C493.289 17.0165 495.705 16.4419 497.197 16.4419V13.3359H499.674V16.4419C501.166 16.4419 503.582 17.0475 503.582 20.0836C503.582 23.1197 501.166 23.7564 499.674 23.7564V26.7692H497.197V23.7564ZM499.505 18.22V22.1646C500.343 22.1646 501.174 21.559 501.174 20.1768C501.174 18.7946 500.336 18.189 499.505 18.22ZM497.328 22.1025V18.22C496.489 18.22 495.628 18.8257 495.628 20.2079C495.605 20.4506 495.633 20.6953 495.711 20.9263C495.788 21.1572 495.913 21.369 496.077 21.5479C496.241 21.7267 496.441 21.8685 496.663 21.9641C496.885 22.0597 497.125 22.1068 497.366 22.1025H497.328ZM513.728 16.535V23.64H516.113L518.559 19.7575V23.64H521.036V16.535H518.652L516.175 20.3243V16.535H513.728ZM517.575 15.6343C518.146 15.6706 518.713 15.5312 519.204 15.2344C519.694 14.9377 520.084 14.4977 520.321 13.9726L518.713 13.3669C518.653 13.6276 518.504 13.8582 518.291 14.0175C518.078 14.1769 517.816 14.2546 517.552 14.2366C517.286 14.2612 517.021 14.1861 516.806 14.0257C516.592 13.8653 516.444 13.6307 516.39 13.3669L514.775 13.9726C515.017 14.4981 515.412 14.9373 515.905 15.2325C516.4 15.5277 516.971 15.6651 517.544 15.6265L517.575 15.6343ZM522.883 18.5772C523.417 18.2034 524.048 17.9931 524.698 17.9716C524.998 17.9716 525.683 18.0337 525.683 18.6005C525.683 19.1674 525.083 19.2062 524.852 19.2062H523.629V20.7592H524.706C525.067 20.7592 525.721 20.7592 525.721 21.3648C525.721 21.6055 525.575 22.0559 524.706 22.0559C523.951 22.0541 523.214 21.8243 522.59 21.3959L521.983 23.0964C522.944 23.6536 524.036 23.943 525.144 23.935C527.975 23.935 528.337 22.2811 528.337 21.7376C528.34 21.323 528.198 20.9206 527.937 20.6011C527.674 20.2815 527.31 20.0653 526.906 19.9904C527.219 19.8483 527.483 19.6149 527.664 19.3202C527.845 19.0255 527.934 18.683 527.921 18.3365C527.921 16.6826 526.19 16.3487 525.121 16.3487C524.119 16.3674 523.133 16.6031 522.229 17.0398L522.883 18.5772ZM537.845 23.6322H540.322V20.8058H542.591V23.6322H545.061V16.535H542.584V19.0353H540.314V16.535H537.837L537.845 23.6322Z" fill="white"/>
<path d="M451.672 39.2863H425.825V13.1961H451.672V39.2863ZM450.833 14.0658H426.686V38.4399H450.833V14.0658Z" fill="white"/>
<path d="M438.764 29.2308L431.34 36.7239L428.386 33.7422L435.825 26.2568L434.287 24.7038V21.5978L433.21 20.5107V23.1896L432.286 24.1214L428.502 20.3632L427.579 21.295C427.584 20.4602 427.752 19.6346 428.074 18.8657C428.396 18.0968 428.866 17.3998 429.456 16.8146C430.025 16.1707 430.822 15.7782 431.675 15.7215C432.528 15.6649 433.369 15.9487 434.017 16.5118L437.771 20.3321L436.817 21.295L438.764 23.2906L440.733 21.3028L439.779 20.3399L443.518 16.504C444.165 15.939 445.006 15.6539 445.86 15.7106C446.714 15.7673 447.511 16.1611 448.079 16.8069C448.669 17.392 449.139 18.0891 449.461 18.858C449.783 19.6268 449.951 20.4524 449.956 21.2872L449.033 20.3554L445.249 24.1447L444.325 23.2129V20.5107L443.256 21.5978V24.7038L441.718 26.2568L449.141 33.75L446.187 36.7239L438.764 29.2308Z" fill="white"/>
</svg>
