<svg width="182" height="51" viewBox="0 0 182 51" fill="none" xmlns="http://www.w3.org/2000/svg">
<path d="M-848.555 45.4707H-819.491V51.5973H-848.555V45.4707ZM-839.91 31.0111H-828.446L-826.511 37.1713H-820.154L-828.733 11.2761C-829.562 8.78957 -830.524 6.79591 -833.807 6.79591C-837.091 6.79591 -838.097 8.75597 -838.959 11.2761L-847.936 37.1601H-841.977L-839.91 31.0111ZM-834.095 13.5161H-833.951L-830.093 25.8365H-838.163L-834.095 13.5161Z" fill="white"/>
<path d="M-662.763 30.1702L-656.921 23.6395H-661.275L-666.062 29.0674V23.6395H-669.532V37.3643H-666.045V31.5832L-660.926 37.3643H-656.453L-662.763 30.1702ZM-776.196 31.0748C-776.289 33.6595 -776.612 34.1506 -778.024 34.1506V37.3729H-777.497C-773.951 37.3729 -773.109 35.5205 -772.981 31.3936L-772.828 26.8273H-769.554V37.3643H-766.085V23.6395H-775.958L-776.196 31.0748ZM-791.256 33.4355H-783.943L-782.727 37.3643H-778.67L-784.138 20.8567C-784.665 19.2628 -785.278 17.9963 -787.37 17.9963C-789.462 17.9963 -790.099 19.2628 -790.661 20.8567L-796.392 37.3643H-792.583L-791.256 33.4355ZM-787.548 22.3041H-787.455L-785.006 30.1271H-790.159L-787.548 22.3041ZM-706.498 25.5867H-710.367V21.7096H-701.387V18.2634H-714.007V37.3643H-706.498C-702.34 37.3643 -699.95 35.262 -699.95 31.4195C-699.95 27.775 -702.374 25.5867 -706.498 25.5867ZM-706.677 33.9094H-710.367V28.9468H-706.677C-704.755 28.9468 -703.675 29.8083 -703.675 31.4281C-703.675 33.0478 -704.755 33.9094 -706.677 33.9094ZM-740.99 23.3207V18.2375H-744.451V23.3207C-746.268 23.3815 -747.987 24.1705 -749.231 25.5145C-750.475 26.8585 -751.141 28.6476 -751.084 30.489C-751.146 32.3341 -750.482 34.1286 -749.238 35.4777C-747.994 36.8269 -746.272 37.6201 -744.451 37.683V42.8524H-740.981V37.683C-740.079 37.653 -739.192 37.443 -738.37 37.0649C-737.548 36.687 -736.808 36.1484 -736.192 35.4802C-735.576 34.8119 -735.096 34.0271 -734.779 33.1706C-734.463 32.3141 -734.316 31.4028 -734.348 30.489C-734.312 29.5745 -734.456 28.6618 -734.771 27.8043C-735.087 26.9467 -735.567 26.1614 -736.186 25.4941C-736.804 24.8269 -737.547 24.291 -738.372 23.9179C-739.197 23.5448 -740.087 23.3418 -740.99 23.3207ZM-744.442 34.366C-745.361 34.2638 -746.202 33.8 -746.786 33.0748C-747.37 32.3495 -747.649 31.4208 -747.563 30.489C-747.638 29.5594 -747.355 28.6366 -746.773 27.9139C-746.191 27.1912 -745.356 26.7246 -744.442 26.6119V34.366ZM-740.973 34.366V26.6119C-740.059 26.7246 -739.224 27.1912 -738.642 27.9139C-738.06 28.6366 -737.777 29.5594 -737.852 30.489C-737.77 31.4199 -738.051 32.3462 -738.634 33.0705C-739.217 33.7947 -740.056 34.2596 -740.973 34.366ZM-721.346 33.1512V28.5246C-721.346 25.1473 -723.463 23.0364 -727.018 23.0364C-730.573 23.0364 -732.647 25.2765 -732.818 27.6113H-729.305C-729.186 27.1116 -728.659 26.2242 -727.026 26.2242C-726.721 26.1844 -726.412 26.217 -726.122 26.3195C-725.831 26.422 -725.568 26.5915 -725.354 26.8147C-725.139 27.0379 -724.979 27.3086 -724.885 27.6053C-724.792 27.9021 -724.768 28.2168 -724.815 28.5246H-728.217C-731.295 28.5246 -733.124 30.1702 -733.124 32.8927C-733.148 33.5424 -733.037 34.19 -732.798 34.7935C-732.559 35.397 -732.198 35.943 -731.738 36.3962C-731.278 36.8494 -730.729 37.1996 -730.127 37.4243C-729.525 37.6489 -728.883 37.7429 -728.242 37.7003C-727.52 37.7388 -726.799 37.5962 -726.143 37.2852C-725.487 36.9741 -724.917 36.5042 -724.484 35.9168C-724.201 36.4006 -723.79 36.7933 -723.296 37.0494C-722.803 37.3057 -722.247 37.4148 -721.695 37.3643H-720.495V34.1937C-721.082 34.1937 -721.346 33.9094 -721.346 33.1512ZM-724.815 32.2896C-724.801 32.629 -724.858 32.9676 -724.983 33.283C-725.107 33.5984 -725.296 33.8836 -725.537 34.1197C-725.778 34.3558 -726.065 34.5374 -726.381 34.6527C-726.696 34.7678 -727.032 34.814 -727.367 34.7882C-728.617 34.7882 -729.603 34.3315 -729.603 32.9617C-729.603 31.5918 -728.506 31.3936 -727.579 31.3936H-724.815V32.2896ZM-757.445 27.8095H-759.936V23.6395H-763.406V37.3643H-757.385C-753.618 37.3643 -752.283 34.8829 -752.283 32.5395C-752.266 29.5154 -754.137 27.8095 -757.445 27.8095ZM-757.7 34.366H-759.936V30.9197H-757.7C-756.501 30.9197 -755.778 31.4711 -755.778 32.6429C-755.778 33.8146 -756.467 34.366 -757.7 34.366ZM-686.71 33.1512V28.5246C-686.71 25.1473 -688.827 23.0364 -692.382 23.0364C-695.936 23.0364 -698.011 25.2765 -698.181 27.6113H-694.669C-694.55 27.1116 -694.023 26.2242 -692.39 26.2242C-692.085 26.1844 -691.775 26.217 -691.485 26.3195C-691.195 26.422 -690.932 26.5915 -690.718 26.8147C-690.503 27.0379 -690.343 27.3086 -690.249 27.6053C-690.155 27.9021 -690.132 28.2168 -690.179 28.5246H-693.581C-696.659 28.5246 -698.488 30.1702 -698.488 32.8927C-698.511 33.5424 -698.401 34.19 -698.162 34.7935C-697.924 35.397 -697.562 35.943 -697.102 36.3962C-696.642 36.8494 -696.093 37.1996 -695.491 37.4243C-694.889 37.6489 -694.247 37.7429 -693.606 37.7003C-692.877 37.746 -692.147 37.607 -691.483 37.2957C-690.82 36.9843 -690.243 36.5104 -689.805 35.9168C-689.527 36.3922 -689.123 36.7794 -688.639 37.0351C-688.155 37.2908 -687.611 37.4048 -687.067 37.3643H-685.868V34.1937C-686.472 34.1937 -686.71 33.9094 -686.71 33.1512ZM-690.162 32.2896C-690.15 32.6287 -690.207 32.9666 -690.332 33.2814C-690.457 33.5962 -690.646 33.8808 -690.887 34.1166C-691.127 34.3523 -691.415 34.534 -691.73 34.6498C-692.044 34.7655 -692.379 34.8126 -692.713 34.7882C-693.964 34.7882 -694.95 34.3315 -694.95 32.9617C-694.95 31.5918 -693.853 31.3936 -692.926 31.3936H-690.162V32.2896ZM-675.629 28.7486H-680.417V23.6395H-683.886V37.3729H-680.417V31.9622H-675.629V37.3643H-672.16V23.6395H-675.629V28.7486Z" fill="white"/>
<path d="M-600.029 30.7702C-600.029 30.7702 -598.219 33.2989 -595.019 33.2989C-593.21 33.2989 -591.594 32.401 -591.594 30.6364C-591.594 26.9755 -600.707 27.6411 -600.707 22.2489C-600.707 19.2196 -598.187 17.722 -594.923 17.722C-593.274 17.722 -589.978 18.3876 -589.978 20.7512V22.1823H-592.047V21.3836C-592.047 20.1522 -593.791 19.6862 -594.858 19.6862C-597.12 19.6862 -598.477 20.485 -598.477 22.1157C-598.477 25.8772 -589.364 25.0119 -589.364 30.5698C-589.364 33.3654 -591.82 35.2631 -595.052 35.2631C-599.286 35.2631 -601.289 32.3337 -601.289 32.3337L-600.029 30.7702ZM-585.294 14.1616C-585.294 13.6956 -585.553 13.4294 -586.005 13.4294H-587.362V11.4651H-585.068C-583.678 11.4651 -583.096 11.9643 -583.096 13.3954V24.5127H-581.416C-580.802 24.5127 -580.026 24.313 -579.574 23.7139L-575.405 18.1227H-572.723L-577.409 24.2471C-578.217 25.2788 -578.637 25.4459 -578.637 25.4459V25.5125C-578.637 25.5125 -578.153 25.7455 -577.636 26.7439L-574.694 32.1694C-574.403 32.7345 -574.08 32.9016 -573.208 32.9016H-572.335V34.8651H-573.854C-575.47 34.8651 -575.922 34.5989 -576.665 33.2011L-579.898 27.2098C-580.253 26.5442 -581.029 26.4776 -581.61 26.4776H-583.097V34.8651H-585.295L-585.294 14.1616ZM-568.554 39.8226C-567.133 39.8226 -566.163 38.6245 -565.549 37.0929L-564.58 34.7965L-570.3 20.8511C-570.559 20.252 -570.849 20.0856 -571.431 20.0856H-571.754V18.122H-570.753C-569.298 18.122 -568.846 18.4548 -568.264 19.9525L-564.096 30.4034C-563.773 31.2354 -563.514 32.2006 -563.514 32.2006H-563.449C-563.449 32.2006 -563.223 31.2354 -562.9 30.4034L-558.893 19.9525C-558.344 18.4548 -557.859 18.122 -556.372 18.122H-555.37V20.0856H-555.693C-556.275 20.0856 -556.598 20.252 -556.824 20.8511L-563.837 38.3583C-564.678 40.4883 -566.325 41.8535 -568.491 41.8535C-570.753 41.8535 -572.014 40.222 -572.014 40.222L-570.98 38.558C-570.979 38.5919 -569.945 39.8226 -568.554 39.8226ZM-545.45 17.4897C-540.732 17.4897 -538.146 21.0507 -538.146 25.5444C-538.146 26.0436 -538.243 27.1086 -538.243 27.1086H-549.619C-549.296 30.1046 -547.163 31.6688 -544.675 31.6688C-542.024 31.6688 -540.053 29.7718 -540.053 29.7718L-538.34 32.7012C-538.34 32.7012 -540.861 35.2638 -544.965 35.2638C-550.427 35.2638 -553.82 31.2035 -553.82 26.3771C-553.82 21.1506 -550.394 17.4897 -545.45 17.4897ZM-542.348 24.1799C-542.413 22.1497 -543.769 20.7519 -545.45 20.7519C-547.551 20.7519 -549.037 22.0499 -549.49 24.1799H-542.348ZM-534.173 22.2156C-534.173 21.7164 -534.432 21.4834 -534.884 21.4834H-536.177V17.8891H-532.396C-530.942 17.8891 -530.231 18.588 -530.231 19.7861V20.2853C-530.231 20.6514 -530.295 21.0175 -530.295 21.0175H-530.231C-529.52 19.5864 -527.742 17.4897 -524.413 17.4897C-520.761 17.4897 -518.661 19.4533 -518.661 23.9469V30.5705C-518.661 31.0364 -518.402 31.3034 -517.95 31.3034H-516.657V34.8645H-520.567C-522.119 34.8645 -522.765 34.1988 -522.765 32.6007V24.8122C-522.765 22.7481 -523.282 21.3503 -525.351 21.3503C-527.549 21.3503 -529.197 22.7814 -529.778 24.8122C-530.004 25.5111 -530.101 26.2766 -530.101 27.0753V34.8638H-534.173V22.2156ZM-507.739 17.4897C-503.925 17.4897 -502.665 19.8859 -502.665 19.8859H-502.6V19.4533C-502.6 18.6878 -502.083 17.8891 -500.791 17.8891H-496.978V21.4834H-498.238C-498.658 21.4834 -498.949 21.7164 -498.949 22.149V33.8314C-498.949 39.6555 -503.344 41.8528 -507.642 41.8528C-509.71 41.8528 -511.908 41.2537 -513.492 40.3884L-512.231 37.0596C-512.231 37.0596 -510.196 38.1919 -507.674 38.1919C-505.186 38.1919 -503.02 37.0929 -503.02 34.031V33.2323C-503.02 32.8329 -502.988 32.3337 -502.988 32.3337H-503.053C-504.022 33.7648 -505.445 34.5309 -507.641 34.5309C-512.36 34.5309 -515.042 30.6031 -515.042 25.9431C-515.042 21.283 -512.49 17.4897 -507.739 17.4897ZM-502.924 25.977C-502.924 22.1157 -504.798 21.084 -507.028 21.084C-509.516 21.084 -510.874 22.9478 -510.874 25.8099C-510.874 28.7726 -509.42 30.9692 -506.77 30.9692C-504.798 30.9699 -502.924 29.8043 -502.924 25.977Z" fill="white"/>
<path d="M-101.094 30.1247L-95.3799 36.7054H-99.0948L-103.512 31.6342V36.7054H-106.591V24.4344H-103.512V28.8866L-99.17 24.4344H-95.5306L-101.094 30.1247ZM-193.153 27.7502C-190.91 27.7502 -189.881 26.6647 -189.881 25.028C-189.881 23.3913 -190.91 22.3059 -193.153 22.3059H-197.595V27.7502H-193.153ZM-193.052 19.3802C-189.195 19.3802 -186.652 21.3815 -186.652 25.0196C-186.652 28.6576 -189.195 30.6589 -193.052 30.6589H-197.595V36.6969H-200.816V19.3802H-193.052ZM-179.381 34.1358C-177.574 34.1358 -175.892 32.8214 -175.892 30.5741C-175.892 28.3269 -177.574 27.0124 -179.381 27.0124C-181.188 27.0124 -182.87 28.3269 -182.87 30.5741C-182.87 32.8214 -181.188 34.1358 -179.381 34.1358ZM-179.381 24.0867C-176.06 24.0867 -172.763 26.2662 -172.763 30.5741C-172.763 34.8821 -176.06 37.0615 -179.381 37.0615C-182.703 37.0615 -185.999 34.8821 -185.999 30.5741C-185.999 26.2662 -182.703 24.0867 -179.381 24.0867ZM-164.907 34.1358C-166.764 34.1358 -168.128 32.779 -168.128 30.5741C-168.128 28.3947 -166.714 27.0124 -164.907 27.0124C-163.811 27.0124 -162.857 27.5297 -162.096 28.6915L-159.46 27.1566C-160.339 25.2485 -162.246 24.0867 -164.882 24.0867C-168.32 24.0867 -171.257 26.6647 -171.257 30.5741C-171.257 34.4835 -168.471 37.0615 -164.882 37.0615C-162.296 37.0615 -160.565 35.8743 -159.343 33.7712L-161.886 32.3635C-162.614 33.3896 -163.392 34.1358 -164.907 34.1358ZM-132.151 31.3882C-132.302 33.2709 -132.662 33.6864 -133.298 33.6864C-133.733 33.6864 -133.933 33.6355 -134.235 33.5592L-134.218 36.7393C-134.218 36.7393 -133.833 36.858 -133.13 36.858C-130.52 36.858 -129.541 35.1535 -129.298 31.5154L-129.005 27.2329H-125.542V36.6884H-122.463V24.4344H-131.641L-132.151 31.3882ZM-137.832 28.9374C-138.125 27.4025 -139.271 26.4612 -140.978 26.4612C-142.593 26.4612 -143.814 27.5467 -144.25 28.9374H-137.832ZM-140.878 24.0867C-137.414 24.0867 -134.971 26.6393 -134.971 30.2264V31.3119H-144.3C-144.107 33.1945 -142.785 34.3818 -140.978 34.3818C-139.338 34.3818 -138.661 33.6609 -137.899 32.7027L-135.456 33.9408C-136.678 36.0439 -138.359 37.0615 -141.02 37.0615C-144.392 37.0615 -147.245 34.4666 -147.245 30.5741C-147.253 26.6817 -144.4 24.0867 -140.878 24.0867ZM-111.318 28.9374C-111.611 27.4025 -112.757 26.4612 -114.464 26.4612C-116.079 26.4612 -117.301 27.5467 -117.736 28.9374H-111.318ZM-114.364 24.0867C-110.9 24.0867 -108.457 26.6393 -108.457 30.2264V31.3119H-117.786C-117.593 33.1945 -116.271 34.3818 -114.464 34.3818C-112.824 34.3818 -112.147 33.6609 -111.385 32.7027L-108.942 33.9408C-110.164 36.0439 -111.846 37.0615 -114.506 37.0615C-117.878 37.0615 -120.731 34.4666 -120.731 30.5741C-120.739 26.6817 -117.886 24.0867 -114.364 24.0867ZM-158.389 27.1566H-154.775V36.7054H-151.696V27.1566H-148.081V24.4344H-158.389V27.1566ZM-89.2723 34.1358C-87.4651 34.1358 -85.7834 32.8214 -85.7834 30.5741C-85.7834 28.3269 -87.4651 27.0124 -89.2723 27.0124C-91.0795 27.0124 -92.7612 28.3269 -92.7612 30.5741C-92.7612 32.8214 -91.0795 34.1358 -89.2723 34.1358ZM-89.2723 24.0867C-85.9508 24.0867 -82.6543 26.2662 -82.6543 30.5741C-82.6543 34.8821 -85.9508 37.0615 -89.2723 37.0615C-92.5939 37.0615 -95.8903 34.8821 -95.8903 30.5741C-95.8903 26.2662 -92.5939 24.0867 -89.2723 24.0867ZM-70.4139 24.4259L-73.7522 33.0249L-77.0905 24.4259H-81.1148V36.6799H-78.1949V28.9205L-74.957 36.6799H-72.5725L-69.3346 28.9205V36.6799H-66.4062V24.4259H-70.4139Z" fill="white"/>
<path d="M-210.672 41.997H-227.74C-228.97 41.997 -229.698 40.8776 -229.698 39.9024C-229.698 39.3257 -229.464 38.7999 -229.096 38.4268L-221.649 30.8794L-210.672 41.997Z" fill="white"/>
<path d="M-227.741 41.997C-229.03 41.997 -230.644 40.9539 -230.644 38.8763V15.6149C-230.644 12.4687 -230.803 10.2639 -228.586 8.0166L-220.278 -0.404297L-205.544 14.5549L-229.096 38.4268C-229.473 38.8084 -229.699 39.3257 -229.699 39.9024C-229.699 40.8776 -228.971 41.997 -227.741 41.997Z" fill="white"/>
<path d="M32.1267 36.8822C31.0718 36.8822 30.2921 36.0146 30.2921 35.0556C30.2921 34.0054 31.1636 33.2291 32.1267 33.2291C33.1816 33.2291 33.9612 34.0967 33.9612 35.0556C33.9612 36.0146 33.1816 36.8822 32.1267 36.8822ZM27.7697 36.8822C26.7147 36.8822 25.935 36.0146 25.935 35.0556C25.935 34.0054 26.8065 33.2291 27.7697 33.2291C28.8245 33.2291 29.6041 34.0967 29.6041 35.0556C29.6041 36.0146 28.8245 36.8822 27.7697 36.8822ZM23.4125 36.8822C22.3577 36.8822 21.578 36.0146 21.578 35.0556C21.578 34.0054 22.4494 33.2291 23.4125 33.2291C24.4674 33.2291 25.2471 34.0967 25.2471 35.0556C25.3387 36.0146 24.4215 36.8822 23.4125 36.8822ZM23.7336 14.0961V29.3477C23.7336 30.0327 23.2291 30.5806 22.4952 30.5806H20.6606C20.5689 30.5806 20.4772 30.6719 20.4772 30.7633V43.549C20.9359 43.549 21.3486 43.6403 21.899 43.6403C30.1086 43.6403 36.7589 37.0192 36.7589 28.8454C36.7589 21.2196 31.0718 14.9637 23.7336 14.0961Z" fill="white"/>
<path d="M19.0095 26.1981C17.9547 26.1981 17.1749 25.3305 17.1749 24.3715C17.1749 23.3213 18.0464 22.545 19.0095 22.545C20.0644 22.545 20.8441 23.4126 20.8441 24.3715C20.8441 25.3305 20.0644 26.1981 19.0095 26.1981ZM21.899 14.0059C13.6893 14.0059 7.039 20.6271 7.039 28.8009C7.039 35.9244 12.0382 41.8606 18.7802 43.2762V29.9425C18.7802 29.3489 19.2847 28.8009 19.9268 28.7096H21.7614C21.853 28.7096 21.9448 28.6182 21.9448 28.5269V14.0059H21.899Z" fill="white"/>
<path d="M103.17 30.8089L105.463 25.4206C105.555 25.238 105.647 25.238 105.738 25.238C105.83 25.238 106.014 25.238 106.014 25.4206L108.307 30.8089H103.17ZM108.857 23.7311C108.261 22.4069 107.023 21.7219 105.784 21.7219C104.546 21.7219 103.354 22.4069 102.711 23.7311L96.6573 36.8822H100.602L101.932 33.7314H109.637L110.967 36.8822H114.911L108.857 23.7311Z" fill="white"/>
<path d="M149.172 21.9046C154.767 21.9046 157.06 24.3248 157.06 29.4847C157.06 34.5534 154.767 36.9735 149.08 37.0649H147.842C142.246 37.0649 139.953 34.5534 139.953 29.4847C139.953 24.3248 142.246 21.9046 147.842 21.9046H149.172ZM64.5983 19.3931C62.8555 19.3931 61.7089 20.352 60.9292 22.1786L56.1135 33.3205L51.2977 22.1786C50.518 20.352 49.3715 19.3931 47.6287 19.3931C45.9775 19.3931 44.3264 20.5347 44.3264 23.0462V36.7909H47.9955V23.4572L52.8572 34.5534C53.4534 36.1059 54.6 37.0649 56.1135 37.0649C57.6729 37.0649 58.7277 36.1059 59.3698 34.5534L64.2773 23.5028V36.9279H67.9464V23.1832C67.9006 20.626 66.2495 19.3931 64.5983 19.3931ZM163.252 27.6582H170.774V22.0873H174.443V36.8822H170.774V30.8546H163.252V36.8822H159.491V22.0873H163.252V27.6582ZM99.4091 22.0873V25.238H90.2363C90.0529 25.238 89.8694 25.4207 89.8694 25.6033V36.8365H86.2003V24.2791C86.2003 23.1375 87.0717 22.0873 88.4017 22.0873H99.4091ZM129.679 19.7584C135.091 19.7584 137.385 22.5439 137.476 27.3386C137.476 28.1148 137.385 28.7998 137.293 29.4391C136.697 32.8182 134.679 34.9187 129.496 34.9187H127.937V36.8365H124.267V34.9187H122.57C117.388 34.9187 115.416 32.8182 114.774 29.4391C114.682 28.8454 114.59 28.1148 114.59 27.3386C114.59 22.5439 116.792 19.7584 122.295 19.7584H129.679ZM83.6778 21.9959V25.1467H74.5049C74.3215 25.1467 74.1381 25.3294 74.1381 25.512V27.7952H83.4026V30.8546H74.1381V33.4574C74.1381 33.6401 74.3215 33.8228 74.5049 33.8228V33.6401H83.6778V36.7909H72.6704C71.4321 36.7909 70.4689 35.7406 70.4689 34.599V24.2334C70.4689 23.0919 71.3403 22.0416 72.6704 22.0416L83.6778 21.9959ZM149.08 33.9597C152.245 33.9597 153.345 32.5442 153.345 29.5304C153.345 26.5623 152.199 25.101 149.08 25.101H147.842C144.585 25.101 143.576 26.5623 143.576 29.5304C143.576 32.5898 144.815 33.9597 147.842 33.9597H149.08ZM129.588 31.9506C132.018 31.9506 132.982 30.9916 133.532 29.5304C133.715 28.9368 133.715 28.2062 133.807 27.3386C133.807 24.1878 132.339 22.9092 130.23 22.9092H127.937V31.9506H129.588ZM124.13 31.8592V22.8635H121.837C119.727 22.8635 118.259 24.1878 118.259 27.2929C118.259 28.0692 118.259 28.8454 118.443 29.3934C118.947 30.8546 119.865 31.8136 122.387 31.8136H124.13V31.8592Z" fill="white"/>
<path d="M355.719 34.7911C365.633 29.5521 368.023 22.8949 364.966 21.0435C360.46 18.5224 348.117 23.0524 349.488 35.4608C348.861 35.8153 347.646 36.485 347.646 36.485L348.469 39.006C348.469 39.006 350.193 37.9819 350.664 37.6273C352.114 38.8091 352.858 39.4393 355.131 39.5181C359.911 39.6363 364.026 34.279 364.026 34.279L362.811 32.3882C362.811 32.4276 357.56 37.5092 355.719 34.7911ZM357.051 27.1886C358.462 24.6675 360.774 22.6979 361.91 23.4857C363.046 24.2736 360.774 28.2521 355.405 32.5064C355.17 32.1519 355.601 29.749 357.051 27.1886ZM265.865 39.5181C265.121 39.5181 264.063 39.2424 263.24 38.4152C260.849 35.9335 263.122 27.4643 263.592 25.6523C263.632 25.4947 263.514 25.3372 263.318 25.3372C263.201 25.3372 263.122 25.3765 263.083 25.4947C262.064 27.5037 256.617 39.5181 251.797 39.5181C251.719 39.5181 251.602 39.5181 251.523 39.5181C246.86 39.0848 247.487 32.6246 248.937 28.6854H256.461C255.834 30.3793 255.638 31.4429 255.677 31.9943C255.677 32.3882 256.03 32.5852 256.343 32.4276C257.127 32.0337 258.42 30.3399 259.517 28.3703C261.516 24.8645 264.141 19.5072 268.647 5.99588H276.876C274.447 13.5197 272.448 20.3344 271.391 28.0946C271.351 28.4885 271.782 28.8036 272.135 28.4885C274.486 26.2826 283.068 7.61093 283.616 5.99588H291.885C291.885 5.99588 283.695 28.8036 284.4 32.5852C284.479 33.0973 285.027 33.2549 285.458 32.7428C285.968 32.1519 286.751 31.1277 287.182 30.6156L288.476 31.9156C286.124 34.8305 282.323 40.109 278.483 39.4787C277.895 39.4 277.307 39.0454 276.876 38.6121C272.919 35.1457 278.444 23.5645 279.424 20.8465C279.62 20.2556 279.855 19.7042 279.972 19.3496C280.051 19.1921 279.894 18.9951 279.737 18.9951C279.62 18.9951 279.541 19.0345 279.502 19.1527C279.306 19.5466 278.797 20.6496 278.64 21.0435C276.132 26.0856 270.489 39.5181 265.865 39.5181ZM343.062 11.7077C339.378 11.7471 337.536 13.6772 337.536 13.6772L337.615 15.9226C337.615 15.9226 339.966 13.5985 342.591 14.5832C344.394 15.2529 346.196 17.577 344.943 22.6585C343.845 19.8223 339.574 19.1921 336.126 22.8949C333.383 25.8492 329.66 35.7365 335.146 38.8091C341.964 42.5907 347.921 31.5216 349.292 23.9584C350.233 19.1921 350.742 11.6289 343.062 11.7077ZM340.24 34.6336C339.496 35.1457 338.203 35.4214 337.967 33.0973C337.615 29.749 339.887 25.7311 340.632 24.8251C341.847 23.2494 343.532 23.0918 343.571 25.5341C343.571 28.2915 342.043 33.3336 340.24 34.6336ZM319.707 9.85625C315.749 8.47755 301.72 12.9288 297.096 28.5279C296.548 28.6854 293.844 29.3945 293.844 29.3945L292.668 32.5852L296.861 31.2853C296.861 31.2853 296.391 39.2818 303.405 39.5181C308.931 39.3212 311.87 31.2065 310.145 26.0068C309.793 26.1644 305.286 28.0946 305.286 28.0946C305.286 28.0946 306.188 33.373 304.228 34.5548C303.915 34.7517 303.523 34.7124 303.288 34.3578C302.7 33.57 302.347 31.4822 302.974 28.7642C313.084 23.4857 319.942 14.2287 320.373 10.9986C320.49 10.2108 319.824 9.89565 319.707 9.85625ZM307.167 23.6433C305.286 25.1008 303.836 25.8099 303.836 25.8099C303.836 25.8099 304.346 24.5887 304.777 23.8797C305.874 22.0677 311.086 15.0166 315.435 13.7166C315.592 13.6772 315.749 13.7954 315.71 13.953C315.671 15.4893 310.145 21.3586 307.167 23.6433ZM328.249 35.4214C328.915 34.9881 329.817 34.279 329.817 34.279L330.365 36.0123C330.052 36.3668 327.348 38.5333 325.663 39.3212C323.86 40.1878 322.175 39.0454 321.94 37.6667C321.666 36.0911 322.489 34.0427 322.489 34.0427C322.489 34.0427 319.589 37.3516 316.65 38.9666C315.827 39.4 315.2 39.5969 314.73 39.5969C312.771 39.5575 312.144 37.6273 312.34 36.6031C312.614 35.382 315.279 27.0704 315.631 25.7311C315.671 25.6129 315.514 25.4553 315.357 25.4947C314.534 25.7311 312.418 27.1098 312.418 27.1098V24.8251C312.418 24.8251 318.257 20.8465 319.824 20.3738C321.235 19.9799 322.489 20.7677 322.097 22.4222C321.94 23.5645 318.453 33.1367 318.218 34.279C318.178 34.5154 318.414 34.5154 318.492 34.5154C319.628 34.1609 321.705 32.3882 323.312 29.8278C324.801 27.4643 325.82 24.4311 327.074 20.6889H332.403C332.403 20.6889 328.367 33.1367 327.897 35.1851C327.897 35.382 328.132 35.5002 328.249 35.4214ZM370.923 39.5575C368.062 39.5575 366.73 37.1546 366.416 36.3668C363.164 28.2127 372.725 20.6496 372.725 20.6496H378.25C378.25 20.6496 369.826 27.4249 371.001 33.4124C371.785 36.3274 374.293 35.579 375.938 33.2549C377.937 30.4581 379.74 24.9432 378.368 24.8251C377.114 24.6675 375.429 27.4249 375.429 27.4249L374.254 25.6129C375.155 24.4311 377.741 21.3192 380.641 20.3738C381.072 20.2556 383.697 19.5466 383.697 23.407C383.697 27.6219 379.113 39.5969 370.923 39.5575ZM293.178 37.3122C293.178 38.5333 292.198 39.5181 290.983 39.5181C289.769 39.5181 288.789 38.5333 288.789 37.3122C288.789 36.0911 289.769 35.1063 290.983 35.1063C292.159 35.1063 293.178 36.0911 293.178 37.3122Z" fill="white"/>
<path d="M-422.454 14.0658H-398.307V38.4399H-422.454V14.0658Z" fill="white"/>
<path d="M-369.06 28.8735L-369.683 32.756H-365.929L-365.306 28.8735H-362.544L-364.237 39.3174H-366.975L-366.26 34.837H-370.014L-370.729 39.3174H-373.499L-371.775 28.8735H-369.029H-369.06ZM-358.121 28.8735H-361.006L-362.736 39.3174H-359.906L-359.136 34.806L-356.213 39.3484H-352.544L-356.39 33.8431L-351.236 28.9046H-354.698L-358.844 33.2064L-358.121 28.8735ZM-377.737 35.4039L-378.337 32.0649L-380.068 35.4039H-377.737ZM-377.322 37.4771H-381.23L-382.268 39.2863H-385.284L-379.383 28.8425H-376.306L-373.922 39.2863H-376.929L-377.322 37.4771ZM-384.745 36.1493C-384.826 36.851 -385.116 37.5114 -385.576 38.0439C-386.676 39.1854 -388.345 39.2475 -389.422 39.2786H-393.569L-391.776 28.8735H-384.714L-385.045 30.9157H-389.33L-389.661 32.989H-388.438C-387.395 32.9155 -386.36 33.2151 -385.514 33.8353C-385.197 34.1226 -384.959 34.4886 -384.824 34.8971C-384.689 35.3056 -384.662 35.7426 -384.745 36.1648V36.1493ZM-389.215 34.938H-389.984L-390.368 37.1665H-389.653C-388.045 37.1665 -387.714 36.7161 -387.622 36.1105C-387.53 35.5048 -387.622 34.938 -389.23 34.938H-389.215ZM-317.688 19.1984H-314.827C-314.892 18.876 -315.069 18.5874 -315.325 18.3841C-315.581 18.1807 -315.901 18.0758 -316.227 18.088C-316.564 18.0532 -316.902 18.1483 -317.173 18.3541C-317.444 18.56 -317.628 18.8615 -317.688 19.1984ZM-312.542 20.3864V20.6582H-317.727C-317.751 20.8682 -317.729 21.0811 -317.66 21.2808C-317.591 21.4806 -317.479 21.6622 -317.331 21.8116C-317.183 21.9611 -317.003 22.0748 -316.805 22.144C-316.608 22.2132 -316.396 22.2362 -316.188 22.2112C-315.951 22.2316 -315.714 22.1795 -315.507 22.0617C-315.3 21.944 -315.132 21.7661 -315.027 21.5512H-312.642C-313.027 23.2362 -314.581 23.9894 -316.158 23.9894C-318.465 23.9894 -320.181 22.6693 -320.181 20.2001C-320.21 19.6868 -320.13 19.173 -319.945 18.6936C-319.762 18.2142 -319.477 17.7803 -319.113 17.4212C-318.748 17.062 -318.311 16.7859 -317.832 16.6117C-317.353 16.4374 -316.842 16.3689 -316.334 16.4108C-313.919 16.4108 -312.55 17.9638 -312.55 20.3864H-312.542ZM-380.93 18.4918C-381.141 18.481 -381.353 18.5146 -381.551 18.5902C-381.749 18.6659 -381.93 18.7821 -382.082 18.9315C-382.233 19.081 -382.353 19.2605 -382.433 19.4588C-382.512 19.657 -382.551 19.8697 -382.545 20.0836C-382.55 20.2941 -382.513 20.5035 -382.436 20.6991C-382.358 20.8946 -382.242 21.0722 -382.095 21.2211C-381.947 21.37 -381.771 21.4871 -381.578 21.5651C-381.384 21.6432 -381.177 21.6808 -380.968 21.6754C-380.757 21.6891 -380.546 21.6573 -380.349 21.5822C-380.151 21.507 -379.972 21.3902 -379.823 21.2396C-379.674 21.0889 -379.558 20.9079 -379.483 20.7086C-379.409 20.5093 -379.378 20.2962 -379.391 20.0836C-379.386 19.8731 -379.423 19.6638 -379.5 19.4682C-379.578 19.2726 -379.694 19.0951 -379.841 18.9461C-379.989 18.7973 -380.165 18.6802 -380.358 18.6021C-380.552 18.524 -380.759 18.4864 -380.968 18.4918H-380.93ZM-377.006 16.535V23.64H-379.468V22.8635C-379.701 23.1987 -380.014 23.4687 -380.379 23.648C-380.744 23.8273 -381.148 23.91 -381.553 23.8884C-382.03 23.8766 -382.5 23.7685 -382.935 23.5705C-383.37 23.3724 -383.762 23.0884 -384.087 22.7353C-384.411 22.3822 -384.663 21.967 -384.826 21.5143C-384.989 21.0615 -385.061 20.5803 -385.037 20.0991C-385.063 19.6196 -384.994 19.1396 -384.833 18.6876C-384.673 18.2354 -384.424 17.8203 -384.103 17.4665C-383.781 17.1127 -383.392 16.8275 -382.96 16.6275C-382.527 16.4276 -382.059 16.3169 -381.583 16.3021C-381.186 16.2927 -380.791 16.3704 -380.425 16.5299C-380.06 16.6895 -379.734 16.9269 -379.468 17.2261V16.535H-377.006ZM-340.966 18.4918C-341.175 18.4864 -341.382 18.524 -341.576 18.6021C-341.769 18.6802 -341.946 18.7973 -342.093 18.9461C-342.241 19.0951 -342.356 19.2726 -342.434 19.4682C-342.512 19.6638 -342.549 19.8731 -342.543 20.0836C-342.549 20.2941 -342.512 20.5035 -342.434 20.6991C-342.356 20.8946 -342.241 21.0722 -342.093 21.2211C-341.946 21.37 -341.769 21.4871 -341.576 21.5651C-341.382 21.6432 -341.175 21.6808 -340.966 21.6754C-340.755 21.6891 -340.545 21.6573 -340.347 21.5822C-340.149 21.507 -339.97 21.3902 -339.821 21.2396C-339.672 21.0889 -339.556 20.9079 -339.482 20.7086C-339.407 20.5093 -339.375 20.2962 -339.389 20.0836C-339.384 19.8731 -339.421 19.6638 -339.499 19.4682C-339.576 19.2726 -339.692 19.0951 -339.839 18.9461C-339.987 18.7973 -340.163 18.6802 -340.356 18.6021C-340.55 18.524 -340.758 18.4864 -340.966 18.4918ZM-337.028 16.535V23.64H-339.466V22.8635C-339.699 23.1987 -340.012 23.4687 -340.377 23.648C-340.742 23.8273 -341.146 23.91 -341.551 23.8884C-342.028 23.8766 -342.498 23.7685 -342.933 23.5705C-343.369 23.3724 -343.76 23.0884 -344.085 22.7353C-344.41 22.3822 -344.661 21.967 -344.824 21.5143C-344.987 21.0615 -345.06 20.5803 -345.036 20.0991C-345.06 19.6196 -344.99 19.1399 -344.829 18.6881C-344.667 18.2364 -344.418 17.8218 -344.095 17.4688C-343.773 17.1158 -343.383 16.8314 -342.95 16.6324C-342.518 16.4333 -342.049 16.3237 -341.574 16.3099C-341.17 16.2969 -340.769 16.3736 -340.398 16.5346C-340.027 16.6956 -339.696 16.937 -339.428 17.2416V16.535H-337.028ZM-393.184 23.64V13.1961H-389.007C-386.207 13.1961 -385.399 15.215 -385.399 16.6282C-385.379 17.1037 -385.461 17.5779 -385.638 18.0191C-385.815 18.4602 -386.083 18.8581 -386.424 19.1861C-386.766 19.514 -387.173 19.7644 -387.619 19.9206C-388.064 20.0767 -388.537 20.1349 -389.007 20.0914H-390.545V23.64H-393.184ZM-390.53 15.4557V17.8551H-389.638C-388.415 17.8551 -388.299 17.0786 -388.299 16.6826C-388.299 16.2866 -388.476 15.5101 -389.638 15.5101H-390.407L-390.499 15.4557H-390.53ZM-375.445 16.5428V23.6477H-373.06L-370.614 19.7653V23.6477H-368.137V16.535H-370.521L-372.968 20.3554V16.535L-375.445 16.5428ZM-371.598 15.6421C-371.018 15.6892 -370.438 15.554 -369.936 15.2552C-369.435 14.9563 -369.038 14.5083 -368.798 13.9726L-370.406 13.3669C-370.466 13.6276 -370.615 13.8582 -370.828 14.0175C-371.041 14.1769 -371.303 14.2546 -371.568 14.2366C-371.833 14.2578 -372.096 14.1814 -372.31 14.0215C-372.523 13.8617 -372.672 13.6291 -372.729 13.3669L-374.337 13.9726C-374.095 14.4981 -373.7 14.9373 -373.206 15.2325C-372.712 15.5277 -372.141 15.6651 -371.568 15.6265L-371.598 15.6421ZM-363.044 26.7304V23.7564C-364.506 23.7564 -366.952 23.1508 -366.952 20.0836C-366.952 17.0165 -364.537 16.4419 -363.044 16.4419V13.3359H-360.567V16.4419C-359.075 16.4419 -356.721 17.0475 -356.721 20.0836C-356.721 23.1197 -359.136 23.7564 -360.567 23.7564V26.7692L-363.044 26.7304ZM-360.736 18.189V22.1336C-359.898 22.1336 -359.067 21.5279 -359.067 20.1457C-359.067 18.7636 -359.906 18.1579 -360.736 18.189ZM-362.883 18.189C-363.721 18.189 -364.552 18.7946 -364.552 20.1768C-364.552 21.559 -363.713 22.1336 -362.883 22.1025V18.189ZM-351.944 23.7564C-353.405 23.7564 -355.852 23.1508 -355.852 20.0836C-355.852 17.0165 -353.436 16.4419 -351.944 16.4419V13.3359H-349.467V16.4419C-347.974 16.4419 -345.559 17.0475 -345.559 20.0836C-345.559 23.1197 -347.974 23.7564 -349.467 23.7564V26.7692H-351.944V23.7564ZM-349.636 18.22V22.1646C-348.797 22.1646 -347.967 21.559 -347.967 20.1768C-347.967 18.7946 -348.805 18.189 -349.636 18.22ZM-351.813 22.1025V18.22C-352.651 18.22 -353.513 18.8257 -353.513 20.2079C-353.536 20.4506 -353.508 20.6953 -353.43 20.9263C-353.353 21.1572 -353.228 21.369 -353.064 21.5479C-352.9 21.7267 -352.7 21.8685 -352.478 21.9641C-352.255 22.0597 -352.016 22.1068 -351.774 22.1025H-351.813ZM-335.412 16.535V23.64H-333.027L-330.581 19.7575V23.64H-328.104V16.535H-330.489L-332.966 20.3243V16.535H-335.412ZM-331.566 15.6343C-330.995 15.6706 -330.427 15.5312 -329.937 15.2344C-329.447 14.9377 -329.057 14.4977 -328.82 13.9726L-330.427 13.3669C-330.487 13.6276 -330.637 13.8582 -330.85 14.0175C-331.063 14.1769 -331.324 14.2546 -331.589 14.2366C-331.854 14.2612 -332.12 14.1861 -332.334 14.0257C-332.548 13.8653 -332.697 13.6307 -332.751 13.3669L-334.366 13.9726C-334.124 14.4981 -333.729 14.9373 -333.235 15.2325C-332.741 15.5277 -332.17 15.6651 -331.597 15.6265L-331.566 15.6343ZM-326.258 18.5772C-325.723 18.2034 -325.093 17.9931 -324.443 17.9716C-324.142 17.9716 -323.458 18.0337 -323.458 18.6005C-323.458 19.1674 -324.058 19.2062 -324.289 19.2062H-325.512V20.7592H-324.435C-324.073 20.7592 -323.419 20.7592 -323.419 21.3648C-323.419 21.6055 -323.566 22.0559 -324.435 22.0559C-325.189 22.0541 -325.926 21.8243 -326.55 21.3959L-327.158 23.0964C-326.196 23.6536 -325.105 23.943 -323.996 23.935C-321.165 23.935 -320.804 22.2811 -320.804 21.7376C-320.801 21.323 -320.942 20.9206 -321.204 20.6011C-321.466 20.2815 -321.831 20.0653 -322.235 19.9904C-321.922 19.8483 -321.658 19.6149 -321.476 19.3202C-321.295 19.0255 -321.206 18.683 -321.219 18.3365C-321.219 16.6826 -322.95 16.3487 -324.019 16.3487C-325.022 16.3674 -326.008 16.6031 -326.912 17.0398L-326.258 18.5772ZM-311.296 23.6322H-308.819V20.8058H-306.549V23.6322H-304.08V16.535H-306.557V19.0353H-308.826V16.535H-311.303L-311.296 23.6322Z" fill="white"/>
<path d="M-397.469 39.2863H-423.316V13.1961H-397.469V39.2863ZM-398.307 14.0658H-422.454V38.4399H-398.307V14.0658Z" fill="white"/>
<path d="M-410.377 29.2308L-417.8 36.7239L-420.754 33.7422L-413.316 26.2568L-414.854 24.7038V21.5978L-415.931 20.5107V23.1896L-416.854 24.1214L-420.639 20.3632L-421.562 21.295C-421.557 20.4602 -421.389 19.6346 -421.066 18.8657C-420.744 18.0968 -420.275 17.3998 -419.685 16.8146C-419.116 16.1707 -418.319 15.7782 -417.466 15.7215C-416.612 15.6649 -415.771 15.9487 -415.123 16.5118L-411.369 20.3321L-412.323 21.295L-410.377 23.2906L-408.408 21.3028L-409.362 20.3399L-405.623 16.504C-404.976 15.939 -404.134 15.6539 -403.28 15.7106C-402.427 15.7673 -401.629 16.1611 -401.061 16.8069C-400.471 17.392 -400.002 18.0891 -399.68 18.858C-399.358 19.6268 -399.189 20.4524 -399.184 21.2872L-400.107 20.3554L-403.892 24.1447L-404.815 23.2129V20.5107L-405.884 21.5978V24.7038L-407.423 26.2568L-400 33.75L-402.954 36.7239L-410.377 29.2308Z" fill="white"/>
</svg>
