<svg width="163" height="51" viewBox="0 0 163 51" fill="none" xmlns="http://www.w3.org/2000/svg">
<path d="M-408.414 45.4707H-379.374V51.5973H-408.414V45.4707ZM-399.776 31.0111H-388.321L-386.388 37.1713H-380.037L-388.609 11.2761C-389.437 8.78957 -390.398 6.79591 -393.679 6.79591C-396.959 6.79591 -397.965 8.75597 -398.826 11.2761L-407.795 37.1601H-401.842L-399.776 31.0111ZM-393.966 13.5161H-393.822L-389.967 25.8365H-398.031L-393.966 13.5161Z" fill="white"/>
<path d="M-222.773 30.1702L-216.936 23.6395H-221.286L-226.07 29.0674V23.6395H-229.537V37.3643H-226.053V31.5832L-220.938 37.3643H-216.468L-222.773 30.1702ZM-336.114 31.0748C-336.207 33.6595 -336.53 34.1506 -337.941 34.1506V37.3729H-337.414C-333.871 37.3729 -333.029 35.5205 -332.902 31.3936L-332.749 26.8273H-329.478V37.3643H-326.011V23.6395H-335.876L-336.114 31.0748ZM-351.162 33.4355H-343.854L-342.639 37.3643H-338.586L-344.05 20.8567C-344.577 19.2628 -345.188 17.9963 -347.279 17.9963C-349.369 17.9963 -350.006 19.2628 -350.567 20.8567L-356.294 37.3643H-352.487L-351.162 33.4355ZM-347.457 22.3041H-347.364L-344.917 30.1271H-350.066L-347.457 22.3041ZM-266.473 25.5867H-270.339V21.7096H-261.366V18.2634H-273.976V37.3643H-266.473C-262.318 37.3643 -259.93 35.262 -259.93 31.4195C-259.93 27.775 -262.352 25.5867 -266.473 25.5867ZM-266.651 33.9094H-270.339V28.9468H-266.651C-264.731 28.9468 -263.652 29.8083 -263.652 31.4281C-263.652 33.0478 -264.731 33.9094 -266.651 33.9094ZM-300.936 23.3207V18.2375H-304.395V23.3207C-306.211 23.3815 -307.928 24.1705 -309.171 25.5145C-310.414 26.8585 -311.08 28.6476 -311.022 30.489C-311.084 32.3341 -310.421 34.1286 -309.178 35.4777C-307.935 36.8269 -306.214 37.6201 -304.395 37.683V42.8524H-300.928V37.683C-300.027 37.653 -299.14 37.443 -298.319 37.0649C-297.497 36.687 -296.758 36.1484 -296.142 35.4802C-295.527 34.8119 -295.047 34.0271 -294.731 33.1706C-294.415 32.3141 -294.269 31.4028 -294.3 30.489C-294.264 29.5745 -294.408 28.6618 -294.723 27.8043C-295.038 26.9467 -295.519 26.1614 -296.136 25.4941C-296.754 24.8269 -297.497 24.291 -298.321 23.9179C-299.145 23.5448 -300.034 23.3418 -300.936 23.3207ZM-304.386 34.366C-305.304 34.2638 -306.145 33.8 -306.728 33.0748C-307.311 32.3495 -307.59 31.4208 -307.505 30.489C-307.579 29.5594 -307.296 28.6366 -306.715 27.9139C-306.134 27.1912 -305.299 26.7246 -304.386 26.6119V34.366ZM-300.919 34.366V26.6119C-300.006 26.7246 -299.172 27.1912 -298.59 27.9139C-298.009 28.6366 -297.726 29.5594 -297.801 30.489C-297.72 31.4199 -298 32.3462 -298.583 33.0705C-299.165 33.7947 -300.004 34.2596 -300.919 34.366ZM-281.308 33.1512V28.5246C-281.308 25.1473 -283.424 23.0364 -286.976 23.0364C-290.528 23.0364 -292.601 25.2765 -292.771 27.6113H-289.262C-289.143 27.1116 -288.616 26.2242 -286.984 26.2242C-286.679 26.1844 -286.37 26.217 -286.08 26.3195C-285.79 26.422 -285.527 26.5915 -285.313 26.8147C-285.099 27.0379 -284.938 27.3086 -284.845 27.6053C-284.751 27.9021 -284.728 28.2168 -284.775 28.5246H-288.174C-291.25 28.5246 -293.077 30.1702 -293.077 32.8927C-293.101 33.5424 -292.99 34.19 -292.751 34.7935C-292.513 35.397 -292.152 35.943 -291.692 36.3962C-291.233 36.8494 -290.684 37.1996 -290.083 37.4243C-289.481 37.6489 -288.839 37.7429 -288.199 37.7003C-287.477 37.7388 -286.757 37.5962 -286.102 37.2852C-285.446 36.9741 -284.877 36.5042 -284.444 35.9168C-284.162 36.4006 -283.75 36.7933 -283.257 37.0494C-282.764 37.3057 -282.209 37.4148 -281.657 37.3643H-280.459V34.1937C-281.045 34.1937 -281.308 33.9094 -281.308 33.1512ZM-284.775 32.2896C-284.761 32.629 -284.818 32.9676 -284.943 33.283C-285.067 33.5984 -285.255 33.8836 -285.496 34.1197C-285.737 34.3558 -286.024 34.5374 -286.34 34.6527C-286.655 34.7678 -286.99 34.814 -287.324 34.7882C-288.573 34.7882 -289.559 34.3315 -289.559 32.9617C-289.559 31.5918 -288.463 31.3936 -287.537 31.3936H-284.775V32.2896ZM-317.378 27.8095H-319.868V23.6395H-323.334V37.3643H-317.319C-313.554 37.3643 -312.22 34.8829 -312.22 32.5395C-312.203 29.5154 -314.073 27.8095 -317.378 27.8095ZM-317.633 34.366H-319.868V30.9197H-317.633C-316.435 30.9197 -315.713 31.4711 -315.713 32.6429C-315.713 33.8146 -316.401 34.366 -317.633 34.366ZM-246.7 33.1512V28.5246C-246.7 25.1473 -248.816 23.0364 -252.368 23.0364C-255.92 23.0364 -257.993 25.2765 -258.163 27.6113H-254.654C-254.535 27.1116 -254.008 26.2242 -252.376 26.2242C-252.071 26.1844 -251.762 26.217 -251.472 26.3195C-251.182 26.422 -250.919 26.5915 -250.705 26.8147C-250.491 27.0379 -250.33 27.3086 -250.237 27.6053C-250.143 27.9021 -250.12 28.2168 -250.167 28.5246H-253.566C-256.642 28.5246 -258.469 30.1702 -258.469 32.8927C-258.492 33.5424 -258.382 34.19 -258.143 34.7935C-257.905 35.397 -257.544 35.943 -257.085 36.3962C-256.625 36.8494 -256.076 37.1996 -255.474 37.4243C-254.873 37.6489 -254.231 37.7429 -253.591 37.7003C-252.862 37.746 -252.133 37.607 -251.47 37.2957C-250.807 36.9843 -250.231 36.5104 -249.793 35.9168C-249.515 36.3922 -249.112 36.7794 -248.628 37.0351C-248.145 37.2908 -247.601 37.4048 -247.057 37.3643H-245.859V34.1937C-246.463 34.1937 -246.7 33.9094 -246.7 33.1512ZM-250.15 32.2896C-250.137 32.6287 -250.195 32.9666 -250.32 33.2814C-250.445 33.5962 -250.634 33.8808 -250.874 34.1166C-251.115 34.3523 -251.402 34.534 -251.716 34.6498C-252.031 34.7655 -252.365 34.8126 -252.699 34.7882C-253.948 34.7882 -254.934 34.3315 -254.934 32.9617C-254.934 31.5918 -253.838 31.3936 -252.912 31.3936H-250.15V32.2896ZM-235.629 28.7486H-240.413V23.6395H-243.879V37.3729H-240.413V31.9622H-235.629V37.3643H-232.162V23.6395H-235.629V28.7486Z" fill="white"/>
<path d="M-160.09 30.7702C-160.09 30.7702 -158.282 33.2989 -155.085 33.2989C-153.276 33.2989 -151.662 32.401 -151.662 30.6364C-151.662 26.9755 -160.768 27.6411 -160.768 22.2489C-160.768 19.2196 -158.249 17.722 -154.988 17.722C-153.341 17.722 -150.048 18.3876 -150.048 20.7512V22.1823H-152.114V21.3836C-152.114 20.1522 -153.858 19.6862 -154.923 19.6862C-157.183 19.6862 -158.539 20.485 -158.539 22.1157C-158.539 25.8772 -149.433 25.0119 -149.433 30.5698C-149.433 33.3654 -151.887 35.2631 -155.117 35.2631C-159.347 35.2631 -161.349 32.3337 -161.349 32.3337L-160.09 30.7702ZM-145.367 14.1616C-145.367 13.6956 -145.625 13.4294 -146.077 13.4294H-147.434V11.4651H-145.141C-143.753 11.4651 -143.171 11.9643 -143.171 13.3954V24.5127H-141.492C-140.878 24.5127 -140.103 24.313 -139.651 23.7139L-135.486 18.1227H-132.806L-137.489 24.2471C-138.296 25.2788 -138.716 25.4459 -138.716 25.4459V25.5125C-138.716 25.5125 -138.231 25.7455 -137.715 26.7439L-134.776 32.1694C-134.485 32.7345 -134.162 32.9016 -133.291 32.9016H-132.419V34.8651H-133.936C-135.551 34.8651 -136.003 34.5989 -136.745 33.2011L-139.975 27.2098C-140.33 26.5442 -141.105 26.4776 -141.686 26.4776H-143.172V34.8651H-145.368L-145.367 14.1616ZM-128.641 39.8226C-127.22 39.8226 -126.252 38.6245 -125.638 37.0929L-124.67 34.7965L-130.385 20.8511C-130.644 20.252 -130.934 20.0856 -131.515 20.0856H-131.838V18.122H-130.837C-129.384 18.122 -128.932 18.4548 -128.351 19.9525L-124.186 30.4034C-123.863 31.2354 -123.605 32.2006 -123.605 32.2006H-123.54C-123.54 32.2006 -123.314 31.2354 -122.991 30.4034L-118.988 19.9525C-118.439 18.4548 -117.954 18.122 -116.468 18.122H-115.467V20.0856H-115.79C-116.371 20.0856 -116.694 20.252 -116.92 20.8511L-123.928 38.3583C-124.768 40.4883 -126.414 41.8535 -128.578 41.8535C-130.838 41.8535 -132.098 40.222 -132.098 40.222L-131.065 38.558C-131.063 38.5919 -130.03 39.8226 -128.641 39.8226ZM-105.555 17.4897C-100.841 17.4897 -98.257 21.0507 -98.257 25.5444C-98.257 26.0436 -98.3546 27.1086 -98.3546 27.1086H-109.721C-109.398 30.1046 -107.267 31.6688 -104.781 31.6688C-102.132 31.6688 -100.163 29.7718 -100.163 29.7718L-98.4514 32.7012C-98.4514 32.7012 -100.97 35.2638 -105.071 35.2638C-110.529 35.2638 -113.919 31.2035 -113.919 26.3771C-113.919 21.1506 -110.496 17.4897 -105.555 17.4897ZM-102.456 24.1799C-102.52 22.1497 -103.876 20.7519 -105.555 20.7519C-107.654 20.7519 -109.14 22.0499 -109.592 24.1799H-102.456ZM-94.2876 22.2156C-94.2876 21.7164 -94.5459 21.4834 -94.9979 21.4834H-96.2901V17.8891H-92.5117C-91.0587 17.8891 -90.3484 18.588 -90.3484 19.7861V20.2853C-90.3484 20.6514 -90.413 21.0175 -90.413 21.0175H-90.3484C-89.6381 19.5864 -87.8622 17.4897 -84.5358 17.4897C-80.8866 17.4897 -78.7878 19.4533 -78.7878 23.9469V30.5705C-78.7878 31.0364 -78.5295 31.3034 -78.0775 31.3034H-76.7853V34.8645H-80.6928C-82.2433 34.8645 -82.8891 34.1988 -82.8891 32.6007V24.8122C-82.8891 22.7481 -83.4057 21.3503 -85.4722 21.3503C-87.6685 21.3503 -89.3152 22.7814 -89.8964 24.8122C-90.1224 25.5111 -90.2186 26.2766 -90.2186 27.0753V34.8638H-94.2876V22.2156ZM-67.875 17.4897C-64.0643 17.4897 -62.8051 19.8859 -62.8051 19.8859H-62.7405V19.4533C-62.7405 18.6878 -62.2232 17.8891 -60.9323 17.8891H-57.1223V21.4834H-58.3816C-58.8013 21.4834 -59.0919 21.7164 -59.0919 22.149V33.8314C-59.0919 39.6555 -63.4831 41.8528 -67.7782 41.8528C-69.8446 41.8528 -72.0409 41.2537 -73.623 40.3884L-72.3631 37.0596C-72.3631 37.0596 -70.3296 38.1919 -67.8098 38.1919C-65.3236 38.1919 -63.1602 37.0929 -63.1602 34.031V33.2323C-63.1602 32.8329 -63.128 32.3337 -63.128 32.3337H-63.1925C-64.1612 33.7648 -65.5826 34.5309 -67.7775 34.5309C-72.4922 34.5309 -75.1722 30.6031 -75.1722 25.9431C-75.1722 21.283 -72.6221 17.4897 -67.875 17.4897ZM-63.0634 25.977C-63.0634 22.1157 -64.9361 21.084 -67.1647 21.084C-69.6509 21.084 -71.0077 22.9478 -71.0077 25.8099C-71.0077 28.7726 -69.5547 30.9692 -66.9064 30.9692C-64.9361 30.9699 -63.0634 29.8043 -63.0634 25.977Z" fill="white"/>
<path d="M338.44 30.1247L344.149 36.7054H340.438L336.024 31.6342V36.7054H332.947V24.4344H336.024V28.8866L340.362 24.4344H343.999L338.44 30.1247ZM246.456 27.7502C248.697 27.7502 249.725 26.6647 249.725 25.028C249.725 23.3913 248.697 22.3059 246.456 22.3059H242.017V27.7502H246.456ZM246.557 19.3802C250.41 19.3802 252.952 21.3815 252.952 25.0196C252.952 28.6576 250.41 30.6589 246.557 30.6589H242.017V36.6969H238.799V19.3802H246.557ZM260.216 34.1358C262.022 34.1358 263.703 32.8214 263.703 30.5741C263.703 28.3269 262.022 27.0124 260.216 27.0124C258.411 27.0124 256.73 28.3269 256.73 30.5741C256.73 32.8214 258.411 34.1358 260.216 34.1358ZM260.216 24.0867C263.535 24.0867 266.829 26.2662 266.829 30.5741C266.829 34.8821 263.535 37.0615 260.216 37.0615C256.898 37.0615 253.604 34.8821 253.604 30.5741C253.604 26.2662 256.898 24.0867 260.216 24.0867ZM274.679 34.1358C272.823 34.1358 271.461 32.779 271.461 30.5741C271.461 28.3947 272.873 27.0124 274.679 27.0124C275.774 27.0124 276.727 27.5297 277.488 28.6915L280.121 27.1566C279.244 25.2485 277.337 24.0867 274.704 24.0867C271.268 24.0867 268.334 26.6647 268.334 30.5741C268.334 34.4835 271.118 37.0615 274.704 37.0615C277.287 37.0615 279.018 35.8743 280.238 33.7712L277.697 32.3635C276.97 33.3896 276.192 34.1358 274.679 34.1358ZM307.408 31.3882C307.257 33.2709 306.898 33.6864 306.263 33.6864C305.828 33.6864 305.627 33.6355 305.326 33.5592L305.343 36.7393C305.343 36.7393 305.728 36.858 306.43 36.858C309.038 36.858 310.016 35.1535 310.259 31.5154L310.551 27.2329H314.012V36.6884H317.089V24.4344H307.918L307.408 31.3882ZM301.732 28.9374C301.439 27.4025 300.294 26.4612 298.588 26.4612C296.975 26.4612 295.754 27.5467 295.32 28.9374H301.732ZM298.689 24.0867C302.15 24.0867 304.591 26.6393 304.591 30.2264V31.3119H295.269C295.462 33.1945 296.782 34.3818 298.588 34.3818C300.227 34.3818 300.904 33.6609 301.665 32.7027L304.106 33.9408C302.885 36.0439 301.205 37.0615 298.546 37.0615C295.177 37.0615 292.327 34.4666 292.327 30.5741C292.318 26.6817 295.169 24.0867 298.689 24.0867ZM328.224 28.9374C327.931 27.4025 326.786 26.4612 325.081 26.4612C323.467 26.4612 322.247 27.5467 321.812 28.9374H328.224ZM325.181 24.0867C328.642 24.0867 331.083 26.6393 331.083 30.2264V31.3119H321.762C321.954 33.1945 323.275 34.3818 325.081 34.3818C326.719 34.3818 327.396 33.6609 328.157 32.7027L330.598 33.9408C329.378 36.0439 327.697 37.0615 325.039 37.0615C321.67 37.0615 318.819 34.4666 318.819 30.5741C318.811 26.6817 321.661 24.0867 325.181 24.0867ZM281.191 27.1566H284.803V36.7054H287.879V27.1566H291.491V24.4344H281.191V27.1566ZM350.252 34.1358C352.058 34.1358 353.738 32.8214 353.738 30.5741C353.738 28.3269 352.058 27.0124 350.252 27.0124C348.446 27.0124 346.766 28.3269 346.766 30.5741C346.766 32.8214 348.446 34.1358 350.252 34.1358ZM350.252 24.0867C353.571 24.0867 356.865 26.2662 356.865 30.5741C356.865 34.8821 353.571 37.0615 350.252 37.0615C346.933 37.0615 343.64 34.8821 343.64 30.5741C343.64 26.2662 346.933 24.0867 350.252 24.0867ZM369.095 24.4259L365.76 33.0249L362.424 24.4259H358.403V36.6799H361.321V28.9205L364.556 36.6799H366.938L370.174 28.9205V36.6799H373.1V24.4259H369.095Z" fill="white"/>
<path d="M228.951 41.997H211.897C210.668 41.997 209.94 40.8776 209.94 39.9024C209.94 39.3257 210.175 38.7999 210.542 38.4268L217.983 30.8794L228.951 41.997Z" fill="white"/>
<path d="M211.896 41.997C210.608 41.997 208.995 40.9539 208.995 38.8763V15.6149C208.995 12.4687 208.836 10.2639 211.051 8.0166L219.353 -0.404297L234.074 14.5549L210.541 38.4268C210.165 38.8084 209.94 39.3257 209.94 39.9024C209.94 40.8776 210.667 41.997 211.896 41.997Z" fill="white"/>
<path d="M471.553 36.8822C470.499 36.8822 469.72 36.0146 469.72 35.0556C469.72 34.0054 470.59 33.2291 471.553 33.2291C472.607 33.2291 473.386 34.0967 473.386 35.0556C473.386 36.0146 472.607 36.8822 471.553 36.8822ZM467.199 36.8822C466.145 36.8822 465.366 36.0146 465.366 35.0556C465.366 34.0054 466.237 33.2291 467.199 33.2291C468.253 33.2291 469.032 34.0967 469.032 35.0556C469.032 36.0146 468.253 36.8822 467.199 36.8822ZM462.846 36.8822C461.792 36.8822 461.013 36.0146 461.013 35.0556C461.013 34.0054 461.883 33.2291 462.846 33.2291C463.9 33.2291 464.679 34.0967 464.679 35.0556C464.77 36.0146 463.854 36.8822 462.846 36.8822ZM463.166 14.0961V29.3477C463.166 30.0327 462.662 30.5806 461.929 30.5806H460.096C460.004 30.5806 459.913 30.6719 459.913 30.7633V43.549C460.371 43.549 460.783 43.6403 461.333 43.6403C469.536 43.6403 476.181 37.0192 476.181 28.8454C476.181 21.2196 470.499 14.9637 463.166 14.0961Z" fill="white"/>
<path d="M458.446 26.1981C457.392 26.1981 456.613 25.3305 456.613 24.3715C456.613 23.3213 457.484 22.545 458.446 22.545C459.5 22.545 460.279 23.4126 460.279 24.3715C460.279 25.3305 459.5 26.1981 458.446 26.1981ZM461.333 14.0059C453.13 14.0059 446.485 20.6271 446.485 28.8009C446.485 35.9244 451.48 41.8606 458.217 43.2762V29.9425C458.217 29.3489 458.721 28.8009 459.363 28.7096H461.196C461.287 28.7096 461.379 28.6182 461.379 28.5269V14.0059H461.333Z" fill="white"/>
<path d="M542.538 30.8089L544.83 25.4206C544.921 25.238 545.013 25.238 545.105 25.238C545.196 25.238 545.38 25.238 545.38 25.4206L547.671 30.8089H542.538ZM548.221 23.7311C547.625 22.4069 546.388 21.7219 545.15 21.7219C543.913 21.7219 542.722 22.4069 542.08 23.7311L536.031 36.8822H539.972L541.301 33.7314H549L550.329 36.8822H554.27L548.221 23.7311Z" fill="white"/>
<path d="M588.503 21.9046C594.093 21.9046 596.385 24.3248 596.385 29.4847C596.385 34.5534 594.093 36.9735 588.411 37.0649H587.174C581.583 37.0649 579.291 34.5534 579.291 29.4847C579.291 24.3248 581.583 21.9046 587.174 21.9046H588.503ZM503.998 19.3931C502.257 19.3931 501.111 20.352 500.332 22.1786L495.52 33.3205L490.708 22.1786C489.929 20.352 488.783 19.3931 487.042 19.3931C485.392 19.3931 483.742 20.5347 483.742 23.0462V36.7909H487.409V23.4572L492.266 34.5534C492.862 36.1059 494.008 37.0649 495.52 37.0649C497.078 37.0649 498.132 36.1059 498.774 34.5534L503.677 23.5028V36.9279H507.343V23.1832C507.297 20.626 505.648 19.3931 503.998 19.3931ZM602.571 27.6582H610.087V22.0873H613.753V36.8822H610.087V30.8546H602.571V36.8822H598.814V22.0873H602.571V27.6582ZM538.78 22.0873V25.238H529.615C529.432 25.238 529.248 25.4207 529.248 25.6033V36.8365H525.582V24.2791C525.582 23.1375 526.453 22.0873 527.782 22.0873H538.78ZM569.026 19.7584C574.434 19.7584 576.725 22.5439 576.817 27.3386C576.817 28.1148 576.725 28.7998 576.633 29.4391C576.038 32.8182 574.021 34.9187 568.843 34.9187H567.285V36.8365H563.619V34.9187H561.923C556.745 34.9187 554.774 32.8182 554.132 29.4391C554.041 28.8454 553.949 28.1148 553.949 27.3386C553.949 22.5439 556.149 19.7584 561.648 19.7584H569.026ZM523.062 21.9959V25.1467H513.896C513.713 25.1467 513.53 25.3294 513.53 25.512V27.7952H522.787V30.8546H513.53V33.4574C513.53 33.6401 513.713 33.8228 513.896 33.8228V33.6401H523.062V36.7909H512.063C510.826 36.7909 509.864 35.7406 509.864 34.599V24.2334C509.864 23.0919 510.734 22.0416 512.063 22.0416L523.062 21.9959ZM588.411 33.9597C591.573 33.9597 592.673 32.5442 592.673 29.5304C592.673 26.5623 591.527 25.101 588.411 25.101H587.174C583.92 25.101 582.912 26.5623 582.912 29.5304C582.912 32.5898 584.149 33.9597 587.174 33.9597H588.411ZM568.935 31.9506C571.363 31.9506 572.326 30.9916 572.876 29.5304C573.059 28.9368 573.059 28.2062 573.151 27.3386C573.151 24.1878 571.684 22.9092 569.576 22.9092H567.285V31.9506H568.935ZM563.481 31.8592V22.8635H561.19C559.082 22.8635 557.615 24.1878 557.615 27.2929C557.615 28.0692 557.615 28.8454 557.799 29.3934C558.303 30.8546 559.219 31.8136 561.74 31.8136H563.481V31.8592Z" fill="white"/>
<path d="M794.882 34.7911C804.788 29.5521 807.176 22.8949 804.122 21.0435C799.62 18.5224 787.286 23.0524 788.656 35.4608C788.03 35.8153 786.816 36.485 786.816 36.485L787.638 39.006C787.638 39.006 789.361 37.9819 789.831 37.6273C791.28 38.8091 792.024 39.4393 794.295 39.5181C799.071 39.6363 803.183 34.279 803.183 34.279L801.969 32.3882C801.969 32.4276 796.722 37.5092 794.882 34.7911ZM796.213 27.1886C797.623 24.6675 799.933 22.6979 801.068 23.4857C802.204 24.2736 799.933 28.2521 794.569 32.5064C794.334 32.1519 794.765 29.749 796.213 27.1886ZM705.102 39.5181C704.358 39.5181 703.3 39.2424 702.478 38.4152C700.09 35.9335 702.361 27.4643 702.831 25.6523C702.87 25.4947 702.752 25.3372 702.556 25.3372C702.439 25.3372 702.361 25.3765 702.322 25.4947C701.303 27.5037 695.861 39.5181 691.045 39.5181C690.967 39.5181 690.849 39.5181 690.771 39.5181C686.112 39.0848 686.738 32.6246 688.187 28.6854H695.704C695.078 30.3793 694.882 31.4429 694.922 31.9943C694.922 32.3882 695.274 32.5852 695.587 32.4276C696.37 32.0337 697.662 30.3399 698.759 28.3703C700.755 24.8645 703.379 19.5072 707.881 5.99588H716.104C713.676 13.5197 711.679 20.3344 710.622 28.0946C710.583 28.4885 711.014 28.8036 711.366 28.4885C713.715 26.2826 722.29 7.61093 722.838 5.99588H731.1C731.1 5.99588 722.917 28.8036 723.621 32.5852C723.7 33.0973 724.248 33.2549 724.679 32.7428C725.188 32.1519 725.971 31.1277 726.401 30.6156L727.693 31.9156C725.344 34.8305 721.546 40.109 717.709 39.4787C717.122 39.4 716.535 39.0454 716.104 38.6121C712.149 35.1457 717.67 23.5645 718.649 20.8465C718.845 20.2556 719.08 19.7042 719.197 19.3496C719.275 19.1921 719.119 18.9951 718.962 18.9951C718.845 18.9951 718.766 19.0345 718.727 19.1527C718.531 19.5466 718.022 20.6496 717.866 21.0435C715.36 26.0856 709.722 39.5181 705.102 39.5181ZM782.235 11.7077C778.555 11.7471 776.714 13.6772 776.714 13.6772L776.793 15.9226C776.793 15.9226 779.142 13.5985 781.765 14.5832C783.566 15.2529 785.367 17.577 784.115 22.6585C783.018 19.8223 778.75 19.1921 775.305 22.8949C772.564 25.8492 768.844 35.7365 774.326 38.8091C781.139 42.5907 787.09 31.5216 788.461 23.9584C789.4 19.1921 789.909 11.6289 782.235 11.7077ZM779.416 34.6336C778.672 35.1457 777.38 35.4214 777.145 33.0973C776.793 29.749 779.064 25.7311 779.808 24.8251C781.021 23.2494 782.705 23.0918 782.744 25.5341C782.744 28.2915 781.217 33.3336 779.416 34.6336ZM758.899 9.85625C754.945 8.47755 740.927 12.9288 736.307 28.5279C735.759 28.6854 733.057 29.3945 733.057 29.3945L731.883 32.5852L736.072 31.2853C736.072 31.2853 735.603 39.2818 742.611 39.5181C748.132 39.3212 751.068 31.2065 749.346 26.0068C748.993 26.1644 744.49 28.0946 744.49 28.0946C744.49 28.0946 745.391 33.373 743.433 34.5548C743.12 34.7517 742.729 34.7124 742.494 34.3578C741.906 33.57 741.554 31.4822 742.18 28.7642C752.282 23.4857 759.134 14.2287 759.565 10.9986C759.682 10.2108 759.017 9.89565 758.899 9.85625ZM746.37 23.6433C744.491 25.1008 743.042 25.8099 743.042 25.8099C743.042 25.8099 743.551 24.5887 743.982 23.8797C745.078 22.0677 750.285 15.0166 754.631 13.7166C754.788 13.6772 754.945 13.7954 754.906 13.953C754.866 15.4893 749.346 21.3586 746.37 23.6433ZM767.435 35.4214C768.1 34.9881 769.001 34.279 769.001 34.279L769.549 36.0123C769.236 36.3668 766.534 38.5333 764.851 39.3212C763.05 40.1878 761.366 39.0454 761.131 37.6667C760.857 36.0911 761.679 34.0427 761.679 34.0427C761.679 34.0427 758.782 37.3516 755.845 38.9666C755.023 39.4 754.396 39.5969 753.927 39.5969C751.969 39.5575 751.343 37.6273 751.538 36.6031C751.812 35.382 754.475 27.0704 754.827 25.7311C754.866 25.6129 754.71 25.4553 754.553 25.4947C753.731 25.7311 751.617 27.1098 751.617 27.1098V24.8251C751.617 24.8251 757.451 20.8465 759.017 20.3738C760.426 19.9799 761.679 20.7677 761.288 22.4222C761.131 23.5645 757.646 33.1367 757.411 34.279C757.372 34.5154 757.607 34.5154 757.686 34.5154C758.821 34.1609 760.896 32.3882 762.501 29.8278C763.989 27.4643 765.007 24.4311 766.26 20.6889H771.585C771.585 20.6889 767.552 33.1367 767.083 35.1851C767.083 35.382 767.317 35.5002 767.435 35.4214ZM810.074 39.5575C807.216 39.5575 805.884 37.1546 805.571 36.3668C802.321 28.2127 811.875 20.6496 811.875 20.6496H817.396C817.396 20.6496 808.977 27.4249 810.152 33.4124C810.935 36.3274 813.441 35.579 815.085 33.2549C817.082 30.4581 818.883 24.9432 817.513 24.8251C816.26 24.6675 814.576 27.4249 814.576 27.4249L813.402 25.6129C814.302 24.4311 816.886 21.3192 819.784 20.3738C820.215 20.2556 822.838 19.5466 822.838 23.407C822.838 27.6219 818.257 39.5969 810.074 39.5575ZM732.392 37.3122C732.392 38.5333 731.413 39.5181 730.199 39.5181C728.986 39.5181 728.007 38.5333 728.007 37.3122C728.007 36.0911 728.986 35.1063 730.199 35.1063C731.374 35.1063 732.392 36.0911 732.392 37.3122Z" fill="white"/>
<path d="M17.3404 14.0658H41.468V38.4399H17.3404V14.0658Z" fill="white"/>
<path d="M70.6917 28.8735L70.0691 32.756H73.82L74.4427 28.8735H77.202L75.511 39.3174H72.7747L73.4895 34.837H69.7386L69.0237 39.3174H66.2566L67.9784 28.8735H70.7224H70.6917ZM81.6217 28.8735H78.7393L77.0099 39.3174H79.8385L80.6071 34.806L83.528 39.3484H87.1944L83.3512 33.8431L88.5011 28.9046H85.0422L80.8992 33.2064L81.6217 28.8735ZM62.0214 35.4039L61.4219 32.0649L59.6924 35.4039H62.0214ZM62.4365 37.4771H58.5318L57.4941 39.2863H54.4811L60.3765 28.8425H63.4511L65.8338 39.2863H62.8285L62.4365 37.4771ZM55.0191 36.1493C54.9378 36.851 54.6485 37.5114 54.1889 38.0439C53.0898 39.1854 51.4218 39.2475 50.3457 39.2786H46.2028L47.9937 28.8735H55.0498L54.7194 30.9157H50.438L50.1075 32.989H51.3297C52.3715 32.9155 53.4055 33.2151 54.2505 33.8353C54.5679 34.1226 54.8058 34.4886 54.9406 34.8971C55.0754 35.3056 55.1024 35.7426 55.0191 36.1648V36.1493ZM50.5533 34.938H49.7847L49.4003 37.1665H50.1152C51.7216 37.1665 52.0522 36.7161 52.1444 36.1105C52.2366 35.5048 52.1444 34.938 50.5379 34.938H50.5533ZM122.021 19.1984H124.881C124.815 18.876 124.639 18.5874 124.383 18.3841C124.127 18.1807 123.808 18.0758 123.482 18.088C123.144 18.0532 122.807 18.1483 122.536 18.3541C122.266 18.56 122.081 18.8615 122.021 19.1984ZM127.164 20.3864V20.6582H121.983C121.958 20.8682 121.981 21.0811 122.05 21.2808C122.118 21.4806 122.231 21.6622 122.379 21.8116C122.526 21.9611 122.706 22.0748 122.904 22.144C123.101 22.2132 123.313 22.2362 123.52 22.2112C123.757 22.2316 123.995 22.1795 124.201 22.0617C124.408 21.944 124.576 21.7661 124.681 21.5512H127.064C126.679 23.2362 125.127 23.9894 123.551 23.9894C121.245 23.9894 119.531 22.6693 119.531 20.2001C119.502 19.6868 119.582 19.173 119.766 18.6936C119.95 18.2142 120.234 17.7803 120.598 17.4212C120.962 17.062 121.399 16.7859 121.878 16.6117C122.357 16.4374 122.867 16.3689 123.374 16.4108C125.788 16.4108 127.156 17.9638 127.156 20.3864H127.164ZM58.8315 18.4918C58.62 18.481 58.4086 18.5146 58.2105 18.5902C58.0123 18.6659 57.8318 18.7821 57.6803 18.9315C57.5287 19.081 57.4094 19.2605 57.3297 19.4588C57.2501 19.657 57.2118 19.8697 57.2174 20.0836C57.2121 20.2941 57.2493 20.5035 57.3266 20.6991C57.4039 20.8946 57.5198 21.0722 57.6671 21.2211C57.8145 21.37 57.9904 21.4871 58.1839 21.5651C58.3775 21.6432 58.5847 21.6808 58.7931 21.6754C59.0036 21.6891 59.2145 21.6573 59.4118 21.5822C59.6091 21.507 59.7883 21.3902 59.9374 21.2396C60.0865 21.0889 60.2021 20.9079 60.2765 20.7086C60.3509 20.5093 60.3824 20.2962 60.3688 20.0836C60.3741 19.8731 60.3369 19.6638 60.2596 19.4682C60.1823 19.2726 60.0665 19.0951 59.919 18.9461C59.7717 18.7973 59.5959 18.6802 59.4023 18.6021C59.2087 18.524 59.0015 18.4864 58.7931 18.4918H58.8315ZM62.7516 16.535V23.64H60.292V22.8635C60.0592 23.1987 59.746 23.4687 59.3816 23.648C59.0172 23.8273 58.6137 23.91 58.2089 23.8884C57.7321 23.8766 57.2625 23.7685 56.8277 23.5705C56.3929 23.3724 56.0017 23.0884 55.6772 22.7353C55.3528 22.3822 55.1015 21.967 54.9383 21.5143C54.7751 21.0615 54.7032 20.5803 54.727 20.0991C54.7012 19.6196 54.7705 19.1396 54.9309 18.6876C55.0914 18.2354 55.3396 17.8203 55.6612 17.4665C55.9828 17.1127 56.3711 16.8275 56.8033 16.6275C57.2356 16.4276 57.703 16.3169 58.1782 16.3021C58.5757 16.2927 58.9705 16.3704 59.3354 16.5299C59.7003 16.6895 60.0266 16.9269 60.292 17.2261V16.535H62.7516ZM98.7624 18.4918C98.5541 18.4864 98.3466 18.524 98.1529 18.6021C97.96 18.6802 97.784 18.7973 97.6364 18.9461C97.4888 19.0951 97.3735 19.2726 97.2959 19.4682C97.2182 19.6638 97.1813 19.8731 97.1867 20.0836C97.1813 20.2941 97.2182 20.5035 97.2959 20.6991C97.3735 20.8946 97.4888 21.0722 97.6364 21.2211C97.784 21.37 97.96 21.4871 98.1529 21.5651C98.3466 21.6432 98.5541 21.6808 98.7624 21.6754C98.973 21.6891 99.1836 21.6573 99.3811 21.5822C99.5787 21.507 99.7578 21.3902 99.9069 21.2396C100.056 21.0889 100.171 20.9079 100.246 20.7086C100.32 20.5093 100.352 20.2962 100.338 20.0836C100.344 19.8731 100.307 19.6638 100.229 19.4682C100.151 19.2726 100.036 19.0951 99.8885 18.9461C99.7409 18.7973 99.5649 18.6802 99.3719 18.6021C99.1783 18.524 98.9707 18.4864 98.7624 18.4918ZM102.698 16.535V23.64H100.261V22.8635C100.028 23.1987 99.7155 23.4687 99.3512 23.648C98.9868 23.8273 98.5833 23.91 98.1782 23.8884C97.7017 23.8766 97.2321 23.7685 96.797 23.5705C96.3619 23.3724 95.9707 23.0884 95.6463 22.7353C95.322 22.3822 95.0706 21.967 94.9077 21.5143C94.7447 21.0615 94.6725 20.5803 94.6963 20.0991C94.6717 19.6196 94.7417 19.1399 94.9031 18.6881C95.0645 18.2364 95.3135 17.8218 95.6364 17.4688C95.9584 17.1158 96.3474 16.8314 96.7801 16.6324C97.2121 16.4333 97.6801 16.3237 98.1552 16.3099C98.5587 16.2969 98.9592 16.3736 99.3304 16.5346C99.7009 16.6956 100.031 16.937 100.3 17.2416V16.535H102.698ZM46.5871 23.64V13.1961H50.7609C53.5587 13.1961 54.3658 15.215 54.3658 16.6282C54.3853 17.1037 54.3039 17.5779 54.1272 18.0191C53.9504 18.4602 53.6825 18.8581 53.3411 19.1861C52.9997 19.514 52.5929 19.7644 52.1479 19.9206C51.7028 20.0767 51.2299 20.1349 50.7609 20.0914H49.2235V23.64H46.5871ZM49.2389 15.4557V17.8551H50.1305C51.3527 17.8551 51.468 17.0786 51.468 16.6826C51.468 16.2866 51.2912 15.5101 50.1305 15.5101H49.3619L49.2697 15.4557H49.2389ZM64.312 16.5428V23.6477H66.6947L69.139 19.7653V23.6477H71.6141V16.535H69.2313L66.787 20.3554V16.535L64.312 16.5428ZM68.1552 15.6421C68.735 15.6892 69.3151 15.554 69.816 15.2552C70.3168 14.9563 70.714 14.5083 70.953 13.9726L69.3466 13.3669C69.2869 13.6276 69.1373 13.8582 68.9247 14.0175C68.712 14.1769 68.4501 14.2546 68.1859 14.2366C67.9211 14.2578 67.6576 14.1814 67.4442 14.0215C67.2309 13.8617 67.082 13.6291 67.0252 13.3669L65.4188 13.9726C65.661 14.4981 66.0549 14.9373 66.5488 15.2325C67.0426 15.5277 67.6134 15.6651 68.1859 15.6265L68.1552 15.6421ZM76.7025 26.7304V23.7564C75.242 23.7564 72.7978 23.1508 72.7978 20.0836C72.7978 17.0165 75.2113 16.4419 76.7025 16.4419V13.3359H79.1775V16.4419C80.6686 16.4419 83.0207 17.0475 83.0207 20.0836C83.0207 23.1197 80.6071 23.7564 79.1775 23.7564V26.7692L76.7025 26.7304ZM79.0084 18.189V22.1336C79.8462 22.1336 80.6763 21.5279 80.6763 20.1457C80.6763 18.7636 79.8385 18.1579 79.0084 18.189ZM76.8638 18.189C76.026 18.189 75.1959 18.7946 75.1959 20.1768C75.1959 21.559 76.0337 22.1336 76.8638 22.1025V18.189ZM87.7939 23.7564C86.3335 23.7564 83.8893 23.1508 83.8893 20.0836C83.8893 17.0165 86.3028 16.4419 87.7939 16.4419V13.3359H90.269V16.4419C91.7601 16.4419 94.1736 17.0475 94.1736 20.0836C94.1736 23.1197 91.7601 23.7564 90.269 23.7564V26.7692H87.7939V23.7564ZM90.0998 18.22V22.1646C90.9377 22.1646 91.7678 21.559 91.7678 20.1768C91.7678 18.7946 90.93 18.189 90.0998 18.22ZM87.9246 22.1025V18.22C87.0868 18.22 86.2259 18.8257 86.2259 20.2079C86.2029 20.4506 86.2313 20.6953 86.3089 20.9263C86.3858 21.1572 86.511 21.369 86.6748 21.5479C86.8385 21.7267 87.0383 21.8685 87.2605 21.9641C87.4826 22.0597 87.7216 22.1068 87.963 22.1025H87.9246ZM104.312 16.535V23.64H106.695L109.139 19.7575V23.64H111.614V16.535H109.231L106.756 20.3243V16.535H104.312ZM108.155 15.6343C108.726 15.6706 109.293 15.5312 109.783 15.2344C110.273 14.9377 110.662 14.4977 110.899 13.9726L109.293 13.3669C109.233 13.6276 109.084 13.8582 108.871 14.0175C108.658 14.1769 108.397 14.2546 108.132 14.2366C107.867 14.2612 107.602 14.1861 107.387 14.0257C107.174 13.8653 107.025 13.6307 106.971 13.3669L105.357 13.9726C105.599 14.4981 105.994 14.9373 106.487 15.2325C106.982 15.5277 107.552 15.6651 108.124 15.6265L108.155 15.6343ZM113.459 18.5772C113.993 18.2034 114.623 17.9931 115.273 17.9716C115.573 17.9716 116.257 18.0337 116.257 18.6005C116.257 19.1674 115.657 19.2062 115.427 19.2062H114.204V20.7592H115.28C115.642 20.7592 116.295 20.7592 116.295 21.3648C116.295 21.6055 116.149 22.0559 115.28 22.0559C114.526 22.0541 113.79 21.8243 113.167 21.3959L112.56 23.0964C113.52 23.6536 114.611 23.943 115.719 23.935C118.547 23.935 118.908 22.2811 118.908 21.7376C118.911 21.323 118.77 20.9206 118.509 20.6011C118.247 20.2815 117.882 20.0653 117.479 19.9904C117.792 19.8483 118.055 19.6149 118.237 19.3202C118.417 19.0255 118.506 18.683 118.493 18.3365C118.493 16.6826 116.764 16.3487 115.696 16.3487C114.694 16.3674 113.709 16.6031 112.805 17.0398L113.459 18.5772ZM128.409 23.6322H130.884V20.8058H133.151V23.6322H135.619V16.535H133.144V19.0353H130.876V16.535H128.401L128.409 23.6322Z" fill="white"/>
<path d="M42.3058 39.2863H16.4795V13.1961H42.3058V39.2863ZM41.468 14.0658H17.3404V38.4399H41.468V14.0658Z" fill="white"/>
<path d="M29.4081 29.2308L21.9907 36.7239L19.0391 33.7422L26.4719 26.2568L24.9346 24.7038V21.5978L23.8585 20.5107V23.1896L22.9361 24.1214L19.1544 20.3632L18.2321 21.295C18.2371 20.4602 18.4054 19.6346 18.7272 18.8657C19.0491 18.0968 19.5182 17.3998 20.1075 16.8146C20.6764 16.1707 21.4728 15.7782 22.3252 15.7215C23.1777 15.6649 24.0182 15.9487 24.6656 16.5118L28.4165 20.3321L27.4634 21.295L29.4081 23.2906L31.3758 21.3028L30.4227 20.3399L34.1583 16.504C34.8049 15.939 35.6458 15.6539 36.4988 15.7106C37.3519 15.7673 38.1486 16.1611 38.7163 16.8069C39.3057 17.392 39.7747 18.0891 40.0966 18.858C40.4185 19.6268 40.5868 20.4524 40.5918 21.2872L39.6694 20.3554L35.8877 24.1447L34.9654 23.2129V20.5107L33.897 21.5978V24.7038L32.3596 26.2568L39.7771 33.75L36.8255 36.7239L29.4081 29.2308Z" fill="white"/>
</svg>
