<svg width="174" height="51" viewBox="0 0 174 51" fill="none" xmlns="http://www.w3.org/2000/svg">
<path d="M-612.676 45.6514H-583.612V51.778H-612.676V45.6514ZM-604.031 31.1917H-592.567L-590.632 37.3519H-584.276L-592.854 11.4567C-593.683 8.97024 -594.645 6.97658 -597.928 6.97658C-601.212 6.97658 -602.218 8.93664 -603.08 11.4567L-612.057 37.3407H-606.098L-604.031 31.1917ZM-598.216 13.6968H-598.072L-594.214 26.0172H-602.284L-598.216 13.6968Z" fill="white"/>
<path d="M-426.884 30.3508L-421.042 23.8202H-425.396L-430.184 29.248V23.8202H-433.653V37.5449H-430.166V31.7638L-425.047 37.5449H-420.574L-426.884 30.3508ZM-540.317 31.2555C-540.41 33.8402 -540.733 34.3313 -542.145 34.3313V37.5535H-541.618C-538.072 37.5535 -537.23 35.7012 -537.102 31.5743L-536.949 27.008H-533.675V37.5449H-530.206V23.8202H-540.079L-540.317 31.2555ZM-555.377 33.6162H-548.064L-546.848 37.5449H-542.791L-548.259 21.0373C-548.787 19.4434 -549.399 18.1769 -551.491 18.1769C-553.583 18.1769 -554.221 19.4434 -554.782 21.0373L-560.513 37.5449H-556.704L-555.377 33.6162ZM-551.669 22.4848H-551.576L-549.127 30.3078H-554.28L-551.669 22.4848ZM-470.619 25.7673H-474.489V21.8903H-465.508V18.444H-478.128V37.5449H-470.619C-466.461 37.5449 -464.071 35.4427 -464.071 31.6001C-464.071 27.9557 -466.495 25.7673 -470.619 25.7673ZM-470.798 34.09H-474.489V29.1274H-470.798C-468.876 29.1274 -467.796 29.989 -467.796 31.6087C-467.796 33.2285 -468.876 34.09 -470.798 34.09ZM-505.111 23.5014V18.4182H-508.572V23.5014C-510.389 23.5621 -512.109 24.3512 -513.352 25.6951C-514.596 27.0392 -515.262 28.8283 -515.205 30.6696C-515.267 32.5148 -514.603 34.3092 -513.359 35.6583C-512.115 37.0076 -510.393 37.8008 -508.572 37.8637V43.0331H-505.102V37.8637C-504.2 37.8336 -503.313 37.6237 -502.491 37.2456C-501.669 36.8676 -500.929 36.3291 -500.313 35.6609C-499.697 34.9925 -499.217 34.2077 -498.9 33.3512C-498.584 32.4948 -498.438 31.5835 -498.469 30.6696C-498.433 29.7552 -498.577 28.8425 -498.892 27.985C-499.208 27.1274 -499.689 26.3421 -500.307 25.6748C-500.925 25.0076 -501.668 24.4717 -502.493 24.0986C-503.318 23.7254 -504.208 23.5224 -505.111 23.5014ZM-508.563 34.5467C-509.482 34.4445 -510.323 33.9807 -510.907 33.2554C-511.491 32.5302 -511.77 31.6015 -511.684 30.6696C-511.759 29.7401 -511.476 28.8173 -510.894 28.0946C-510.312 27.3718 -509.477 26.9053 -508.563 26.7926V34.5467ZM-505.094 34.5467V26.7926C-504.18 26.9053 -503.345 27.3718 -502.763 28.0946C-502.181 28.8173 -501.898 29.7401 -501.973 30.6696C-501.892 31.6006 -502.172 32.5268 -502.755 33.2511C-503.338 33.9754 -504.177 34.4403 -505.094 34.5467ZM-485.467 33.3319V28.7053C-485.467 25.3279 -487.584 23.2171 -491.139 23.2171C-494.694 23.2171 -496.769 25.4572 -496.939 27.792H-493.427C-493.308 27.2923 -492.78 26.4049 -491.148 26.4049C-490.842 26.3651 -490.533 26.3976 -490.243 26.5002C-489.952 26.6027 -489.689 26.7722 -489.475 26.9954C-489.261 27.2185 -489.1 27.4893 -489.006 27.786C-488.913 28.0828 -488.889 28.3975 -488.937 28.7053H-492.338C-495.416 28.7053 -497.245 30.3509 -497.245 33.0734C-497.269 33.7231 -497.158 34.3707 -496.919 34.9742C-496.681 35.5777 -496.319 36.1237 -495.859 36.5769C-495.399 37.03 -494.85 37.3803 -494.248 37.605C-493.646 37.8296 -493.004 37.9236 -492.364 37.8809C-491.641 37.9194 -490.92 37.7769 -490.264 37.4658C-489.608 37.1547 -489.039 36.6848 -488.605 36.0975C-488.323 36.5813 -487.911 36.974 -487.417 37.2301C-486.924 37.4863 -486.368 37.5955 -485.816 37.5449H-484.617V34.3744C-485.203 34.3744 -485.467 34.09 -485.467 33.3319ZM-488.937 32.4703C-488.922 32.8097 -488.979 33.1483 -489.104 33.4637C-489.228 33.7791 -489.417 34.0643 -489.658 34.3004C-489.899 34.5364 -490.187 34.718 -490.502 34.8333C-490.818 34.9485 -491.153 34.9947 -491.488 34.9688C-492.738 34.9688 -493.724 34.5122 -493.724 33.1423C-493.724 31.7724 -492.627 31.5743 -491.7 31.5743H-488.937V32.4703ZM-521.566 27.9902H-524.057V23.8202H-527.527V37.5449H-521.506C-517.739 37.5449 -516.404 35.0636 -516.404 32.7202C-516.387 29.6961 -518.258 27.9902 -521.566 27.9902ZM-521.821 34.5467H-524.057V31.1004H-521.821C-520.622 31.1004 -519.899 31.6518 -519.899 32.8235C-519.899 33.9953 -520.588 34.5467 -521.821 34.5467ZM-450.831 33.3319V28.7053C-450.831 25.3279 -452.948 23.2171 -456.503 23.2171C-460.057 23.2171 -462.132 25.4572 -462.303 27.792H-458.79C-458.671 27.2923 -458.144 26.4049 -456.511 26.4049C-456.206 26.3651 -455.897 26.3976 -455.607 26.5002C-455.316 26.6027 -455.053 26.7722 -454.839 26.9954C-454.624 27.2185 -454.464 27.4893 -454.37 27.786C-454.277 28.0828 -454.253 28.3975 -454.3 28.7053H-457.702C-460.78 28.7053 -462.609 30.3509 -462.609 33.0734C-462.632 33.7231 -462.522 34.3707 -462.283 34.9742C-462.045 35.5777 -461.683 36.1237 -461.223 36.5769C-460.763 37.03 -460.214 37.3803 -459.612 37.605C-459.01 37.8296 -458.368 37.9236 -457.727 37.8809C-456.998 37.9267 -456.268 37.7876 -455.604 37.4763C-454.941 37.165 -454.364 36.6911 -453.926 36.0975C-453.648 36.5728 -453.244 36.9601 -452.76 37.2158C-452.276 37.4715 -451.732 37.5855 -451.188 37.5449H-449.989V34.3744C-450.593 34.3744 -450.831 34.09 -450.831 33.3319ZM-454.283 32.4703C-454.271 32.8093 -454.328 33.1472 -454.453 33.462C-454.578 33.7769 -454.767 34.0614 -455.008 34.2973C-455.249 34.533 -455.536 34.7147 -455.851 34.8305C-456.165 34.9462 -456.5 34.9933 -456.835 34.9688C-458.085 34.9688 -459.071 34.5122 -459.071 33.1423C-459.071 31.7724 -457.974 31.5743 -457.047 31.5743H-454.283V32.4703ZM-439.75 28.9293H-444.538V23.8202H-448.008V37.5535H-444.538V32.1429H-439.75V37.5449H-436.281V23.8202H-439.75V28.9293Z" fill="white"/>
<path d="M-364.15 30.9509C-364.15 30.9509 -362.34 33.4795 -359.141 33.4795C-357.331 33.4795 -355.715 32.5816 -355.715 30.817C-355.715 27.1561 -364.829 27.8217 -364.829 22.4295C-364.829 19.4003 -362.308 17.9026 -359.044 17.9026C-357.396 17.9026 -354.099 18.5682 -354.099 20.9319V22.363H-356.168V21.5642C-356.168 20.3328 -357.913 19.8669 -358.979 19.8669C-361.241 19.8669 -362.598 20.6656 -362.598 22.2964C-362.598 26.0579 -353.485 25.1926 -353.485 30.7505C-353.485 33.5461 -355.941 35.4438 -359.173 35.4438C-363.407 35.4438 -365.41 32.5144 -365.41 32.5144L-364.15 30.9509ZM-349.415 14.3422C-349.415 13.8763 -349.674 13.6101 -350.126 13.6101H-351.483V11.6458H-349.189C-347.799 11.6458 -347.217 12.145 -347.217 13.5761V24.6933H-345.537C-344.923 24.6933 -344.147 24.4936 -343.695 23.8946L-339.526 18.3034H-336.844L-341.53 24.4278C-342.338 25.4595 -342.758 25.6266 -342.758 25.6266V25.6931C-342.758 25.6931 -342.274 25.9261 -341.757 26.9245L-338.815 32.35C-338.524 32.9151 -338.201 33.0822 -337.329 33.0822H-336.456V35.0458H-337.975C-339.591 35.0458 -340.043 34.7796 -340.786 33.3818L-344.019 27.3905C-344.374 26.7249 -345.15 26.6583 -345.731 26.6583H-347.218V35.0458H-349.416L-349.415 14.3422ZM-332.676 40.0033C-331.254 40.0033 -330.284 38.8052 -329.67 37.2736L-328.701 34.9772L-334.421 21.0317C-334.68 20.4327 -334.971 20.2663 -335.552 20.2663H-335.875V18.3027H-334.874C-333.419 18.3027 -332.967 18.6355 -332.385 20.1331L-328.217 30.5841C-327.894 31.4161 -327.635 32.3812 -327.635 32.3812H-327.571C-327.571 32.3812 -327.344 31.4161 -327.021 30.5841L-323.014 20.1331C-322.465 18.6355 -321.98 18.3027 -320.493 18.3027H-319.491V20.2663H-319.814C-320.396 20.2663 -320.719 20.4327 -320.945 21.0317L-327.958 38.5389C-328.799 40.6689 -330.447 42.0341 -332.612 42.0341C-334.874 42.0341 -336.135 40.4027 -336.135 40.4027L-335.101 38.7386C-335.1 38.7726 -334.066 40.0033 -332.676 40.0033ZM-309.571 17.6703C-304.853 17.6703 -302.267 21.2314 -302.267 25.725C-302.267 26.2243 -302.364 27.2893 -302.364 27.2893H-313.74C-313.417 30.2852 -311.284 31.8494 -308.796 31.8494C-306.145 31.8494 -304.174 29.9524 -304.174 29.9524L-302.461 32.8819C-302.461 32.8819 -304.982 35.4445 -309.087 35.4445C-314.548 35.4445 -317.941 31.3842 -317.941 26.5578C-317.941 21.3313 -314.515 17.6703 -309.571 17.6703ZM-306.469 24.3605C-306.534 22.3304 -307.89 20.9326 -309.571 20.9326C-311.672 20.9326 -313.158 22.2305 -313.611 24.3605H-306.469ZM-298.294 22.3962C-298.294 21.897 -298.553 21.6641 -299.005 21.6641H-300.298V18.0697H-296.517C-295.063 18.0697 -294.352 18.7686 -294.352 19.9667V20.466C-294.352 20.832 -294.416 21.1981 -294.416 21.1981H-294.352C-293.641 19.767 -291.864 17.6703 -288.534 17.6703C-284.882 17.6703 -282.782 19.6339 -282.782 24.1276V30.7512C-282.782 31.2171 -282.523 31.484 -282.071 31.484H-280.778V35.0451H-284.688C-286.24 35.0451 -286.886 34.3795 -286.886 32.7813V24.9929C-286.886 22.9287 -287.403 21.5309 -289.472 21.5309C-291.67 21.5309 -293.318 22.962 -293.899 24.9929C-294.126 25.6918 -294.222 26.4572 -294.222 27.256V35.0444H-298.294V22.3962ZM-271.86 17.6703C-268.046 17.6703 -266.786 20.0666 -266.786 20.0666H-266.721V19.6339C-266.721 18.8685 -266.204 18.0697 -264.912 18.0697H-261.099V21.6641H-262.359C-262.779 21.6641 -263.07 21.897 -263.07 22.3297V34.012C-263.07 39.8362 -267.465 42.0334 -271.763 42.0334C-273.831 42.0334 -276.029 41.4344 -277.613 40.5691L-276.352 37.2403C-276.352 37.2403 -274.317 38.3725 -271.795 38.3725C-269.307 38.3725 -267.142 37.2736 -267.142 34.2117V33.413C-267.142 33.0136 -267.109 32.5144 -267.109 32.5144H-267.174C-268.143 33.9455 -269.566 34.7116 -271.763 34.7116C-276.481 34.7116 -279.163 30.7838 -279.163 26.1237C-279.163 21.4637 -276.611 17.6703 -271.86 17.6703ZM-267.045 26.1577C-267.045 22.2964 -268.919 21.2647 -271.149 21.2647C-273.637 21.2647 -274.995 23.1284 -274.995 25.9906C-274.995 28.9533 -273.541 31.1499 -270.891 31.1499C-268.919 31.1505 -267.045 29.985 -267.045 26.1577Z" fill="white"/>
<path d="M134.785 30.3053L140.499 36.886H136.784L132.367 31.8148V36.886H129.288V24.6151H132.367V29.0672L136.709 24.6151H140.348L134.785 30.3053ZM42.7263 27.9309C44.9686 27.9309 45.9977 26.8454 45.9977 25.2087C45.9977 23.572 44.9686 22.4865 42.7263 22.4865H38.2836V27.9309H42.7263ZM42.8267 19.5608C46.6838 19.5608 49.2272 21.5622 49.2272 25.2002C49.2272 28.8383 46.6838 30.8396 42.8267 30.8396H38.2836V36.8775H35.0625V19.5608H42.8267ZM56.4979 34.3165C58.3051 34.3165 59.9868 33.0021 59.9868 30.7548C59.9868 28.5075 58.3051 27.1931 56.4979 27.1931C54.6907 27.1931 53.009 28.5075 53.009 30.7548C53.009 33.0021 54.6907 34.3165 56.4979 34.3165ZM56.4979 24.2674C59.8194 24.2674 63.1159 26.4468 63.1159 30.7548C63.1159 35.0628 59.8194 37.2422 56.4979 37.2422C53.1763 37.2422 49.8798 35.0628 49.8798 30.7548C49.8798 26.4468 53.1763 24.2674 56.4979 24.2674ZM70.9722 34.3165C69.1147 34.3165 67.751 32.9597 67.751 30.7548C67.751 28.5754 69.165 27.1931 70.9722 27.1931C72.0682 27.1931 73.022 27.7104 73.7833 28.8722L76.4188 27.3372C75.5403 25.4292 73.6327 24.2674 70.9972 24.2674C67.5585 24.2674 64.6218 26.8454 64.6218 30.7548C64.6218 34.6642 67.4079 37.2422 70.9972 37.2422C73.5825 37.2422 75.3144 36.055 76.5359 33.9519L73.9925 32.5441C73.2646 33.5702 72.4865 34.3165 70.9722 34.3165ZM103.728 31.5689C103.577 33.4515 103.217 33.867 102.581 33.867C102.146 33.867 101.945 33.8162 101.644 33.7398L101.661 36.9199C101.661 36.9199 102.046 37.0387 102.749 37.0387C105.359 37.0387 106.338 35.3341 106.581 31.6961L106.873 27.4136H110.337V36.8691H113.416V24.6151H104.238L103.728 31.5689ZM98.0466 29.1181C97.7538 27.5832 96.6075 26.6419 94.9007 26.6419C93.2859 26.6419 92.0645 27.7273 91.6294 29.1181H98.0466ZM95.0012 24.2674C98.465 24.2674 100.908 26.82 100.908 30.4071V31.4926H91.5792C91.7716 33.3752 93.0935 34.5624 94.9007 34.5624C96.5406 34.5624 97.2183 33.8416 97.9797 32.8833L100.423 34.1215C99.2012 36.2246 97.5195 37.2422 94.8589 37.2422C91.4871 37.2422 88.6342 34.6472 88.6342 30.7548C88.6258 26.8623 91.4788 24.2674 95.0012 24.2674ZM124.56 29.1181C124.268 27.5832 123.121 26.6419 121.415 26.6419C119.8 26.6419 118.578 27.7273 118.143 29.1181H124.56ZM121.515 24.2674C124.979 24.2674 127.422 26.82 127.422 30.4071V31.4926H118.093C118.286 33.3752 119.607 34.5624 121.415 34.5624C123.055 34.5624 123.732 33.8416 124.494 32.8833L126.937 34.1215C125.715 36.2246 124.033 37.2422 121.373 37.2422C118.001 37.2422 115.148 34.6472 115.148 30.7548C115.14 26.8623 117.993 24.2674 121.515 24.2674ZM77.4897 27.3372H81.1041V36.886H84.183V27.3372H87.7974V24.6151H77.4897V27.3372ZM146.607 34.3165C148.414 34.3165 150.095 33.0021 150.095 30.7548C150.095 28.5075 148.414 27.1931 146.607 27.1931C144.799 27.1931 143.118 28.5075 143.118 30.7548C143.118 33.0021 144.799 34.3165 146.607 34.3165ZM146.607 24.2674C149.928 24.2674 153.225 26.4468 153.225 30.7548C153.225 35.0628 149.928 37.2422 146.607 37.2422C143.285 37.2422 139.989 35.0628 139.989 30.7548C139.989 26.4468 143.285 24.2674 146.607 24.2674ZM165.465 24.6066L162.127 33.2056L158.788 24.6066H154.764V36.8606H157.684V29.1011L160.922 36.8606H163.306L166.544 29.1011V36.8606H169.473V24.6066H165.465Z" fill="white"/>
<path d="M25.2067 42.1777H8.13873C6.90881 42.1777 6.18097 41.0583 6.18097 40.083C6.18097 39.5064 6.41522 38.9806 6.78333 38.6075L14.2296 31.06L25.2067 42.1777Z" fill="white"/>
<path d="M8.13782 42.1777C6.84937 42.1777 5.23456 41.1346 5.23456 39.0569V15.7956C5.23456 12.6494 5.07562 10.4445 7.29279 8.19727L15.6008 -0.223633L30.3345 14.7355L6.78241 38.6075C6.40588 38.9891 6.17999 39.5064 6.17999 40.083C6.17999 41.0583 6.9079 42.1777 8.13782 42.1777Z" fill="white"/>
<path d="M268.006 37.0628C266.951 37.0628 266.171 36.1952 266.171 35.2363C266.171 34.186 267.042 33.4098 268.006 33.4098C269.06 33.4098 269.84 34.2774 269.84 35.2363C269.84 36.1952 269.06 37.0628 268.006 37.0628ZM263.649 37.0628C262.594 37.0628 261.814 36.1952 261.814 35.2363C261.814 34.186 262.685 33.4098 263.649 33.4098C264.703 33.4098 265.483 34.2774 265.483 35.2363C265.483 36.1952 264.703 37.0628 263.649 37.0628ZM259.291 37.0628C258.237 37.0628 257.457 36.1952 257.457 35.2363C257.457 34.186 258.328 33.4098 259.291 33.4098C260.346 33.4098 261.126 34.2774 261.126 35.2363C261.218 36.1952 260.3 37.0628 259.291 37.0628ZM259.612 14.2768V29.5284C259.612 30.2133 259.108 30.7613 258.374 30.7613H256.54C256.448 30.7613 256.356 30.8526 256.356 30.9439V43.7297C256.815 43.7297 257.228 43.821 257.778 43.821C265.988 43.821 272.638 37.1998 272.638 29.0261C272.638 21.4003 266.951 15.1444 259.612 14.2768Z" fill="white"/>
<path d="M254.888 26.3787C253.834 26.3787 253.054 25.5111 253.054 24.5522C253.054 23.5019 253.925 22.7257 254.888 22.7257C255.943 22.7257 256.723 23.5933 256.723 24.5522C256.723 25.5111 255.943 26.3787 254.888 26.3787ZM257.778 14.1866C249.568 14.1866 242.918 20.8078 242.918 28.9816C242.918 36.105 247.917 42.0413 254.659 43.4569V30.1231C254.659 29.5295 255.164 28.9816 255.806 28.8902H257.64C257.732 28.8902 257.824 28.7989 257.824 28.7076V14.1866H257.778Z" fill="white"/>
<path d="M339.049 30.9896L341.342 25.6013C341.434 25.4186 341.526 25.4186 341.617 25.4186C341.709 25.4186 341.893 25.4186 341.893 25.6013L344.186 30.9896H339.049ZM344.736 23.9118C344.14 22.5875 342.902 21.9026 341.663 21.9026C340.425 21.9026 339.232 22.5875 338.59 23.9118L332.536 37.0628H336.481L337.811 33.912H345.516L346.846 37.0628H350.79L344.736 23.9118Z" fill="white"/>
<path d="M385.051 22.0853C390.646 22.0853 392.939 24.5054 392.939 29.6654C392.939 34.734 390.646 37.1542 384.959 37.2455H383.721C378.125 37.2455 375.832 34.734 375.832 29.6654C375.832 24.5054 378.125 22.0853 383.721 22.0853H385.051ZM300.477 19.5738C298.734 19.5738 297.588 20.5327 296.808 22.3592L291.992 33.5011L287.177 22.3592C286.397 20.5327 285.25 19.5738 283.508 19.5738C281.856 19.5738 280.205 20.7154 280.205 23.2269V36.9715H283.874V23.6378L288.736 34.734C289.332 36.2866 290.479 37.2455 291.992 37.2455C293.552 37.2455 294.607 36.2866 295.249 34.734L300.156 23.6835V37.1085H303.825V23.3638C303.779 20.8067 302.128 19.5738 300.477 19.5738ZM399.131 27.8389H406.653V22.2679H410.322V37.0629H406.653V31.0353H399.131V37.0629H395.37V22.2679H399.131V27.8389ZM335.288 22.2679V25.4187H326.115C325.932 25.4187 325.748 25.6014 325.748 25.784V37.0172H322.079V24.4598C322.079 23.3182 322.951 22.2679 324.281 22.2679H335.288ZM365.558 19.9391C370.97 19.9391 373.263 22.7246 373.355 27.5192C373.355 28.2955 373.263 28.9804 373.172 29.6197C372.576 32.9988 370.557 35.0993 365.375 35.0993H363.815V37.0172H360.146V35.0993H358.449C353.267 35.0993 351.295 32.9988 350.653 29.6197C350.561 29.0261 350.469 28.2955 350.469 27.5192C350.469 22.7246 352.67 19.9391 358.174 19.9391H365.558ZM319.557 22.1766V25.3274H310.384C310.2 25.3274 310.017 25.51 310.017 25.6927V27.9758H319.281V31.0353H310.017V33.6381C310.017 33.8208 310.2 34.0034 310.384 34.0034V33.8208H319.557V36.9715H308.549C307.311 36.9715 306.348 35.9213 306.348 34.7797V24.4141C306.348 23.2725 307.219 22.2223 308.549 22.2223L319.557 22.1766ZM384.959 34.1404C388.123 34.1404 389.224 32.7248 389.224 29.7111C389.224 26.7429 388.078 25.2817 384.959 25.2817H383.721C380.464 25.2817 379.455 26.7429 379.455 29.7111C379.455 32.7705 380.693 34.1404 383.721 34.1404H384.959ZM365.467 32.1312C367.897 32.1312 368.86 31.1723 369.411 29.7111C369.594 29.1174 369.594 28.3868 369.686 27.5192C369.686 24.3684 368.218 23.0899 366.109 23.0899H363.815V32.1312H365.467ZM360.009 32.0399V23.0442H357.716C355.606 23.0442 354.138 24.3684 354.138 27.4735C354.138 28.2498 354.138 29.0261 354.322 29.5741C354.826 31.0353 355.743 31.9942 358.266 31.9942H360.009V32.0399Z" fill="white"/>
<path d="M591.598 34.9718C601.512 29.7327 603.902 23.0755 600.845 21.2241C596.339 18.7031 583.995 23.2331 585.367 35.6415C584.74 35.996 583.525 36.6656 583.525 36.6656L584.348 39.1867C584.348 39.1867 586.072 38.1625 586.542 37.808C587.992 38.9897 588.737 39.62 591.01 39.6988C595.79 39.817 599.905 34.4597 599.905 34.4597L598.69 32.5689C598.69 32.6083 593.439 37.6898 591.598 34.9718ZM592.93 27.3692C594.341 24.8482 596.652 22.8786 597.789 23.6664C598.925 24.4542 596.652 28.4328 591.284 32.6871C591.049 32.3326 591.48 29.9297 592.93 27.3692ZM501.744 39.6988C501 39.6988 499.942 39.4231 499.119 38.5958C496.728 36.1142 499.001 27.645 499.471 25.8329C499.51 25.6754 499.393 25.5178 499.197 25.5178C499.079 25.5178 499.001 25.5572 498.962 25.6754C497.943 27.6844 492.496 39.6988 487.676 39.6988C487.598 39.6988 487.48 39.6988 487.402 39.6988C482.739 39.2655 483.366 32.8053 484.816 28.8661H492.339C491.713 30.5599 491.517 31.6235 491.556 32.175C491.556 32.5689 491.909 32.7659 492.222 32.6083C493.006 32.2144 494.299 30.5206 495.396 28.551C497.395 25.0451 500.02 19.6879 504.526 6.17654H512.755C510.326 13.7003 508.327 20.5151 507.269 28.2752C507.23 28.6691 507.661 28.9843 508.014 28.6691C510.365 26.4632 518.947 7.7916 519.495 6.17654H527.764C527.764 6.17654 519.574 28.9843 520.279 32.7659C520.357 33.278 520.906 33.4355 521.337 32.9234C521.847 32.3326 522.63 31.3084 523.061 30.7963L524.354 32.0962C522.003 35.0112 518.202 40.2897 514.362 39.6594C513.774 39.5806 513.186 39.2261 512.755 38.7928C508.798 35.3263 514.323 23.7452 515.302 21.0272C515.498 20.4363 515.734 19.8848 515.851 19.5303C515.93 19.3727 515.773 19.1758 515.616 19.1758C515.498 19.1758 515.42 19.2152 515.381 19.3333C515.185 19.7273 514.676 20.8302 514.519 21.2241C512.011 26.2663 506.368 39.6988 501.744 39.6988ZM578.94 11.8883C575.257 11.9277 573.415 13.8579 573.415 13.8579L573.494 16.1032C573.494 16.1032 575.845 13.7791 578.47 14.7639C580.273 15.4336 582.075 17.7577 580.821 22.8392C579.724 20.003 575.453 19.3727 572.005 23.0755C569.261 26.0299 565.539 35.9172 571.025 38.9897C577.843 42.7713 583.8 31.7023 585.171 24.1391C586.112 19.3727 586.621 11.8095 578.94 11.8883ZM576.119 34.8142C575.375 35.3263 574.081 35.6021 573.846 33.278C573.494 29.9297 575.766 25.9117 576.511 25.0057C577.726 23.4301 579.411 23.2725 579.45 25.7148C579.45 28.4722 577.922 33.5143 576.119 34.8142ZM555.586 10.0369C551.628 8.65821 537.599 13.1095 532.975 28.7085C532.427 28.8661 529.723 29.5752 529.723 29.5752L528.547 32.7659L532.74 31.4659C532.74 31.4659 532.27 39.4624 539.284 39.6988C544.809 39.5018 547.749 31.3872 546.024 26.1875C545.672 26.345 541.165 28.2752 541.165 28.2752C541.165 28.2752 542.067 33.5537 540.107 34.7355C539.794 34.9324 539.402 34.893 539.167 34.5385C538.579 33.7507 538.226 31.6629 538.853 28.9449C548.963 23.6664 555.821 14.4094 556.252 11.1793C556.369 10.3914 555.703 10.0763 555.586 10.0369ZM543.046 23.824C541.165 25.2815 539.715 25.9905 539.715 25.9905C539.715 25.9905 540.225 24.7694 540.656 24.0603C541.753 22.2483 546.965 15.1972 551.314 13.8973C551.471 13.8579 551.628 13.9761 551.589 14.1336C551.55 15.6699 546.024 21.5393 543.046 23.824ZM564.128 35.6021C564.794 35.1688 565.696 34.4597 565.696 34.4597L566.244 36.1929C565.931 36.5475 563.227 38.714 561.542 39.5018C559.739 40.3685 558.054 39.2261 557.819 37.8474C557.545 36.2717 558.368 34.2234 558.368 34.2234C558.368 34.2234 555.468 37.5323 552.529 39.1473C551.706 39.5806 551.079 39.7776 550.609 39.7776C548.65 39.7382 548.023 37.808 548.219 36.7838C548.493 35.5627 551.158 27.251 551.51 25.9117C551.55 25.7936 551.393 25.636 551.236 25.6754C550.413 25.9117 548.297 27.2904 548.297 27.2904V25.0057C548.297 25.0057 554.136 21.0272 555.703 20.5545C557.114 20.1606 558.368 20.9484 557.976 22.6028C557.819 23.7452 554.332 33.3174 554.097 34.4597C554.057 34.6961 554.292 34.6961 554.371 34.6961C555.507 34.3415 557.584 32.5689 559.191 30.0085C560.68 27.645 561.699 24.6118 562.953 20.8696H568.282C568.282 20.8696 564.246 33.3174 563.776 35.3657C563.776 35.5627 564.011 35.6808 564.128 35.6021ZM606.802 39.7382C603.941 39.7382 602.609 37.3353 602.295 36.5475C599.043 28.3934 608.604 20.8302 608.604 20.8302H614.129C614.129 20.8302 605.704 27.6056 606.88 33.5931C607.664 36.5081 610.172 35.7596 611.817 33.4355C613.816 30.6387 615.619 25.1239 614.247 25.0057C612.993 24.8482 611.308 27.6056 611.308 27.6056L610.133 25.7936C611.034 24.6118 613.62 21.4999 616.52 20.5545C616.951 20.4363 619.576 19.7273 619.576 23.5876C619.576 27.8025 614.992 39.7776 606.802 39.7382ZM529.057 37.4929C529.057 38.714 528.077 39.6988 526.862 39.6988C525.648 39.6988 524.668 38.714 524.668 37.4929C524.668 36.2717 525.648 35.2869 526.862 35.2869C528.038 35.2869 529.057 36.2717 529.057 37.4929Z" fill="white"/>
<path d="M-186.576 14.2464H-162.428V38.6206H-186.576V14.2464Z" fill="white"/>
<path d="M-133.181 29.0542L-133.804 32.9367H-130.05L-129.427 29.0542H-126.665L-128.358 39.4981H-131.096L-130.381 35.0177H-134.135L-134.85 39.4981H-137.62L-135.896 29.0542H-133.15H-133.181ZM-122.242 29.0542H-125.127L-126.858 39.4981H-124.027L-123.257 34.9866L-120.334 39.5291H-116.665L-120.511 34.0238L-115.357 29.0853H-118.819L-122.965 33.387L-122.242 29.0542ZM-141.858 35.5845L-142.458 32.2456L-144.189 35.5845H-141.858ZM-141.443 37.6578H-145.351L-146.389 39.467H-149.405L-143.504 29.0231H-140.427L-138.043 39.467H-141.051L-141.443 37.6578ZM-148.866 36.33C-148.948 37.0317 -149.237 37.6921 -149.697 38.2246C-150.797 39.366 -152.466 39.4282 -153.543 39.4592H-157.69L-155.897 29.0542H-148.835L-149.166 31.0964H-153.451L-153.782 33.1696H-152.559C-151.516 33.0962 -150.481 33.3958 -149.635 34.016C-149.318 34.3033 -149.08 34.6693 -148.945 35.0778C-148.81 35.4863 -148.783 35.9232 -148.866 36.3455V36.33ZM-153.336 35.1186H-154.105L-154.49 37.3472H-153.774C-152.166 37.3472 -151.836 36.8968 -151.743 36.2911C-151.651 35.6855 -151.743 35.1186 -153.351 35.1186H-153.336ZM-81.8094 19.3791H-78.9478C-79.0132 19.0567 -79.1901 18.7681 -79.4463 18.5648C-79.7025 18.3614 -80.0217 18.2565 -80.3478 18.2687C-80.6855 18.2339 -81.0233 18.3289 -81.2941 18.5348C-81.5648 18.7406 -81.7495 19.0422 -81.8094 19.3791ZM-76.663 20.5671V20.8389H-81.8479C-81.8726 21.0489 -81.8502 21.2618 -81.781 21.4615C-81.7125 21.6613 -81.6002 21.8428 -81.4517 21.9923C-81.3041 22.1418 -81.124 22.2554 -80.9263 22.3246C-80.7286 22.3939 -80.5171 22.4169 -80.3094 22.3919C-80.0724 22.4122 -79.8348 22.3601 -79.6278 22.2424C-79.4209 22.1247 -79.2532 21.9468 -79.1478 21.7319H-76.7631C-77.1477 23.4168 -78.7016 24.17 -80.2786 24.17C-82.5864 24.17 -84.3019 22.85 -84.3019 20.3808C-84.3311 19.8674 -84.2511 19.3537 -84.0665 18.8743C-83.8826 18.3949 -83.598 17.961 -83.2341 17.6018C-82.8695 17.2426 -82.4326 16.9666 -81.9533 16.7923C-81.4741 16.618 -80.9633 16.5495 -80.4556 16.5915C-78.04 16.5915 -76.6708 18.1445 -76.6708 20.5671H-76.663ZM-145.051 18.6725C-145.262 18.6617 -145.474 18.6952 -145.672 18.7708C-145.871 18.8466 -146.051 18.9627 -146.203 19.1122C-146.355 19.2617 -146.474 19.4411 -146.554 19.6394C-146.633 19.8377 -146.672 20.0504 -146.666 20.2643C-146.671 20.4748 -146.634 20.6841 -146.557 20.8797C-146.48 21.0753 -146.364 21.2528 -146.216 21.4018C-146.069 21.5506 -145.893 21.6677 -145.699 21.7458C-145.505 21.8239 -145.298 21.8615 -145.089 21.8561C-144.879 21.8698 -144.667 21.838 -144.47 21.7628C-144.272 21.6877 -144.093 21.5709 -143.944 21.4202C-143.795 21.2696 -143.679 21.0886 -143.605 20.8893C-143.53 20.69 -143.499 20.4769 -143.512 20.2643C-143.507 20.0538 -143.544 19.8444 -143.621 19.6488C-143.699 19.4533 -143.815 19.2757 -143.962 19.1268C-144.11 18.9779 -144.286 18.8608 -144.479 18.7828C-144.673 18.7047 -144.881 18.6671 -145.089 18.6725H-145.051ZM-141.127 16.7157V23.8206H-143.589V23.0441C-143.822 23.3793 -144.135 23.6493 -144.5 23.8286C-144.865 24.0079 -145.269 24.0907 -145.674 24.0691C-146.151 24.0573 -146.621 23.9491 -147.056 23.7511C-147.491 23.553 -147.883 23.2691 -148.208 22.916C-148.532 22.5629 -148.784 22.1477 -148.947 21.695C-149.11 21.2422 -149.182 20.761 -149.159 20.2798C-149.184 19.8002 -149.115 19.3203 -148.954 18.8682C-148.794 18.4161 -148.545 18.001 -148.224 17.6472C-147.902 17.2934 -147.513 17.0081 -147.081 16.8082C-146.648 16.6082 -146.18 16.4976 -145.705 16.4828C-145.307 16.4734 -144.912 16.5511 -144.546 16.7106C-144.181 16.8701 -143.855 17.1076 -143.589 17.4068V16.7157H-141.127ZM-105.087 18.6725C-105.296 18.6671 -105.504 18.7047 -105.697 18.7828C-105.89 18.8608 -106.067 18.9779 -106.214 19.1268C-106.362 19.2757 -106.477 19.4533 -106.555 19.6488C-106.633 19.8444 -106.67 20.0538 -106.664 20.2643C-106.67 20.4748 -106.633 20.6841 -106.555 20.8797C-106.477 21.0753 -106.362 21.2528 -106.214 21.4018C-106.067 21.5506 -105.89 21.6677 -105.697 21.7458C-105.504 21.8239 -105.296 21.8615 -105.087 21.8561C-104.877 21.8698 -104.666 21.838 -104.468 21.7628C-104.27 21.6877 -104.091 21.5709 -103.942 21.4202C-103.793 21.2696 -103.677 21.0886 -103.603 20.8893C-103.528 20.69 -103.497 20.4769 -103.51 20.2643C-103.505 20.0538 -103.542 19.8444 -103.62 19.6488C-103.697 19.4533 -103.813 19.2757 -103.96 19.1268C-104.108 18.9779 -104.284 18.8608 -104.477 18.7828C-104.671 18.7047 -104.879 18.6671 -105.087 18.6725ZM-101.149 16.7157V23.8206H-103.587V23.0441C-103.82 23.3793 -104.134 23.6493 -104.498 23.8286C-104.863 24.0079 -105.267 24.0907 -105.672 24.0691C-106.149 24.0573 -106.619 23.9491 -107.054 23.7511C-107.49 23.553 -107.881 23.2691 -108.206 22.916C-108.531 22.5629 -108.782 22.1477 -108.945 21.695C-109.108 21.2422 -109.181 20.761 -109.157 20.2798C-109.181 19.8002 -109.111 19.3205 -108.95 18.8688C-108.788 18.4171 -108.539 18.0025 -108.216 17.6495C-107.894 17.2964 -107.504 17.0121 -107.071 16.8131C-106.639 16.614 -106.171 16.5043 -105.695 16.4905C-105.291 16.4775 -104.89 16.5543 -104.519 16.7153C-104.148 16.8763 -103.817 17.1177 -103.549 17.4223V16.7157H-101.149ZM-157.305 23.8206V13.3768H-153.128C-150.328 13.3768 -149.52 15.3957 -149.52 16.8089C-149.501 17.2844 -149.582 17.7586 -149.759 18.1997C-149.936 18.6409 -150.204 19.0387 -150.546 19.3667C-150.887 19.6946 -151.294 19.9451 -151.74 20.1012C-152.185 20.2574 -152.658 20.3156 -153.128 20.272H-154.667V23.8206H-157.305ZM-154.651 15.6364V18.0357H-153.759C-152.536 18.0357 -152.42 17.2592 -152.42 16.8632C-152.42 16.4672 -152.597 15.6907 -153.759 15.6907H-154.528L-154.62 15.6364H-154.651ZM-139.566 16.7235V23.8284H-137.181L-134.735 19.9459V23.8284H-132.258V16.7157H-134.643L-137.089 20.5361V16.7157L-139.566 16.7235ZM-135.72 15.8227C-135.139 15.8699 -134.559 15.7347 -134.057 15.4359C-133.556 15.137 -133.159 14.689 -132.919 14.1533L-134.527 13.5476C-134.587 13.8082 -134.737 14.0389 -134.949 14.1982C-135.162 14.3576 -135.424 14.4352 -135.689 14.4173C-135.954 14.4385 -136.217 14.3621 -136.431 14.2022C-136.645 14.0423 -136.794 13.8098 -136.85 13.5476L-138.458 14.1533C-138.216 14.6788 -137.821 15.118 -137.327 15.4131C-136.833 15.7084 -136.262 15.8457 -135.689 15.8072L-135.72 15.8227ZM-127.165 26.9111V23.9371C-128.627 23.9371 -131.073 23.3314 -131.073 20.2643C-131.073 17.1971 -128.658 16.6225 -127.165 16.6225V13.5165H-124.688V16.6225C-123.196 16.6225 -120.842 17.2282 -120.842 20.2643C-120.842 23.3004 -123.257 23.9371 -124.688 23.9371V26.9499L-127.165 26.9111ZM-124.857 18.3696V22.3142C-124.019 22.3142 -123.188 21.7086 -123.188 20.3264C-123.188 18.9442 -124.027 18.3386 -124.857 18.3696ZM-127.004 18.3696C-127.842 18.3696 -128.673 18.9753 -128.673 20.3575C-128.673 21.7396 -127.835 22.3142 -127.004 22.2832V18.3696ZM-116.065 23.9371C-117.526 23.9371 -119.973 23.3314 -119.973 20.2643C-119.973 17.1971 -117.557 16.6225 -116.065 16.6225V13.5165H-113.588V16.6225C-112.095 16.6225 -109.68 17.2282 -109.68 20.2643C-109.68 23.3004 -112.095 23.9371 -113.588 23.9371V26.9499H-116.065V23.9371ZM-113.757 18.4007V22.3453C-112.919 22.3453 -112.088 21.7396 -112.088 20.3575C-112.088 18.9753 -112.926 18.3696 -113.757 18.4007ZM-115.934 22.2832V18.4007C-116.773 18.4007 -117.634 19.0064 -117.634 20.3885C-117.657 20.6313 -117.629 20.876 -117.551 21.1069C-117.474 21.3379 -117.349 21.5497 -117.185 21.7285C-117.021 21.9073 -116.821 22.0492 -116.599 22.1448C-116.376 22.2404 -116.137 22.2875 -115.896 22.2832H-115.934ZM-99.5333 16.7157V23.8206H-97.1486L-94.7023 19.9382V23.8206H-92.2253V16.7157H-94.61L-97.087 20.505V16.7157H-99.5333ZM-95.687 15.815C-95.1162 15.8512 -94.5485 15.7118 -94.0577 15.4151C-93.5677 15.1184 -93.1776 14.6784 -92.9407 14.1533L-94.5485 13.5476C-94.6085 13.8082 -94.7577 14.0389 -94.9708 14.1982C-95.1839 14.3576 -95.4454 14.4352 -95.71 14.4173C-95.9754 14.4419 -96.2408 14.3668 -96.4555 14.2064C-96.6693 14.0459 -96.8178 13.8114 -96.8716 13.5476L-98.4871 14.1533C-98.2448 14.6788 -97.8502 15.118 -97.3563 15.4131C-96.8616 15.7084 -96.2908 15.8457 -95.7178 15.8072L-95.687 15.815ZM-90.379 18.7579C-89.8444 18.3841 -89.2136 18.1738 -88.5636 18.1522C-88.2635 18.1522 -87.5789 18.2143 -87.5789 18.7812C-87.5789 19.348 -88.179 19.3868 -88.4097 19.3868H-89.6329V20.9398H-88.5559C-88.1944 20.9398 -87.5405 20.9398 -87.5405 21.5455C-87.5405 21.7862 -87.6866 22.2366 -88.5559 22.2366C-89.3105 22.2348 -90.0475 22.0049 -90.6714 21.5766L-91.2791 23.2771C-90.3175 23.8343 -89.226 24.1237 -88.1174 24.1157C-85.2866 24.1157 -84.925 22.4618 -84.925 21.9182C-84.9219 21.5036 -85.0634 21.1013 -85.325 20.7817C-85.5873 20.4621 -85.9519 20.246 -86.3558 20.1711C-86.0427 20.029 -85.7789 19.7956 -85.5974 19.5008C-85.4166 19.2062 -85.3273 18.8636 -85.3404 18.5172C-85.3404 16.8632 -87.0712 16.5293 -88.1405 16.5293C-89.1428 16.5481 -90.129 16.7837 -91.0329 17.2204L-90.379 18.7579ZM-75.4169 23.8129H-72.9398V20.9864H-70.6705V23.8129H-68.2012V16.7157H-70.6782V19.216H-72.9475V16.7157H-75.4246L-75.4169 23.8129Z" fill="white"/>
<path d="M-161.59 39.467H-187.437V13.3768H-161.59V39.467ZM-162.428 14.2464H-186.576V38.6206H-162.428V14.2464Z" fill="white"/>
<path d="M-174.498 29.4114L-181.921 36.9046L-184.875 33.9229L-177.437 26.4375L-178.975 24.8845V21.7785L-180.052 20.6914V23.3703L-180.975 24.3021L-184.76 20.5439L-185.683 21.4757C-185.678 20.6408 -185.51 19.8153 -185.188 19.0464C-184.865 18.2775 -184.396 17.5804 -183.806 16.9953C-183.237 16.3513 -182.44 15.9588 -181.587 15.9021C-180.733 15.8455 -179.892 16.1293 -179.244 16.6924L-175.49 20.5128L-176.444 21.4757L-174.498 23.4712L-172.529 21.4834L-173.483 20.5206L-169.744 16.6847C-169.097 16.1196 -168.255 15.8346 -167.402 15.8913C-166.548 15.9479 -165.75 16.3418 -165.182 16.9875C-164.592 17.5727 -164.123 18.2697 -163.801 19.0386C-163.479 19.8075 -163.31 20.6331 -163.305 21.4679L-164.228 20.5361L-168.013 24.3254L-168.936 23.3936V20.6914L-170.006 21.7785V24.8845L-171.544 26.4375L-164.121 33.9306L-167.075 36.9046L-174.498 29.4114Z" fill="white"/>
</svg>
