<svg width="123" height="53" viewBox="0 0 123 53" fill="none" xmlns="http://www.w3.org/2000/svg">
<path d="M-238.367 46.4707H-209.304V52.5973H-238.367V46.4707ZM-229.722 32.0111H-218.258L-216.324 38.1713H-209.967L-218.546 12.2761C-219.375 9.78957 -220.336 7.79591 -223.62 7.79591C-226.903 7.79591 -227.909 9.75597 -228.771 12.2761L-237.748 38.1601H-231.789L-229.722 32.0111ZM-223.907 14.5161H-223.764L-219.905 26.8365H-227.975L-223.907 14.5161Z" fill="white"/>
<path d="M-52.5754 31.1702L-46.7333 24.6395H-51.0872L-55.8749 30.0674V24.6395H-59.3445V38.3643H-55.8579V32.5832L-50.7386 38.3643H-46.2656L-52.5754 31.1702ZM-166.008 32.0748C-166.102 34.6595 -166.425 35.1506 -167.836 35.1506V38.3729H-167.309C-163.763 38.3729 -162.921 36.5205 -162.794 32.3936L-162.641 27.8273H-159.367V38.3643H-155.897V24.6395H-165.77L-166.008 32.0748ZM-181.068 34.4355H-173.755L-172.539 38.3643H-168.483L-173.951 21.8567C-174.478 20.2628 -175.09 18.9963 -177.182 18.9963C-179.274 18.9963 -179.912 20.2628 -180.473 21.8567L-186.205 38.3643H-182.395L-181.068 34.4355ZM-177.361 23.3041H-177.267L-174.818 31.1271H-179.971L-177.361 23.3041ZM-96.3107 26.5867H-100.18V22.7096H-91.1998V19.2634H-103.82V38.3643H-96.3107C-92.1523 38.3643 -89.7627 36.262 -89.7627 32.4195C-89.7627 28.775 -92.1863 26.5867 -96.3107 26.5867ZM-96.4892 34.9094H-100.18V29.9468H-96.4892C-94.5674 29.9468 -93.4874 30.8083 -93.4874 32.4281C-93.4874 34.0478 -94.5674 34.9094 -96.4892 34.9094ZM-130.802 24.3207V19.2375H-134.263V24.3207C-136.081 24.3815 -137.8 25.1705 -139.044 26.5145C-140.287 27.8585 -140.954 29.6476 -140.896 31.489C-140.958 33.3341 -140.294 35.1286 -139.05 36.4777C-137.806 37.8269 -136.084 38.6201 -134.263 38.683V43.8524H-130.794V38.683C-129.892 38.653 -129.004 38.443 -128.182 38.0649C-127.36 37.687 -126.62 37.1484 -126.004 36.4802C-125.388 35.8119 -124.908 35.0271 -124.592 34.1706C-124.275 33.3141 -124.129 32.4028 -124.161 31.489C-124.124 30.5745 -124.268 29.6618 -124.584 28.8043C-124.899 27.9467 -125.38 27.1614 -125.998 26.4941C-126.616 25.8269 -127.36 25.291 -128.184 24.9179C-129.009 24.5448 -129.899 24.3418 -130.802 24.3207ZM-134.255 35.366C-135.173 35.2638 -136.015 34.8 -136.599 34.0748C-137.183 33.3495 -137.462 32.4208 -137.376 31.489C-137.451 30.5594 -137.167 29.6366 -136.586 28.9139C-136.004 28.1912 -135.169 27.7246 -134.255 27.6119V35.366ZM-130.785 35.366V27.6119C-129.871 27.7246 -129.036 28.1912 -128.454 28.9139C-127.873 29.6366 -127.589 30.5594 -127.664 31.489C-127.583 32.4199 -127.864 33.3462 -128.447 34.0705C-129.03 34.7947 -129.869 35.2596 -130.785 35.366ZM-111.158 34.1512V29.5246C-111.158 26.1473 -113.276 24.0364 -116.83 24.0364C-120.385 24.0364 -122.46 26.2765 -122.63 28.6113H-119.118C-118.999 28.1116 -118.472 27.2242 -116.839 27.2242C-116.534 27.1844 -116.224 27.217 -115.934 27.3195C-115.643 27.422 -115.381 27.5915 -115.166 27.8147C-114.952 28.0379 -114.791 28.3086 -114.698 28.6053C-114.604 28.9021 -114.58 29.2168 -114.628 29.5246H-118.029C-121.108 29.5246 -122.936 31.1702 -122.936 33.8927C-122.96 34.5424 -122.849 35.19 -122.611 35.7935C-122.372 36.397 -122.011 36.943 -121.551 37.3962C-121.091 37.8494 -120.542 38.1996 -119.94 38.4243C-119.337 38.6489 -118.695 38.7429 -118.055 38.7003C-117.332 38.7388 -116.611 38.5962 -115.955 38.2852C-115.3 37.9741 -114.73 37.5042 -114.296 36.9168C-114.014 37.4006 -113.602 37.7933 -113.108 38.0494C-112.615 38.3057 -112.06 38.4148 -111.507 38.3643H-110.308V35.1937C-110.895 35.1937 -111.158 34.9094 -111.158 34.1512ZM-114.628 33.2896C-114.613 33.629 -114.67 33.9676 -114.795 34.283C-114.92 34.5984 -115.108 34.8836 -115.349 35.1197C-115.591 35.3558 -115.878 35.5374 -116.193 35.6527C-116.509 35.7678 -116.845 35.814 -117.179 35.7882C-118.429 35.7882 -119.416 35.3315 -119.416 33.9617C-119.416 32.5918 -118.319 32.3936 -117.392 32.3936H-114.628V33.2896ZM-147.257 28.8095H-149.749V24.6395H-153.218V38.3643H-147.198C-143.43 38.3643 -142.095 35.8829 -142.095 33.5395C-142.078 30.5154 -143.949 28.8095 -147.257 28.8095ZM-147.512 35.366H-149.749V31.9197H-147.512C-146.313 31.9197 -145.59 32.4711 -145.59 33.6429C-145.59 34.8146 -146.279 35.366 -147.512 35.366ZM-76.5222 34.1512V29.5246C-76.5222 26.1473 -78.6397 24.0364 -82.1943 24.0364C-85.7489 24.0364 -87.8238 26.2765 -87.9939 28.6113H-84.4818C-84.3628 28.1116 -83.8355 27.2242 -82.2028 27.2242C-81.8975 27.1844 -81.588 27.217 -81.298 27.3195C-81.0072 27.422 -80.7444 27.5915 -80.5301 27.8147C-80.3158 28.0379 -80.1551 28.3086 -80.0615 28.6053C-79.968 28.9021 -79.9442 29.2168 -79.9918 29.5246H-83.3933C-86.4717 29.5246 -88.3 31.1702 -88.3 33.8927C-88.3239 34.5424 -88.2133 35.19 -87.9743 35.7935C-87.7362 36.397 -87.3748 36.943 -86.9148 37.3962C-86.4547 37.8494 -85.9054 38.1996 -85.3033 38.4243C-84.7012 38.6489 -84.0592 38.7429 -83.4188 38.7003C-82.6892 38.746 -81.9596 38.607 -81.2954 38.2957C-80.6321 37.9843 -80.0556 37.5104 -79.6176 36.9168C-79.3396 37.3922 -78.9356 37.7794 -78.4518 38.0351C-77.9679 38.2908 -77.4236 38.4048 -76.8794 38.3643H-75.6803V35.1937C-76.2841 35.1937 -76.5222 34.9094 -76.5222 34.1512ZM-79.9748 33.2896C-79.962 33.6287 -80.0199 33.9666 -80.1449 34.2814C-80.2699 34.5962 -80.4587 34.8808 -80.6993 35.1166C-80.94 35.3523 -81.2274 35.534 -81.5421 35.6498C-81.8567 35.7655 -82.1917 35.8126 -82.5259 35.7882C-83.776 35.7882 -84.7625 35.3315 -84.7625 33.9617C-84.7625 32.5918 -83.6655 32.3936 -82.7385 32.3936H-79.9748V33.2896ZM-65.4417 29.7486H-70.2294V24.6395H-73.699V38.3729H-70.2294V32.9622H-65.4417V38.3643H-61.9722V24.6395H-65.4417V29.7486Z" fill="white"/>
<path d="M10.1586 31.7702C10.1586 31.7702 11.9682 34.2989 15.1681 34.2989C16.9777 34.2989 18.5934 33.401 18.5934 31.6364C18.5934 27.9755 9.48003 28.6411 9.48003 23.2489C9.48003 20.2196 12.0006 18.722 15.265 18.722C16.9131 18.722 20.2091 19.3876 20.2091 21.7512V23.1823H18.141V22.3836C18.141 21.1522 16.396 20.6862 15.3296 20.6862C13.0676 20.6862 11.7104 21.485 11.7104 23.1157C11.7104 26.8772 20.8238 26.0119 20.8238 31.5698C20.8238 34.3654 18.3679 36.2631 15.1357 36.2631C10.9019 36.2631 8.89835 33.3337 8.89835 33.3337L10.1586 31.7702ZM24.8934 15.1616C24.8934 14.6956 24.6349 14.4294 24.1825 14.4294H22.8253V12.4651H25.1196C26.5091 12.4651 27.0915 12.9643 27.0915 14.3954V25.5127H28.7718C29.3858 25.5127 30.1614 25.313 30.6138 24.7139L34.7823 19.1227H37.4645L32.7782 25.2471C31.9703 26.2788 31.5502 26.4459 31.5502 26.4459V26.5125C31.5502 26.5125 32.0349 26.7455 32.552 27.7439L35.4933 33.1694C35.7841 33.7345 36.1072 33.9016 36.9797 33.9016H37.8522V35.8651H36.3334C34.7177 35.8651 34.2653 35.5989 33.5221 34.2011L30.2899 28.2098C29.9345 27.5442 29.1589 27.4776 28.5773 27.4776H27.0908V35.8651H24.8928L24.8934 15.1616ZM41.6331 40.8226C43.0549 40.8226 44.0243 39.6245 44.6383 38.0929L45.6078 35.7965L39.8874 21.8511C39.6288 21.252 39.338 21.0856 38.7563 21.0856H38.4332V19.122H39.435C40.8891 19.122 41.3415 19.4548 41.9232 20.9525L46.0918 31.4034C46.4149 32.2354 46.6735 33.2006 46.6735 33.2006H46.7381C46.7381 33.2006 46.9643 32.2354 47.2874 31.4034L51.2944 20.9525C51.8438 19.4548 52.3285 19.122 53.8156 19.122H54.8174V21.0856H54.4942C53.9126 21.0856 53.5894 21.252 53.3633 21.8511L46.3503 39.3583C45.5095 41.4883 43.8621 42.8535 41.6963 42.8535C39.4343 42.8535 38.1733 41.222 38.1733 41.222L39.2074 39.558C39.2088 39.5919 40.2429 40.8226 41.6331 40.8226ZM64.738 18.4897C69.4559 18.4897 72.0417 22.0507 72.0417 26.5444C72.0417 27.0436 71.9441 28.1086 71.9441 28.1086H60.5687C60.8919 31.1046 63.0246 32.6688 65.5128 32.6688C68.1633 32.6688 70.1345 30.7718 70.1345 30.7718L71.8472 33.7012C71.8472 33.7012 69.3267 36.2638 65.222 36.2638C59.7602 36.2638 56.3672 32.2035 56.3672 27.3771C56.3672 22.1506 59.7932 18.4897 64.738 18.4897ZM67.8395 25.1799C67.7749 23.1497 66.4183 21.7519 64.738 21.7519C62.6368 21.7519 61.1504 23.0499 60.698 25.1799H67.8395ZM76.0144 23.2156C76.0144 22.7164 75.7559 22.4834 75.3035 22.4834H74.0103V18.8891H77.7917C79.2459 18.8891 79.9568 19.588 79.9568 20.7861V21.2853C79.9568 21.6514 79.8922 22.0175 79.8922 22.0175H79.9568C80.6677 20.5864 82.445 18.4897 85.7741 18.4897C89.4263 18.4897 91.5268 20.4533 91.5268 24.9469V31.5705C91.5268 32.0364 91.7853 32.3034 92.2377 32.3034H93.5309V35.8645H89.6202C88.0684 35.8645 87.4221 35.1988 87.4221 33.6007V25.8122C87.4221 23.7481 86.9051 22.3503 84.837 22.3503C82.6389 22.3503 80.9909 23.7814 80.4092 25.8122C80.183 26.5111 80.0867 27.2766 80.0867 28.0753V35.8638H76.0144V23.2156ZM102.448 18.4897C106.262 18.4897 107.522 20.8859 107.522 20.8859H107.587V20.4533C107.587 19.6878 108.105 18.8891 109.397 18.8891H113.21V22.4834H111.95C111.53 22.4834 111.239 22.7164 111.239 23.149V34.8314C111.239 40.6555 106.844 42.8528 102.545 42.8528C100.477 42.8528 98.2792 42.2537 96.6958 41.3884L97.9567 38.0596C97.9567 38.0596 99.9919 39.1919 102.514 39.1919C105.002 39.1919 107.167 38.0929 107.167 35.031V34.2323C107.167 33.8329 107.199 33.3337 107.199 33.3337H107.135C106.165 34.7648 104.743 35.5309 102.546 35.5309C97.8275 35.5309 95.1454 31.6031 95.1454 26.9431C95.1454 22.283 97.6975 18.4897 102.448 18.4897ZM107.264 26.977C107.264 23.1157 105.39 22.084 103.159 22.084C100.671 22.084 99.3133 23.9478 99.3133 26.8099C99.3133 29.7726 100.767 31.9692 103.418 31.9692C105.39 31.9699 107.264 30.8043 107.264 26.977Z" fill="white"/>
<path d="M509.093 31.1247L514.808 37.7054H511.093L506.675 32.6342V37.7054H503.596V25.4344H506.675V29.8866L511.017 25.4344H514.657L509.093 31.1247ZM417.035 28.7502C419.277 28.7502 420.306 27.6647 420.306 26.028C420.306 24.3913 419.277 23.3059 417.035 23.3059H412.592V28.7502H417.035ZM417.135 20.3802C420.992 20.3802 423.536 22.3815 423.536 26.0196C423.536 29.6576 420.992 31.6589 417.135 31.6589H412.592V37.6969H409.371V20.3802H417.135ZM430.806 35.1358C432.614 35.1358 434.295 33.8214 434.295 31.5741C434.295 29.3269 432.614 28.0124 430.806 28.0124C428.999 28.0124 427.318 29.3269 427.318 31.5741C427.318 33.8214 428.999 35.1358 430.806 35.1358ZM430.806 25.0867C434.128 25.0867 437.424 27.2662 437.424 31.5741C437.424 35.8821 434.128 38.0615 430.806 38.0615C427.485 38.0615 424.188 35.8821 424.188 31.5741C424.188 27.2662 427.485 25.0867 430.806 25.0867ZM445.281 35.1358C443.423 35.1358 442.06 33.779 442.06 31.5741C442.06 29.3947 443.474 28.0124 445.281 28.0124C446.377 28.0124 447.331 28.5297 448.092 29.6915L450.727 28.1566C449.849 26.2485 447.941 25.0867 445.306 25.0867C441.867 25.0867 438.93 27.6647 438.93 31.5741C438.93 35.4835 441.716 38.0615 445.306 38.0615C447.891 38.0615 449.623 36.8743 450.845 34.7712L448.301 33.3635C447.573 34.3896 446.795 35.1358 445.281 35.1358ZM478.036 32.3882C477.886 34.2709 477.526 34.6864 476.89 34.6864C476.455 34.6864 476.254 34.6355 475.953 34.5592L475.97 37.7393C475.97 37.7393 476.354 37.858 477.057 37.858C479.668 37.858 480.647 36.1535 480.889 32.5154L481.182 28.2329H484.646V37.6884H487.725V25.4344H478.547L478.036 32.3882ZM472.355 29.9374C472.062 28.4025 470.916 27.4612 469.209 27.4612C467.595 27.4612 466.373 28.5467 465.938 29.9374H472.355ZM469.31 25.0867C472.774 25.0867 475.217 27.6393 475.217 31.2264V32.3119H465.888C466.08 34.1945 467.402 35.3818 469.209 35.3818C470.849 35.3818 471.527 34.6609 472.288 33.7027L474.731 34.9408C473.51 37.0439 471.828 38.0615 469.167 38.0615C465.796 38.0615 462.943 35.4666 462.943 31.5741C462.934 27.6817 465.787 25.0867 469.31 25.0867ZM498.869 29.9374C498.576 28.4025 497.43 27.4612 495.723 27.4612C494.108 27.4612 492.887 28.5467 492.452 29.9374H498.869ZM495.824 25.0867C499.287 25.0867 501.73 27.6393 501.73 31.2264V32.3119H492.402C492.594 34.1945 493.916 35.3818 495.723 35.3818C497.363 35.3818 498.041 34.6609 498.802 33.7027L501.245 34.9408C500.024 37.0439 498.342 38.0615 495.681 38.0615C492.31 38.0615 489.457 35.4666 489.457 31.5741C489.448 27.6817 492.301 25.0867 495.824 25.0867ZM451.798 28.1566H455.413V37.7054H458.492V28.1566H462.106V25.4344H451.798V28.1566ZM520.915 35.1358C522.722 35.1358 524.404 33.8214 524.404 31.5741C524.404 29.3269 522.722 28.0124 520.915 28.0124C519.108 28.0124 517.426 29.3269 517.426 31.5741C517.426 33.8214 519.108 35.1358 520.915 35.1358ZM520.915 25.0867C524.237 25.0867 527.533 27.2662 527.533 31.5741C527.533 35.8821 524.237 38.0615 520.915 38.0615C517.594 38.0615 514.297 35.8821 514.297 31.5741C514.297 27.2662 517.594 25.0867 520.915 25.0867ZM539.774 25.4259L536.435 34.0249L533.097 25.4259H529.073V37.6799H531.993V29.9205L535.231 37.6799H537.615L540.853 29.9205V37.6799H543.781V25.4259H539.774Z" fill="white"/>
<path d="M399.515 42.997H382.447C381.217 42.997 380.49 41.8776 380.49 40.9024C380.49 40.3257 380.724 39.7999 381.092 39.4268L388.538 31.8794L399.515 42.997Z" fill="white"/>
<path d="M382.446 42.997C381.158 42.997 379.543 41.9539 379.543 39.8763V16.6149C379.543 13.4687 379.384 11.2639 381.601 9.0166L389.909 0.595703L404.643 15.5549L381.091 39.4268C380.714 39.8084 380.489 40.3257 380.489 40.9024C380.489 41.8776 381.216 42.997 382.446 42.997Z" fill="white"/>
<path d="M642.314 37.8822C641.259 37.8822 640.48 37.0146 640.48 36.0556C640.48 35.0054 641.351 34.2291 642.314 34.2291C643.369 34.2291 644.149 35.0967 644.149 36.0556C644.149 37.0146 643.369 37.8822 642.314 37.8822ZM637.957 37.8822C636.902 37.8822 636.122 37.0146 636.122 36.0556C636.122 35.0054 636.994 34.2291 637.957 34.2291C639.012 34.2291 639.792 35.0967 639.792 36.0556C639.792 37.0146 639.012 37.8822 637.957 37.8822ZM633.6 37.8822C632.545 37.8822 631.766 37.0146 631.766 36.0556C631.766 35.0054 632.637 34.2291 633.6 34.2291C634.655 34.2291 635.435 35.0967 635.435 36.0556C635.526 37.0146 634.609 37.8822 633.6 37.8822ZM633.921 15.0961V30.3477C633.921 31.0327 633.417 31.5806 632.683 31.5806H630.848C630.756 31.5806 630.665 31.6719 630.665 31.7633V44.549C631.123 44.549 631.536 44.6403 632.086 44.6403C640.296 44.6403 646.946 38.0192 646.946 29.8454C646.946 22.2196 641.259 15.9637 633.921 15.0961Z" fill="white"/>
<path d="M629.197 27.1981C628.142 27.1981 627.362 26.3305 627.362 25.3715C627.362 24.3213 628.234 23.545 629.197 23.545C630.252 23.545 631.032 24.4126 631.032 25.3715C631.032 26.3305 630.252 27.1981 629.197 27.1981ZM632.086 15.0059C623.877 15.0059 617.227 21.6271 617.227 29.8009C617.227 36.9244 622.226 42.8606 628.968 44.2762V30.9425C628.968 30.3489 629.472 29.8009 630.114 29.7096H631.949C632.041 29.7096 632.132 29.6182 632.132 29.5269V15.0059H632.086Z" fill="white"/>
<path d="M713.358 31.8089L715.651 26.4206C715.742 26.238 715.834 26.238 715.926 26.238C716.018 26.238 716.201 26.238 716.201 26.4206L718.494 31.8089H713.358ZM719.045 24.7311C718.448 23.4069 717.21 22.7219 715.972 22.7219C714.733 22.7219 713.541 23.4069 712.899 24.7311L706.845 37.8822H710.789L712.119 34.7314H719.824L721.154 37.8822H725.099L719.045 24.7311Z" fill="white"/>
<path d="M759.359 22.9046C764.955 22.9046 767.248 25.3248 767.248 30.4847C767.248 35.5534 764.955 37.9735 759.267 38.0649H758.029C752.434 38.0649 750.141 35.5534 750.141 30.4847C750.141 25.3248 752.434 22.9046 758.029 22.9046H759.359ZM674.786 20.3931C673.043 20.3931 671.896 21.352 671.117 23.1786L666.301 34.3205L661.485 23.1786C660.706 21.352 659.559 20.3931 657.816 20.3931C656.165 20.3931 654.514 21.5347 654.514 24.0462V37.7909H658.183V24.4572L663.045 35.5534C663.641 37.1059 664.787 38.0649 666.301 38.0649C667.86 38.0649 668.915 37.1059 669.557 35.5534L674.465 24.5028V37.9279H678.134V24.1832C678.088 21.626 676.437 20.3931 674.786 20.3931ZM773.439 28.6582H780.961V23.0873H784.63V37.8822H780.961V31.8546H773.439V37.8822H769.679V23.0873H773.439V28.6582ZM709.597 23.0873V26.238H700.424C700.24 26.238 700.057 26.4207 700.057 26.6033V37.8365H696.388V25.2791C696.388 24.1375 697.259 23.0873 698.589 23.0873H709.597ZM739.867 20.7584C745.279 20.7584 747.572 23.5439 747.664 28.3386C747.664 29.1148 747.572 29.7998 747.48 30.4391C746.884 33.8182 744.866 35.9187 739.683 35.9187H738.124V37.8365H734.455V35.9187H732.758C727.575 35.9187 725.603 33.8182 724.961 30.4391C724.869 29.8454 724.778 29.1148 724.778 28.3386C724.778 23.5439 726.979 20.7584 732.483 20.7584H739.867ZM693.865 22.9959V26.1467H684.692C684.509 26.1467 684.326 26.3294 684.326 26.512V28.7952H693.59V31.8546H684.326V34.4574C684.326 34.6401 684.509 34.8228 684.692 34.8228V34.6401H693.865V37.7909H682.858C681.62 37.7909 680.656 36.7406 680.656 35.599V25.2334C680.656 24.0919 681.528 23.0416 682.858 23.0416L693.865 22.9959ZM759.267 34.9597C762.432 34.9597 763.533 33.5442 763.533 30.5304C763.533 27.5623 762.386 26.101 759.267 26.101H758.029C754.773 26.101 753.764 27.5623 753.764 30.5304C753.764 33.5898 755.002 34.9597 758.029 34.9597H759.267ZM739.775 32.9506C742.206 32.9506 743.169 31.9916 743.719 30.5304C743.903 29.9368 743.903 29.2062 743.995 28.3386C743.995 25.1878 742.527 23.9092 740.417 23.9092H738.124V32.9506H739.775ZM734.317 32.8592V23.8635H732.024C729.914 23.8635 728.447 25.1878 728.447 28.2929C728.447 29.0692 728.447 29.8454 728.63 30.3934C729.135 31.8546 730.052 32.8136 732.575 32.8136H734.317V32.8592Z" fill="white"/>
<path d="M965.906 35.7911C975.82 30.5521 978.21 23.8949 975.154 22.0435C970.648 19.5224 958.304 24.0524 959.676 36.4608C959.049 36.8153 957.834 37.485 957.834 37.485L958.657 40.006C958.657 40.006 960.381 38.9819 960.851 38.6273C962.301 39.8091 963.046 40.4393 965.318 40.5181C970.099 40.6363 974.214 35.279 974.214 35.279L972.999 33.3882C972.999 33.4276 967.748 38.5092 965.906 35.7911ZM967.238 28.1886C968.649 25.6675 970.961 23.6979 972.097 24.4857C973.234 25.2736 970.961 29.2521 965.593 33.5064C965.358 33.1519 965.789 30.749 967.238 28.1886ZM876.053 40.5181C875.308 40.5181 874.25 40.2424 873.427 39.4152C871.037 36.9335 873.31 28.4643 873.78 26.6523C873.819 26.4947 873.702 26.3372 873.506 26.3372C873.388 26.3372 873.31 26.3765 873.271 26.4947C872.252 28.5037 866.805 40.5181 861.985 40.5181C861.907 40.5181 861.789 40.5181 861.711 40.5181C857.048 40.0848 857.675 33.6246 859.124 29.6854H866.648C866.021 31.3793 865.825 32.4429 865.865 32.9943C865.865 33.3882 866.217 33.5852 866.531 33.4276C867.314 33.0337 868.607 31.3399 869.705 29.3703C871.703 25.8645 874.328 20.5072 878.835 6.99588H887.064C884.635 14.5197 882.636 21.3344 881.578 29.0946C881.539 29.4885 881.97 29.8036 882.323 29.4885C884.674 27.2826 893.255 8.61093 893.804 6.99588H902.072C902.072 6.99588 893.882 29.8036 894.588 33.5852C894.666 34.0973 895.215 34.2549 895.646 33.7428C896.155 33.1519 896.939 32.1277 897.37 31.6156L898.663 32.9156C896.312 35.8305 892.511 41.109 888.671 40.4787C888.083 40.4 887.495 40.0454 887.064 39.6121C883.106 36.1457 888.631 24.5645 889.611 21.8465C889.807 21.2556 890.042 20.7042 890.16 20.3496C890.238 20.1921 890.081 19.9951 889.925 19.9951C889.807 19.9951 889.729 20.0345 889.689 20.1527C889.494 20.5466 888.984 21.6496 888.827 22.0435C886.319 27.0856 880.677 40.5181 876.053 40.5181ZM953.249 12.7077C949.566 12.7471 947.724 14.6772 947.724 14.6772L947.802 16.9226C947.802 16.9226 950.153 14.5985 952.779 15.5832C954.581 16.2529 956.384 18.577 955.13 23.6585C954.033 20.8223 949.761 20.1921 946.313 23.8949C943.57 26.8492 939.847 36.7365 945.333 39.8091C952.152 43.5907 958.108 32.5216 959.48 24.9584C960.42 20.1921 960.93 12.6289 953.249 12.7077ZM950.428 35.6336C949.683 36.1457 948.39 36.4214 948.155 34.0973C947.802 30.749 950.075 26.7311 950.82 25.8251C952.034 24.2494 953.719 24.0918 953.759 26.5341C953.759 29.2915 952.23 34.3336 950.428 35.6336ZM929.894 10.8563C925.936 9.47755 911.908 13.9288 907.284 29.5279C906.735 29.6854 904.031 30.3945 904.031 30.3945L902.856 33.5852L907.049 32.2853C907.049 32.2853 906.579 40.2818 913.593 40.5181C919.118 40.3212 922.057 32.2065 920.333 27.0068C919.98 27.1644 915.474 29.0946 915.474 29.0946C915.474 29.0946 916.375 34.373 914.416 35.5548C914.102 35.7517 913.71 35.7124 913.475 35.3578C912.887 34.57 912.535 32.4822 913.162 29.7642C923.272 24.4857 930.129 15.2287 930.56 11.9986C930.678 11.2108 930.012 10.8956 929.894 10.8563ZM917.355 24.6433C915.474 26.1008 914.024 26.8099 914.024 26.8099C914.024 26.8099 914.533 25.5887 914.964 24.8797C916.062 23.0677 921.273 16.0166 925.623 14.7166C925.78 14.6772 925.937 14.7954 925.897 14.953C925.858 16.4893 920.333 22.3586 917.355 24.6433ZM938.437 36.4214C939.103 35.9881 940.004 35.279 940.004 35.279L940.553 37.0123C940.239 37.3668 937.536 39.5333 935.851 40.3212C934.048 41.1878 932.363 40.0454 932.128 38.6667C931.854 37.0911 932.676 35.0427 932.676 35.0427C932.676 35.0427 929.777 38.3516 926.838 39.9666C926.015 40.4 925.388 40.5969 924.918 40.5969C922.958 40.5575 922.331 38.6273 922.527 37.6031C922.802 36.382 925.466 28.0704 925.819 26.7311C925.858 26.6129 925.701 26.4553 925.545 26.4947C924.722 26.7311 922.606 28.1098 922.606 28.1098V25.8251C922.606 25.8251 928.444 21.8465 930.012 21.3738C931.422 20.9799 932.677 21.7677 932.285 23.4222C932.128 24.5645 928.64 34.1367 928.405 35.279C928.366 35.5154 928.601 35.5154 928.679 35.5154C929.816 35.1609 931.893 33.3882 933.499 30.8278C934.988 28.4643 936.007 25.4311 937.261 21.6889H942.59C942.59 21.6889 938.554 34.1367 938.084 36.1851C938.084 36.382 938.319 36.5002 938.437 36.4214ZM981.11 40.5575C978.25 40.5575 976.917 38.1546 976.604 37.3668C973.351 29.2127 982.913 21.6496 982.913 21.6496H988.438C988.438 21.6496 980.013 28.4249 981.189 34.4124C981.972 37.3274 984.48 36.579 986.126 34.2549C988.125 31.4581 989.927 25.9432 988.556 25.8251C987.302 25.6675 985.617 28.4249 985.617 28.4249L984.441 26.6129C985.342 25.4311 987.929 22.3192 990.828 21.3738C991.259 21.2556 993.885 20.5466 993.885 24.407C993.885 28.6219 989.3 40.5969 981.11 40.5575ZM903.365 38.3122C903.365 39.5333 902.386 40.5181 901.171 40.5181C899.956 40.5181 898.976 39.5333 898.976 38.3122C898.976 37.0911 899.956 36.1063 901.171 36.1063C902.347 36.1063 903.365 37.0911 903.365 38.3122Z" fill="white"/>
<path d="M187.733 15.0658H211.88V39.4399H187.733V15.0658Z" fill="white"/>
<path d="M241.128 29.8735L240.505 33.756H244.259L244.882 29.8735H247.643L245.951 40.3174H243.212L243.928 35.837H240.174L239.458 40.3174H236.689L238.412 29.8735H241.158H241.128ZM252.067 29.8735H249.182L247.451 40.3174H250.282L251.051 35.806L253.974 40.3484H257.644L253.797 34.8431L258.952 29.9046H255.49L251.344 34.2064L252.067 29.8735ZM232.45 36.4039L231.85 33.0649L230.12 36.4039H232.45ZM232.866 38.4771H228.958L227.919 40.2863H224.904L230.804 29.8425H233.881L236.266 40.2863H233.258L232.866 38.4771ZM225.442 37.1493C225.361 37.851 225.071 38.5114 224.612 39.0439C223.512 40.1854 221.842 40.2475 220.765 40.2786H216.619L218.411 29.8735H225.473L225.142 31.9157H220.858L220.527 33.989H221.75C222.793 33.9155 223.828 34.2151 224.673 34.8353C224.991 35.1226 225.229 35.4886 225.364 35.8971C225.499 36.3056 225.526 36.7426 225.442 37.1648V37.1493ZM220.973 35.938H220.204L219.819 38.1665H220.534C222.142 38.1665 222.473 37.7161 222.565 37.1105C222.658 36.5048 222.565 35.938 220.958 35.938H220.973ZM292.499 20.1984H295.361C295.295 19.876 295.118 19.5874 294.862 19.3841C294.606 19.1807 294.287 19.0758 293.961 19.088C293.623 19.0532 293.285 19.1483 293.015 19.3541C292.744 19.56 292.559 19.8615 292.499 20.1984ZM297.646 21.3864V21.6582H292.461C292.436 21.8682 292.458 22.0811 292.528 22.2808C292.596 22.4806 292.708 22.6622 292.857 22.8116C293.005 22.9611 293.185 23.0748 293.382 23.144C293.58 23.2132 293.792 23.2362 293.999 23.2112C294.236 23.2316 294.474 23.1795 294.681 23.0617C294.888 22.944 295.055 22.7661 295.161 22.5512H297.546C297.161 24.2362 295.607 24.9894 294.03 24.9894C291.722 24.9894 290.007 23.6693 290.007 21.2001C289.977 20.6868 290.057 20.173 290.242 19.6936C290.426 19.2142 290.711 18.7803 291.074 18.4212C291.439 18.062 291.876 17.7859 292.355 17.6117C292.835 17.4374 293.345 17.3689 293.853 17.4108C296.269 17.4108 297.638 18.9638 297.638 21.3864H297.646ZM229.258 19.4918C229.046 19.481 228.835 19.5146 228.636 19.5902C228.438 19.6659 228.257 19.7821 228.106 19.9315C227.954 20.081 227.835 20.2605 227.755 20.4588C227.675 20.657 227.637 20.8697 227.642 21.0836C227.637 21.2941 227.674 21.5035 227.752 21.6991C227.829 21.8946 227.945 22.0722 228.093 22.2211C228.24 22.37 228.416 22.4871 228.61 22.5651C228.803 22.6432 229.011 22.6808 229.219 22.6754C229.43 22.6891 229.641 22.6573 229.839 22.5822C230.036 22.507 230.215 22.3902 230.365 22.2396C230.514 22.0889 230.63 21.9079 230.704 21.7086C230.779 21.5093 230.81 21.2962 230.796 21.0836C230.802 20.8731 230.764 20.6638 230.687 20.4682C230.61 20.2726 230.494 20.0951 230.346 19.9461C230.199 19.7973 230.023 19.6802 229.829 19.6021C229.635 19.524 229.428 19.4864 229.219 19.4918H229.258ZM233.181 17.535V24.64H230.72V23.8635C230.487 24.1987 230.173 24.4687 229.808 24.648C229.444 24.8273 229.04 24.91 228.635 24.8884C228.158 24.8766 227.688 24.7685 227.252 24.5705C226.817 24.3724 226.426 24.0884 226.101 23.7353C225.776 23.3822 225.525 22.967 225.362 22.5143C225.198 22.0615 225.126 21.5803 225.15 21.0991C225.124 20.6196 225.194 20.1396 225.354 19.6876C225.515 19.2354 225.763 18.8203 226.085 18.4665C226.407 18.1127 226.795 17.8275 227.228 17.6275C227.661 17.4276 228.128 17.3169 228.604 17.3021C229.002 17.2927 229.397 17.3704 229.762 17.5299C230.127 17.6895 230.454 17.9269 230.72 18.2261V17.535H233.181ZM269.221 19.4918C269.013 19.4864 268.805 19.524 268.611 19.6021C268.418 19.6802 268.242 19.7973 268.094 19.9461C267.947 20.0951 267.831 20.2726 267.753 20.4682C267.676 20.6638 267.639 20.8731 267.644 21.0836C267.639 21.2941 267.676 21.5035 267.753 21.6991C267.831 21.8946 267.947 22.0722 268.094 22.2211C268.242 22.37 268.418 22.4871 268.611 22.5651C268.805 22.6432 269.013 22.6808 269.221 22.6754C269.432 22.6891 269.643 22.6573 269.84 22.5822C270.038 22.507 270.217 22.3902 270.367 22.2396C270.516 22.0889 270.631 21.9079 270.706 21.7086C270.781 21.5093 270.812 21.2962 270.798 21.0836C270.804 20.8731 270.767 20.6638 270.689 20.4682C270.611 20.2726 270.496 20.0951 270.348 19.9461C270.201 19.7973 270.024 19.6802 269.831 19.6021C269.637 19.524 269.43 19.4864 269.221 19.4918ZM273.16 17.535V24.64H270.721V23.8635C270.488 24.1987 270.175 24.4687 269.81 24.648C269.446 24.8273 269.042 24.91 268.637 24.8884C268.16 24.8766 267.69 24.7685 267.254 24.5705C266.819 24.3724 266.427 24.0884 266.103 23.7353C265.778 23.3822 265.526 22.967 265.363 22.5143C265.2 22.0615 265.128 21.5803 265.152 21.0991C265.127 20.6196 265.197 20.1399 265.359 19.6881C265.52 19.2364 265.77 18.8218 266.093 18.4688C266.415 18.1158 266.804 17.8314 267.237 17.6324C267.67 17.4333 268.138 17.3237 268.613 17.3099C269.017 17.2969 269.418 17.3736 269.79 17.5346C270.16 17.6956 270.491 17.937 270.76 18.2416V17.535H273.16ZM217.004 24.64V14.1961H221.181C223.981 14.1961 224.789 16.215 224.789 17.6282C224.808 18.1037 224.727 18.5779 224.55 19.0191C224.373 19.4602 224.105 19.8581 223.763 20.1861C223.421 20.514 223.014 20.7644 222.569 20.9206C222.123 21.0767 221.65 21.1349 221.181 21.0914H219.642V24.64H217.004ZM219.657 16.4557V18.8551H220.55C221.773 18.8551 221.888 18.0786 221.888 17.6826C221.888 17.2866 221.711 16.5101 220.55 16.5101H219.781L219.688 16.4557H219.657ZM234.743 17.5428V24.6477H237.128L239.574 20.7653V24.6477H242.051V17.535H239.666L237.22 21.3554V17.535L234.743 17.5428ZM238.589 16.6421C239.169 16.6892 239.75 16.554 240.251 16.2552C240.753 15.9563 241.15 15.5083 241.389 14.9726L239.781 14.3669C239.722 14.6276 239.572 14.8582 239.359 15.0175C239.146 15.1769 238.884 15.2546 238.62 15.2366C238.355 15.2578 238.091 15.1814 237.878 15.0215C237.664 14.8617 237.515 14.6291 237.458 14.3669L235.85 14.9726C236.093 15.4981 236.487 15.9373 236.981 16.2325C237.476 16.5277 238.047 16.6651 238.62 16.6265L238.589 16.6421ZM247.143 27.7304V24.7564C245.682 24.7564 243.235 24.1508 243.235 21.0836C243.235 18.0165 245.651 17.4419 247.143 17.4419V14.3359H249.62V17.4419C251.113 17.4419 253.467 18.0475 253.467 21.0836C253.467 24.1197 251.051 24.7564 249.62 24.7564V27.7692L247.143 27.7304ZM249.451 19.189V23.1336C250.29 23.1336 251.12 22.5279 251.12 21.1457C251.12 19.7636 250.282 19.1579 249.451 19.189ZM247.305 19.189C246.466 19.189 245.636 19.7946 245.636 21.1768C245.636 22.559 246.474 23.1336 247.305 23.1025V19.189ZM258.244 24.7564C256.782 24.7564 254.336 24.1508 254.336 21.0836C254.336 18.0165 256.751 17.4419 258.244 17.4419V14.3359H260.721V17.4419C262.213 17.4419 264.629 18.0475 264.629 21.0836C264.629 24.1197 262.213 24.7564 260.721 24.7564V27.7692H258.244V24.7564ZM260.552 19.22V23.1646C261.39 23.1646 262.221 22.559 262.221 21.1768C262.221 19.7946 261.382 19.189 260.552 19.22ZM258.375 23.1025V19.22C257.536 19.22 256.674 19.8257 256.674 21.2079C256.651 21.4506 256.68 21.6953 256.758 21.9263C256.835 22.1572 256.96 22.369 257.124 22.5479C257.288 22.7267 257.488 22.8685 257.71 22.9641C257.932 23.0597 258.171 23.1068 258.413 23.1025H258.375ZM274.775 17.535V24.64H277.16L279.606 20.7575V24.64H282.083V17.535H279.699L277.222 21.3243V17.535H274.775ZM278.622 16.6343C279.192 16.6706 279.76 16.5312 280.251 16.2344C280.741 15.9377 281.131 15.4977 281.368 14.9726L279.76 14.3669C279.7 14.6276 279.551 14.8582 279.338 15.0175C279.125 15.1769 278.863 15.2546 278.599 15.2366C278.333 15.2612 278.068 15.1861 277.853 15.0257C277.639 14.8653 277.491 14.6307 277.437 14.3669L275.822 14.9726C276.064 15.4981 276.458 15.9373 276.952 16.2325C277.447 16.5277 278.018 16.6651 278.591 16.6265L278.622 16.6343ZM283.93 19.5772C284.464 19.2034 285.095 18.9931 285.745 18.9716C286.045 18.9716 286.73 19.0337 286.73 19.6005C286.73 20.1674 286.13 20.2062 285.899 20.2062H284.676V21.7592H285.753C286.114 21.7592 286.768 21.7592 286.768 22.3648C286.768 22.6055 286.622 23.0559 285.753 23.0559C284.998 23.0541 284.261 22.8243 283.637 22.3959L283.029 24.0964C283.991 24.6536 285.083 24.943 286.191 24.935C289.022 24.935 289.384 23.2811 289.384 22.7376C289.387 22.323 289.245 21.9206 288.984 21.6011C288.721 21.2815 288.357 21.0653 287.953 20.9904C288.266 20.8483 288.53 20.6149 288.711 20.3202C288.892 20.0255 288.981 19.683 288.968 19.3365C288.968 17.6826 287.237 17.3487 286.168 17.3487C285.166 17.3674 284.18 17.6031 283.276 18.0398L283.93 19.5772ZM298.892 24.6322H301.369V21.8058H303.638V24.6322H306.107V17.535H303.63V20.0353H301.361V17.535H298.884L298.892 24.6322Z" fill="white"/>
<path d="M212.719 40.2863H186.871V14.1961H212.719V40.2863ZM211.88 15.0658H187.733V39.4399H211.88V15.0658Z" fill="white"/>
<path d="M199.811 30.2308L192.387 37.7239L189.433 34.7422L196.872 27.2568L195.333 25.7038V22.5978L194.256 21.5107V24.1896L193.333 25.1214L189.549 21.3632L188.625 22.295C188.63 21.4602 188.799 20.6346 189.121 19.8657C189.443 19.0968 189.913 18.3998 190.502 17.8146C191.072 17.1707 191.869 16.7782 192.722 16.7215C193.575 16.6649 194.416 16.9487 195.064 17.5118L198.818 21.3321L197.864 22.295L199.811 24.2906L201.78 22.3028L200.826 21.3399L204.565 17.504C205.212 16.939 206.053 16.6539 206.907 16.7106C207.761 16.7673 208.558 17.1611 209.126 17.8069C209.716 18.392 210.186 19.0891 210.508 19.858C210.83 20.6268 210.998 21.4524 211.003 22.2872L210.08 21.3554L206.295 25.1447L205.372 24.2129V21.5107L204.303 22.5978V25.7038L202.765 27.2568L210.188 34.75L207.234 37.7239L199.811 30.2308Z" fill="white"/>
</svg>
