<svg width="249" height="62" viewBox="0 0 249 62" xmlns="http://www.w3.org/2000/svg">
<path d="M30.3158 14.4971C29.7635 14.4971 29.3158 14.9449 29.3158 15.4971V19.3153C26.481 15.5151 22.4708 13.6149 17.2161 13.6149C12.4454 13.6149 8.36606 15.3793 5.04729 18.7724C1.65938 22.2333 0 26.4407 0 31.4625C0 36.4842 1.65938 40.6916 5.04729 44.1525C8.36606 47.6134 12.4454 49.31 17.2161 49.31C22.4708 49.31 26.481 47.4098 29.3158 43.5417V47.4278C29.3158 47.98 29.7635 48.4278 30.3158 48.4278H35.783C36.3353 48.4278 36.783 47.98 36.783 47.4278V15.4971C36.783 14.9449 36.3353 14.4971 35.783 14.4971H30.3158ZM18.3915 42.3202C15.211 42.3202 12.6528 41.3023 10.5786 39.2665C8.50434 37.2307 7.46723 34.5841 7.46723 31.4625C7.46723 28.3408 8.50434 25.7621 10.5786 23.7263C12.6528 21.6904 15.211 20.6047 18.3915 20.6047C21.5029 20.6047 24.1302 21.6904 26.2044 23.7263C28.2787 25.7621 29.3158 28.3408 29.3158 31.4625C29.3158 34.5841 28.2787 37.2307 26.2044 39.2665C24.1302 41.3023 21.5029 42.3202 18.3915 42.3202Z"/>
<path d="M69.7872 14.4971C69.2349 14.4971 68.7872 14.9449 68.7872 15.4971V32.684C68.7872 36.0092 67.9575 38.4522 66.3673 40.0808C64.7079 41.7095 62.6337 42.456 60.0063 42.456C57.5864 42.456 55.7195 41.7774 54.3367 40.4201C52.9539 39.0629 52.2625 37.1628 52.2625 34.5841V15.4971C52.2625 14.9449 51.8148 14.4971 51.2625 14.4971H45.7953C45.243 14.4971 44.7953 14.9449 44.7953 15.4971V35.3305C44.7953 39.6737 45.9707 43.1346 48.4597 45.5776C50.8797 48.0884 54.0602 49.31 58.0703 49.31C62.9102 49.31 66.5055 47.6134 68.7872 44.0846V47.4278C68.7872 47.98 69.2349 48.4278 69.7872 48.4278H75.2544C75.8067 48.4278 76.2544 47.98 76.2544 47.4278V15.4971C76.2544 14.9449 75.8067 14.4971 75.2544 14.4971H69.7872Z"/>
<path d="M103.277 21.5547C103.829 21.5547 104.277 21.107 104.277 20.5547V15.4971C104.277 14.9449 103.829 14.4971 103.277 14.4971H95.703L93.774 14.4972H89.4527L88.2358 14.4971H82.8748C82.3226 14.4971 81.8748 14.9449 81.8748 15.4971V20.5547C81.8748 21.107 82.3226 21.5547 82.8748 21.5547H88.2358V37.8414C88.2358 42.3202 89.4803 45.374 91.9694 47.0027C94.3287 48.5464 98.1165 49.0537 103.392 48.5245C103.896 48.474 104.277 48.0459 104.277 47.539V42.9178C104.277 42.338 103.785 41.8808 103.206 41.9086C101.746 41.9785 100.513 41.968 99.5058 41.9131C98.2613 41.8452 97.2933 41.5059 96.671 40.8952C95.9796 40.2844 95.703 39.2665 95.703 37.8414V21.5547H103.277Z"/>
<path d="M125.948 49.31C131.065 49.31 135.352 47.6134 138.878 44.1525C142.404 40.7594 144.202 36.4842 144.202 31.4625C144.202 26.4407 142.404 22.2333 138.878 18.7724C135.352 15.3793 131.065 13.6149 125.948 13.6149C120.832 13.6149 116.545 15.3793 113.019 18.7724C109.424 22.2333 107.695 26.4407 107.695 31.4625C107.695 36.4842 109.424 40.7594 113.019 44.1525C116.545 47.6134 120.832 49.31 125.948 49.31ZM125.948 42.1845C122.906 42.1845 120.348 41.1666 118.274 39.1308C116.2 37.0949 115.162 34.5841 115.162 31.4625C115.162 28.4087 116.2 25.83 118.274 23.7941C120.348 21.7583 122.906 20.7404 125.948 20.7404C128.991 20.7404 131.549 21.7583 133.623 23.7941C135.697 25.83 136.734 28.4087 136.734 31.4625C136.734 34.5841 135.697 37.0949 133.623 39.1308C131.549 41.1666 128.991 42.1845 125.948 42.1845Z"/>
<path d="M166.763 7.04073C167.349 7.05235 167.853 6.596 167.853 6.00953V0.991055C167.853 0.459357 167.437 0.0186029 166.906 0.00690209C162.248 -0.0956151 158.631 0.942217 156.168 3.23218C153.541 5.67518 152.227 9.20397 152.227 13.8185V14.4971H147.973C147.42 14.4971 146.973 14.9449 146.973 15.4971V20.5547C146.973 21.107 147.42 21.5547 147.973 21.5547H152.227V47.4278C152.227 47.98 152.675 48.4278 153.227 48.4278H158.695C159.247 48.4278 159.695 47.98 159.695 47.4278V21.5547H166.853C167.406 21.5547 167.853 21.107 167.853 20.5547V15.4971C167.853 14.9449 167.406 14.4971 166.853 14.4971H159.695V13.8185C159.695 9.20619 162.032 6.94692 166.763 7.04073Z"/>
<path d="M198.982 14.4971C198.43 14.4971 197.982 14.9449 197.982 15.4971V19.3153C195.147 15.5151 191.137 13.6149 185.882 13.6149C181.112 13.6149 177.032 15.3793 173.714 18.7724C170.326 22.2333 168.666 26.4407 168.666 31.4625C168.666 36.4842 170.326 40.6916 173.714 44.1525C177.032 47.6134 181.112 49.31 185.882 49.31C191.137 49.31 195.147 47.4098 197.982 43.5417V47.4278C197.982 47.98 198.43 48.4278 198.982 48.4278H204.449C205.002 48.4278 205.449 47.98 205.449 47.4278V15.4971C205.449 14.9449 205.002 14.4971 204.449 14.4971H198.982ZM187.058 42.3202C183.877 42.3202 181.319 41.3023 179.245 39.2665C177.171 37.2307 176.133 34.5841 176.133 31.4625C176.133 28.3408 177.171 25.7621 179.245 23.7263C181.319 21.6904 183.877 20.6047 187.058 20.6047C190.169 20.6047 192.796 21.6904 194.871 23.7263C196.945 25.7621 197.982 28.3408 197.982 31.4625C197.982 34.5841 196.945 37.2307 194.871 39.2665C192.796 41.3023 190.169 42.3202 187.058 42.3202Z"/>
<path d="M242.533 14.4971C241.98 14.4971 241.533 14.9449 241.533 15.4971V19.3832C238.698 15.5829 234.688 13.6149 229.433 13.6149C224.662 13.6149 220.583 15.3793 217.264 18.8403C213.876 22.3012 212.217 26.5086 212.217 31.4625C212.217 36.4842 213.876 40.7594 217.264 44.1525C220.583 47.6134 224.662 49.31 229.433 49.31C234.688 49.31 238.698 47.4098 241.533 43.6096V61C241.533 61.5523 241.98 62 242.533 62H248C248.552 62 249 61.5523 249 61V15.4971C249 14.9449 248.552 14.4971 248 14.4971H242.533ZM230.609 42.3202C227.428 42.3202 224.87 41.3023 222.796 39.2665C220.721 37.2307 219.684 34.5841 219.684 31.4625C219.684 28.3408 220.721 25.7621 222.796 23.7263C224.87 21.6904 227.428 20.6047 230.609 20.6047C233.72 20.6047 236.347 21.6904 238.421 23.7263C240.496 25.7621 241.533 28.3408 241.533 31.4625C241.533 34.5841 240.496 37.2307 238.421 39.2665C236.347 41.3023 233.72 42.3202 230.609 42.3202Z"/>
</svg>
