<svg width="109" height="81" viewBox="0 0 109 81" fill="none" xmlns="http://www.w3.org/2000/svg">
<path fill-rule="evenodd" clip-rule="evenodd" d="M30.5611 24.4696L17.2455 21.2864C14.9789 20.7679 11.4421 19.8771 11.4421 15.6705C11.4421 10.8635 16.6381 9.23581 21.0026 9.23581C30.9382 9.23581 31.8453 14.9317 32.139 17.3683H38.4763V27.3741C36.1542 26.0388 33.4073 25.1733 30.5611 24.4696ZM23.3327 56.4753C26.1887 56.4753 33.2207 55.9841 38.4763 52.2141V55.0737H49.0828L49.0947 42.5007L53.5227 37.9959L63.1626 55.0737H75.8888L61.283 30.6743L75.5097 15.2981H62.4818L49.0947 30.3858V1.40155H38.4763V5.98632C35.2471 2.57698 30.0054 0 21.8362 0C4.14614 0 0.825655 10.5691 0.825655 16.4833C0.825655 24.6119 5.27546 29.1285 13.0259 30.9764L24.0135 33.6333C29.8089 35.0388 33.9531 36.0738 33.9531 40.2843C33.9531 45.9061 27.9254 47.2336 22.507 47.2336C12.5714 47.2336 10.9161 41.5455 10.9161 38.5144H0C0 45.1674 3.4614 56.4753 23.3327 56.4753Z" fill="white"/>
<path fill-rule="evenodd" clip-rule="evenodd" d="M7.21775 69.6115H11.6914C12.6996 69.6115 13.4439 69.4205 13.9222 69.0403C14.4005 68.6622 14.6407 68.0365 14.6407 67.1671C14.6407 66.5452 14.4442 65.9975 14.0572 65.5258C13.6682 65.056 12.9715 64.8201 11.9712 64.8201H7.21775V69.6115ZM3.48047 79.6504V61.7227H12.7095C14.1822 61.7227 15.3473 62.0131 16.2067 62.5901C17.0641 63.171 17.6535 63.8494 17.9751 64.6232C18.2946 65.401 18.4574 66.1242 18.4574 66.7947C18.4574 67.7986 18.2073 68.6875 17.7091 69.4614C17.2109 70.2353 16.5183 70.7694 15.6331 71.0618C16.2047 71.3054 16.6473 71.5667 16.9648 71.8415C17.2804 72.1183 17.5245 72.5433 17.6932 73.1163C17.8639 73.6894 17.9473 74.5198 17.9473 75.6037C17.9473 76.6193 17.9612 77.3366 17.985 77.7518C18.0088 78.169 18.0763 78.4867 18.1874 78.7031C18.2946 78.9194 18.4871 79.0773 18.761 79.1748V79.6504H14.5395C14.2715 78.7557 14.1366 77.5491 14.1366 76.0306C14.1366 75.1066 14.081 74.4204 13.9659 73.9682C13.8508 73.5199 13.5848 73.1826 13.17 72.9643C12.7512 72.744 12.0804 72.6349 11.1575 72.6349H7.21775V79.6504H3.48047Z" fill="white"/>
<path fill-rule="evenodd" clip-rule="evenodd" d="M24.1501 71.6862H29.6638C29.5725 70.7057 29.2629 69.9961 28.729 69.5556C28.199 69.115 27.5937 68.8948 26.9149 68.8948C25.2914 68.8948 24.3685 69.8246 24.1501 71.6862ZM29.509 75.7544H33.1708C32.7401 77.2319 31.97 78.308 30.8645 78.9863C29.759 79.6627 28.5464 80.0019 27.2245 80.0019C26.244 80.0019 25.3469 79.8752 24.5312 79.6198C23.7135 79.3664 23.003 78.9551 22.3956 78.3898C21.7903 77.8226 21.3219 77.0663 20.9884 76.1208C20.655 75.1754 20.4883 74.0468 20.4883 72.7349C20.4883 72.1774 20.5637 71.54 20.7106 70.8226C20.8614 70.1072 21.1532 69.3801 21.5898 68.6453C22.0245 67.9084 22.6874 67.2885 23.5765 66.7817C24.4617 66.2768 25.5931 66.0234 26.9725 66.0234C27.7207 66.0234 28.461 66.1307 29.1894 66.3431C29.9198 66.5576 30.5966 66.9279 31.2198 67.4581C31.847 67.9883 32.3531 68.7427 32.7421 69.7174C33.1291 70.694 33.3256 71.9006 33.3256 73.3372V73.9591H24.0489C24.0985 74.499 24.1938 74.9922 24.3347 75.4386C24.4756 75.885 24.7753 76.2904 25.2378 76.655C25.6982 77.0214 26.3611 77.2047 27.2245 77.2047C27.7425 77.2047 28.2209 77.074 28.6595 76.8128C29.0981 76.5536 29.38 76.2008 29.509 75.7544Z" fill="white"/>
<path fill-rule="evenodd" clip-rule="evenodd" d="M46.838 70.4113H43.3607C43.2675 69.8675 43.061 69.4406 42.7435 69.1326C42.4279 68.8246 41.8365 68.6686 40.9691 68.6686C39.5103 68.6686 38.7819 69.1014 38.7819 69.9688C38.7819 70.4133 39.2622 70.7583 40.2248 70.9981C41.1874 71.2378 42.2136 71.4795 43.3072 71.7252C44.3988 71.9727 45.3296 72.3743 46.0957 72.9318C46.8638 73.4912 47.2469 74.3255 47.2469 75.4347C47.2469 76.6179 46.9253 77.5497 46.2783 78.2339C45.6333 78.9161 44.8632 79.382 43.9681 79.6296C43.071 79.8771 42.1897 80.0019 41.3204 80.0019C39.5381 80.0019 38.0178 79.6432 36.7634 78.9278C35.5111 78.2124 34.8601 77.0409 34.8164 75.4113H38.4783C38.4783 76.7076 39.4627 77.3567 41.4296 77.3567C42.2453 77.3567 42.8268 77.2105 43.1722 76.922C43.5195 76.6355 43.6902 76.3197 43.6902 75.9844C43.6902 75.5029 43.192 75.1403 42.1897 74.8889C41.1874 74.6394 40.1633 74.3957 39.1213 74.1579C38.0754 73.9201 37.1783 73.5263 36.426 72.9766C35.6738 72.425 35.3007 71.5887 35.3007 70.4659C35.3007 69.7427 35.4734 69.0449 35.8187 68.3704C36.1621 67.6959 36.7436 67.1345 37.5633 66.6901C38.381 66.2457 39.4468 66.0234 40.7627 66.0234C44.5953 66.0234 46.6197 67.4854 46.838 70.4113Z" fill="white"/>
<path fill-rule="evenodd" clip-rule="evenodd" d="M49.7695 79.6442H53.3262V66.3616H49.7695V79.6442ZM49.7695 64.7827H53.3262V61.5391H49.7695V64.7827Z" fill="white"/>
<path fill-rule="evenodd" clip-rule="evenodd" d="M59.5134 73.1144C59.5134 74.1124 59.7456 75.0306 60.2081 75.8688C60.6685 76.7089 61.4128 77.1261 62.4409 77.1261C63.5047 77.1261 64.2967 76.7616 64.8167 76.0306C65.3367 75.2996 65.5967 74.3951 65.5967 73.3132C65.5967 70.4672 64.5805 69.0442 62.5461 69.0442C61.4942 69.0442 60.7261 69.4302 60.2398 70.2021C59.7556 70.9721 59.5134 71.9429 59.5134 73.1144ZM68.9985 61.7227V79.6504H65.5213V77.9818H65.4736C64.6896 79.3249 63.3837 79.9993 61.5537 79.9993C60.2835 79.9993 59.2177 79.6699 58.3583 79.011C57.4989 78.3522 56.8658 77.4789 56.4609 76.3912C56.056 75.3054 55.8516 74.128 55.8516 72.861C55.8516 71.7557 56.0024 70.7674 56.3021 69.8961C56.6018 69.0287 57.0126 68.3055 57.5346 67.7304C58.0586 67.1554 58.654 66.7265 59.3269 66.4439C59.9997 66.1612 60.7162 66.0209 61.4724 66.0209C63.1792 66.0209 64.4852 66.7129 65.3922 68.0988H65.4419V61.7227H68.9985Z" fill="white"/>
<path fill-rule="evenodd" clip-rule="evenodd" d="M74.945 71.6862H80.4607C80.3694 70.7057 80.0597 69.9961 79.5258 69.5556C78.9939 69.115 78.3906 68.8948 77.7118 68.8948C76.0882 68.8948 75.1653 69.8246 74.945 71.6862ZM80.3058 75.7544H83.9657C83.537 77.2319 82.7669 78.308 81.6594 78.9863C80.5559 79.6627 79.3413 80.0019 78.0214 80.0019C77.0409 80.0019 76.1438 79.8752 75.3281 79.6198C74.5104 79.3664 73.7978 78.9551 73.1925 78.3898C72.5871 77.8226 72.1187 77.0663 71.7853 76.1208C71.4519 75.1754 71.2852 74.0468 71.2852 72.7349C71.2852 72.1774 71.3606 71.54 71.5074 70.8226C71.6563 70.1072 71.95 69.3801 72.3847 68.6453C72.8214 67.9084 73.4843 67.2885 74.3714 66.7817C75.2586 66.2768 76.3899 66.0234 77.7673 66.0234C78.5156 66.0234 79.2559 66.1307 79.9843 66.3431C80.7167 66.5576 81.3935 66.9279 82.0167 67.4581C82.6419 67.9883 83.148 68.7427 83.539 69.7174C83.926 70.694 84.1205 71.9006 84.1205 73.3372V73.9591H74.8458C74.8954 74.499 74.9907 74.9922 75.1316 75.4386C75.2705 75.885 75.5722 76.2904 76.0327 76.655C76.4951 77.0214 77.158 77.2047 78.0214 77.2047C78.5394 77.2047 79.0158 77.074 79.4564 76.8128C79.895 76.5536 80.1768 76.2008 80.3058 75.7544Z" fill="white"/>
<path fill-rule="evenodd" clip-rule="evenodd" d="M98.7123 70.4659V79.653H95.1556V71.5887C95.1556 71.1287 95.1139 70.7154 95.0286 70.349C94.9452 69.9805 94.7289 69.6569 94.3855 69.3821C94.0422 69.1053 93.5281 68.9669 92.8414 68.9669C92.3115 68.9669 91.8351 69.0839 91.4124 69.3197C90.9916 69.5517 90.6582 69.9006 90.414 70.3665C90.1699 70.8324 90.0489 71.3899 90.0489 72.039V79.653H86.4922V66.3704H89.894V68.3158H89.9437C90.8705 66.7876 92.2261 66.0234 94.0144 66.0234C94.9115 66.0234 95.7173 66.193 96.4298 66.5361C97.1404 66.8772 97.6981 67.3802 98.103 68.0468C98.5098 68.7135 98.7123 69.5205 98.7123 70.4659Z" fill="white"/>
<path fill-rule="evenodd" clip-rule="evenodd" d="M105.826 62.7695V66.366H108.041V68.865H105.826V76.0813C105.826 76.3913 105.852 76.6135 105.9 76.748C105.951 76.8806 106.078 76.9819 106.283 77.0521C106.487 77.1203 106.826 77.1554 107.303 77.1554C107.456 77.1554 107.702 77.1398 108.041 77.1086V79.746C107.202 79.7831 106.64 79.8006 106.36 79.8006H105.907C104.927 79.8006 104.169 79.6876 103.637 79.4575C103.107 79.2295 102.744 78.9059 102.555 78.4926C102.365 78.0774 102.269 77.557 102.269 76.9312V68.865H100.438V66.366H102.269V62.7695H105.826Z" fill="white"/>
</svg>
