<svg width="68" height="51" viewBox="0 0 68 51" fill="none" xmlns="http://www.w3.org/2000/svg">
<g opacity="0.2">
<path fill-rule="evenodd" clip-rule="evenodd" d="M19.2351 15.4011L10.8542 13.3976C9.42766 13.0712 7.2016 12.5106 7.2016 9.86294C7.2016 6.83743 10.472 5.81299 13.219 5.81299C19.4724 5.81299 20.0433 9.39795 20.2282 10.9316H24.2169V17.2292C22.7553 16.3887 21.0264 15.844 19.2351 15.4011ZM14.6855 35.5453C16.4831 35.5453 20.909 35.2362 24.2169 32.8634V34.6632H30.8925L30.9 26.7498L33.687 23.9145L39.7543 34.6632H47.7641L38.5713 19.3063L47.5255 9.6286H39.3258L30.9 19.1247V0.882131H24.2169V3.76777C22.1844 1.62194 18.8853 0 13.7436 0C2.60956 0 0.519664 6.65218 0.519664 10.3745C0.519664 15.4907 3.32035 18.3334 8.19845 19.4964L15.114 21.1687C18.7616 22.0533 21.3699 22.7048 21.3699 25.3548C21.3699 28.8932 17.5761 29.7287 14.1658 29.7287C7.91239 29.7287 6.87056 26.1486 6.87056 24.2408H0C0 28.4282 2.17859 35.5453 14.6855 35.5453Z" fill="#484848"/>
<path fill-rule="evenodd" clip-rule="evenodd" d="M4.54364 43.8138H7.35932C7.99391 43.8138 8.46235 43.6936 8.76341 43.4544C9.06446 43.2163 9.21562 42.8225 9.21562 42.2753C9.21562 41.884 9.09195 41.5392 8.84835 41.2423C8.60351 40.9466 8.16505 40.7982 7.53545 40.7982H4.54364V43.8138ZM2.19141 50.1323V38.8486H8.00015C8.92705 38.8486 9.66033 39.0314 10.2012 39.3946C10.7409 39.7602 11.1119 40.1872 11.3143 40.6742C11.5154 41.1638 11.6178 41.6189 11.6178 42.041C11.6178 42.6728 11.4604 43.2323 11.1469 43.7194C10.8333 44.2064 10.3974 44.5426 9.84021 44.7266C10.2 44.88 10.4785 45.0444 10.6784 45.2174C10.877 45.3916 11.0307 45.6591 11.1369 46.0198C11.2443 46.3805 11.2968 46.9031 11.2968 47.5853C11.2968 48.2245 11.3055 48.676 11.3205 48.9373C11.3355 49.1999 11.378 49.3999 11.4479 49.536C11.5154 49.6722 11.6366 49.7716 11.8089 49.8329V50.1323H9.15191C8.98327 49.5692 8.89832 48.8097 8.89832 47.854C8.89832 47.2724 8.86334 46.8406 8.79089 46.5559C8.71844 46.2737 8.55105 46.0615 8.28996 45.9241C8.02638 45.7854 7.60416 45.7167 7.02328 45.7167H4.54364V50.1323H2.19141Z" fill="#484848"/>
<path fill-rule="evenodd" clip-rule="evenodd" d="M15.1993 45.1178H18.6696C18.6121 44.5007 18.4172 44.0541 18.0812 43.7768C17.7476 43.4996 17.3666 43.3609 16.9394 43.3609C15.9176 43.3609 15.3367 43.9461 15.1993 45.1178ZM18.5721 47.6783H20.8769C20.6058 48.6083 20.1211 49.2855 19.4253 49.7125C18.7295 50.1382 17.9663 50.3517 17.1343 50.3517C16.5172 50.3517 15.9526 50.272 15.4391 50.1112C14.9245 49.9517 14.4773 49.6929 14.095 49.3371C13.714 48.9801 13.4192 48.504 13.2093 47.909C12.9995 47.3139 12.8945 46.6036 12.8945 45.7779C12.8945 45.427 12.942 45.0258 13.0344 44.5743C13.1294 44.124 13.313 43.6664 13.5878 43.2039C13.8614 42.7401 14.2786 42.35 14.8383 42.031C15.3954 41.7132 16.1075 41.5537 16.9756 41.5537C17.4466 41.5537 17.9125 41.6212 18.371 41.7549C18.8307 41.8899 19.2567 42.123 19.6489 42.4567C20.0437 42.7904 20.3622 43.2652 20.607 43.8787C20.8506 44.4933 20.9743 45.2528 20.9743 46.157V46.5484H15.1356C15.1668 46.8882 15.2268 47.1986 15.3155 47.4796C15.4042 47.7605 15.5928 48.0157 15.8839 48.2451C16.1737 48.4758 16.5909 48.5911 17.1343 48.5911C17.4603 48.5911 17.7614 48.5089 18.0375 48.3445C18.3135 48.1813 18.4909 47.9593 18.5721 47.6783Z" fill="#484848"/>
<path fill-rule="evenodd" clip-rule="evenodd" d="M29.4804 44.3154H27.2918C27.2331 43.9731 27.1032 43.7044 26.9033 43.5106C26.7047 43.3167 26.3325 43.2186 25.7866 43.2186C24.8684 43.2186 24.4099 43.491 24.4099 44.0369C24.4099 44.3167 24.7123 44.5338 25.3181 44.6847C25.924 44.8356 26.5698 44.9878 27.2581 45.1424C27.9452 45.2982 28.531 45.5509 29.0132 45.9018C29.4967 46.2539 29.7378 46.779 29.7378 47.4771C29.7378 48.2218 29.5354 48.8083 29.1281 49.2389C28.7222 49.6683 28.2375 49.9616 27.6741 50.1174C27.1095 50.2732 26.5548 50.3517 26.0077 50.3517C24.8859 50.3517 23.929 50.126 23.1395 49.6757C22.3513 49.2254 21.9415 48.4881 21.9141 47.4624H24.2188C24.2188 48.2783 24.8384 48.6868 26.0764 48.6868C26.5898 48.6868 26.9558 48.5948 27.1732 48.4132C27.3918 48.2329 27.4992 48.0341 27.4992 47.8231C27.4992 47.5201 27.1857 47.2919 26.5548 47.1336C25.924 46.9765 25.2794 46.8232 24.6236 46.6735C23.9652 46.5238 23.4006 46.276 22.9272 45.93C22.4537 45.5828 22.2189 45.0565 22.2189 44.3498C22.2189 43.8946 22.3275 43.4554 22.5449 43.0309C22.761 42.6064 23.127 42.253 23.6429 41.9733C24.1576 41.6936 24.8284 41.5537 25.6566 41.5537C28.0688 41.5537 29.343 42.4739 29.4804 44.3154Z" fill="#484848"/>
<path fill-rule="evenodd" clip-rule="evenodd" d="M31.3242 50.1287H33.5628V41.7687H31.3242V50.1287ZM31.3242 40.7749H33.5628V38.7334H31.3242V40.7749Z" fill="#484848"/>
<path fill-rule="evenodd" clip-rule="evenodd" d="M37.4571 46.0186C37.4571 46.6467 37.6033 47.2246 37.8943 47.7521C38.1841 48.2809 38.6526 48.5435 39.2997 48.5435C39.9692 48.5435 40.4677 48.3141 40.7949 47.854C41.1222 47.3939 41.2859 46.8246 41.2859 46.1437C41.2859 44.3524 40.6463 43.4568 39.3659 43.4568C38.7038 43.4568 38.2204 43.6997 37.9143 44.1856C37.6095 44.6702 37.4571 45.2812 37.4571 46.0186ZM43.427 38.8486V50.1323H41.2384V49.0821H41.2084C40.715 49.9274 39.893 50.3519 38.7413 50.3519C37.9418 50.3519 37.271 50.1446 36.7301 49.7299C36.1892 49.3152 35.7907 48.7656 35.5358 48.0809C35.281 47.3976 35.1523 46.6565 35.1523 45.8591C35.1523 45.1634 35.2473 44.5414 35.4359 43.993C35.6245 43.447 35.8831 42.9918 36.2117 42.6299C36.5414 42.268 36.9162 41.998 37.3397 41.8201C37.7632 41.6423 38.2141 41.5539 38.6901 41.5539C39.7644 41.5539 40.5863 41.9895 41.1572 42.8618H41.1884V38.8486H43.427Z" fill="#484848"/>
<path fill-rule="evenodd" clip-rule="evenodd" d="M47.1707 45.1178H50.6422C50.5847 44.5007 50.3899 44.0541 50.0538 43.7768C49.7191 43.4996 49.3393 43.3609 48.9121 43.3609C47.8902 43.3609 47.3094 43.9461 47.1707 45.1178ZM50.5448 47.6783H52.8483C52.5785 48.6083 52.0938 49.2855 51.3967 49.7125C50.7022 50.1382 49.9377 50.3517 49.107 50.3517C48.4899 50.3517 47.9252 50.272 47.4118 50.1112C46.8971 49.9517 46.4487 49.6929 46.0677 49.3371C45.6867 48.9801 45.3918 48.504 45.182 47.909C44.9721 47.3139 44.8672 46.6036 44.8672 45.7779C44.8672 45.427 44.9147 45.0258 45.0071 44.5743C45.1008 44.124 45.2857 43.6664 45.5592 43.2039C45.8341 42.7401 46.2513 42.35 46.8097 42.031C47.3681 41.7132 48.0801 41.5537 48.9471 41.5537C49.418 41.5537 49.8839 41.6212 50.3424 41.7549C50.8034 41.8899 51.2293 42.123 51.6216 42.4567C52.0151 42.7904 52.3336 43.2652 52.5797 43.8787C52.8233 44.4933 52.9457 45.2528 52.9457 46.157V46.5484H47.1082C47.1395 46.8882 47.1994 47.1986 47.2881 47.4796C47.3756 47.7605 47.5654 48.0157 47.8553 48.2451C48.1463 48.4758 48.5636 48.5911 49.107 48.5911C49.433 48.5911 49.7328 48.5089 50.0101 48.3445C50.2862 48.1813 50.4636 47.9593 50.5448 47.6783Z" fill="#484848"/>
<path fill-rule="evenodd" clip-rule="evenodd" d="M62.1288 44.3498V50.1321H59.8902V45.0565C59.8902 44.7669 59.864 44.5068 59.8103 44.2762C59.7578 44.0443 59.6216 43.8406 59.4055 43.6676C59.1894 43.4934 58.8659 43.4063 58.4337 43.4063C58.1001 43.4063 57.8003 43.4799 57.5343 43.6284C57.2694 43.7744 57.0596 43.994 56.9059 44.2872C56.7523 44.5804 56.6761 44.9313 56.6761 45.3399V50.1321H54.4375V41.7721H56.5786V42.9965H56.6098C57.1932 42.0346 58.0464 41.5537 59.1719 41.5537C59.7366 41.5537 60.2438 41.6605 60.6922 41.8764C61.1394 42.0911 61.4904 42.4076 61.7453 42.8272C62.0014 43.2468 62.1288 43.7547 62.1288 44.3498Z" fill="#484848"/>
<path fill-rule="evenodd" clip-rule="evenodd" d="M66.6064 39.5078V41.7714H68.0005V43.3443H66.6064V47.8862C66.6064 48.0813 66.6226 48.2212 66.6526 48.3058C66.6851 48.3892 66.7651 48.453 66.8937 48.4972C67.0224 48.5401 67.236 48.5622 67.5358 48.5622C67.632 48.5622 67.7869 48.5524 68.0005 48.5328V50.1928C67.4721 50.2161 67.1186 50.2271 66.9424 50.2271H66.6576C66.0405 50.2271 65.5633 50.156 65.2285 50.0112C64.895 49.8676 64.6664 49.664 64.5477 49.4039C64.4278 49.1426 64.3678 48.815 64.3678 48.4211V43.3443H63.2148V41.7714H64.3678V39.5078H66.6064Z" fill="#484848"/>
</g>
</svg>
