<svg width="31" height="31" viewBox="0 0 31 31" fill="none" xmlns="http://www.w3.org/2000/svg">
<g clip-path="url(#clip0_253_18613)">
<rect width="1920" height="994" transform="translate(-49 -50)" fill="url(#paint0_linear_253_18613)"/>
<rect x="-49" y="-50" width="128" height="994" fill="white"/>
<rect y="-0.166016" width="31" height="31" rx="2.58333" fill="#255EC1"/>
<path d="M6.47649 11.4638C6.47649 10.7405 6.70038 10.1377 7.14815 9.65547C7.59593 9.17325 8.20732 8.93213 8.98232 8.93213C9.75732 8.93213 10.3687 9.17325 10.8165 9.65547C11.2643 10.1377 11.4882 10.7405 11.4882 11.4638C11.4882 12.1871 11.2643 12.7899 10.8165 13.2721C10.3687 13.7544 9.75732 13.9955 8.98232 13.9955C8.20732 13.9955 7.59593 13.7544 7.14815 13.2721C6.70038 12.7899 6.47649 12.1871 6.47649 11.4638ZM6.47649 19.5755C6.47649 18.8521 6.70038 18.2494 7.14815 17.7671C7.59593 17.2849 8.20732 17.0438 8.98232 17.0438C9.75732 17.0438 10.3687 17.2849 10.8165 17.7671C11.2643 18.2494 11.4882 18.8521 11.4882 19.5755C11.4882 20.2988 11.2643 20.9016 10.8165 21.3838C10.3687 21.866 9.75732 22.1071 8.98232 22.1071C8.20732 22.1071 7.59593 21.866 7.14815 21.3838C6.70038 20.9016 6.47649 20.2988 6.47649 19.5755ZM24.2759 14.7963C24.2759 16.6046 24.1122 18.1891 23.785 19.5496C23.475 20.9102 23.0703 22.0555 22.5709 22.9855C22.2436 23.5882 21.8389 24.1049 21.3567 24.5355C20.8917 24.966 20.3061 25.1813 19.6 25.1813C19.135 25.1813 18.7217 25.0521 18.36 24.7938C17.9984 24.5355 17.7228 24.2599 17.5334 23.9671C17.9467 23.3471 18.3084 22.7013 18.6184 22.0296C18.9456 21.3752 19.2125 20.6777 19.4192 19.9371C19.6431 19.1966 19.8067 18.4044 19.91 17.5605C20.0306 16.7166 20.0909 15.7952 20.0909 14.7963C20.0909 13.7974 20.0306 12.876 19.91 12.0321C19.8067 11.1882 19.6431 10.396 19.4192 9.65547C19.2125 8.91491 18.9456 8.21741 18.6184 7.56297C18.3084 6.8913 17.9467 6.24547 17.5334 5.62547C17.7228 5.33269 17.9984 5.05713 18.36 4.7988C18.7217 4.54047 19.135 4.4113 19.6 4.4113C20.3061 4.4113 20.8917 4.62658 21.3567 5.05713C21.8389 5.48769 22.2436 6.00436 22.5709 6.60713C23.0703 7.53713 23.475 8.68241 23.785 10.043C24.1122 11.4035 24.2759 12.988 24.2759 14.7963Z" fill="white"/>
</g>
<defs>
<linearGradient id="paint0_linear_253_18613" x1="539.5" y1="1075.04" x2="1674.39" y2="-204.209" gradientUnits="userSpaceOnUse">
<stop stop-color="#255EC1"/>
<stop offset="1" stop-color="#47D6AA"/>
</linearGradient>
<clipPath id="clip0_253_18613">
<rect width="1920" height="994" fill="white" transform="translate(-49 -50)"/>
</clipPath>
</defs>
</svg>
