<svg width="386" height="41" viewBox="0 0 386 41" fill="none" xmlns="http://www.w3.org/2000/svg">
<path fill-rule="evenodd" clip-rule="evenodd" d="M173.895 16.9226C173.895 14.3672 172.789 12.3347 170.571 10.8225C168.356 9.30923 165.296 8.55176 161.392 8.55176C154.343 8.55176 150.111 11.2698 148.694 16.708L157.383 17.7133C157.74 15.7599 159.02 14.7817 161.222 14.7817C163.352 14.7817 164.416 15.6295 164.416 17.3272C164.416 18.4855 164.063 19.3884 163.354 20.0374C162.648 20.6864 161.671 21.0105 160.428 21.0105H158.346V26.6192H160.984C162.498 26.6192 163.694 26.9779 164.566 27.7001C165.439 28.4186 165.875 29.3568 165.875 30.513C165.875 31.7124 165.527 32.6471 164.835 33.3166C164.141 33.9882 163.123 34.3219 161.779 34.3219C159.363 34.3219 157.895 33.2321 157.383 31.0487L148.203 31.7319C149.989 37.9104 154.572 40.9985 161.952 40.9985C166.266 40.9985 169.609 40.0206 171.974 38.0569C174.344 36.0953 175.527 33.5826 175.527 30.513C175.527 26.7883 173.638 24.421 169.863 23.4065C172.551 22.1647 173.895 20.0052 173.895 16.9226Z" fill="white"/>
<path fill-rule="evenodd" clip-rule="evenodd" d="M189.368 17.9696C190.55 16.5852 192.116 15.8952 194.067 15.8952C196.103 15.8952 197.715 16.5759 198.906 17.9377C200.096 19.2996 200.691 21.4585 200.691 24.4108C200.691 27.9223 200.119 30.3547 198.98 31.7094C197.84 33.0654 196.23 33.7441 194.155 33.7441C192.13 33.7441 190.531 33.0517 189.357 31.6669C188.182 30.2846 187.595 28.0069 187.595 24.8403C187.595 21.6426 188.187 19.3554 189.368 17.9696ZM180.076 33.9563C181.514 36.3965 183.389 38.1787 185.706 39.3074C188.018 40.4352 190.94 40.9985 194.472 40.9985C197.947 40.9985 200.85 40.3448 203.179 39.0381C205.505 37.7354 207.288 35.9088 208.52 33.5623C209.749 31.2124 210.365 28.2067 210.365 24.5385C210.365 19.4888 208.955 15.5628 206.137 12.7591C203.318 9.95397 199.302 8.55176 194.09 8.55176C189.003 8.55176 185.04 9.98101 182.19 12.8323C179.341 15.6881 177.918 19.6733 177.918 24.7965C177.918 28.4638 178.639 31.5174 180.076 33.9563Z" fill="white"/>
<path fill-rule="evenodd" clip-rule="evenodd" d="M245.884 8.55176H217.986V29.9337C217.986 31.5198 217.704 32.6109 217.144 33.205C216.581 33.8022 215.622 34.0981 214.261 34.0981H212.754V40.6433C214.174 40.8792 215.428 40.9985 216.524 40.9985C220.1 40.9985 222.685 40.5499 224.288 39.6548C225.892 38.7583 226.913 37.3499 227.349 35.4315C227.782 33.5132 228.001 30.5129 228.001 26.4273V16.4877H235.846V40.8656H245.884V8.55176Z" fill="white"/>
<path fill-rule="evenodd" clip-rule="evenodd" d="M285.158 16.5652H295.357V40.9985H305.357V16.5652H315.556V8.55176H285.158V16.5652Z" fill="white"/>
<path fill-rule="evenodd" clip-rule="evenodd" d="M376.188 8.55176L363.968 26.5002V8.55176H354.5V40.9985H363.978L376.14 23.1823V40.9985H385.581V8.55176H376.188Z" fill="white"/>
<path fill-rule="evenodd" clip-rule="evenodd" d="M261.776 17.9706C262.958 16.5849 264.525 15.8949 266.475 15.8949C268.511 15.8949 270.123 16.5757 271.313 17.9374C272.504 19.2992 273.099 21.4584 273.099 24.4103C273.099 27.9217 272.527 30.354 271.389 31.71C270.249 33.0646 268.639 33.7433 266.563 33.7433C264.538 33.7433 262.94 33.0509 261.765 31.6665C260.589 30.2832 260.002 28.0063 260.002 24.8395C260.002 21.6433 260.595 19.3554 261.776 17.9706ZM252.484 33.9558C253.923 36.396 255.797 38.1781 258.114 39.3064C260.426 40.4355 263.348 40.9985 266.88 40.9985C270.358 40.9985 273.259 40.3438 275.587 39.0371C277.913 37.7349 279.697 35.9093 280.926 33.5615C282.157 31.212 282.773 28.2051 282.773 24.5383C282.773 19.4888 281.364 15.5626 278.545 12.7593C275.726 9.95393 271.71 8.55176 266.497 8.55176C261.412 8.55176 257.448 9.98097 254.598 12.8322C251.749 15.6882 250.326 19.6726 250.326 24.7963C250.326 28.4631 251.047 31.517 252.484 33.9558Z" fill="white"/>
<mask id="mask0_209_6824" style="mask-type:alpha" maskUnits="userSpaceOnUse" x="0" y="0" width="377" height="41">
<path d="M0 0H376.194V40.818H110.285H0V0Z" fill="white"/>
</mask>
<g mask="url(#mask0_209_6824)">
<path fill-rule="evenodd" clip-rule="evenodd" d="M329.421 17.8368C330.602 16.4552 332.168 15.7667 334.118 15.7667C336.154 15.7667 337.766 16.446 338.956 17.805C340.146 19.164 340.741 21.3185 340.741 24.2646C340.741 27.7689 340.169 30.1962 339.031 31.5481C337.891 32.9013 336.282 33.5786 334.207 33.5786C332.182 33.5786 330.584 32.8876 329.409 31.5057C328.235 30.1262 327.649 27.8532 327.649 24.6933C327.649 21.5022 328.24 19.2197 329.421 17.8368ZM320.13 33.7903C321.568 36.2255 323.443 38.004 325.759 39.1304C328.071 40.2558 330.992 40.8179 334.524 40.8179C337.999 40.8179 340.901 40.1656 343.229 38.8616C345.554 37.5617 347.337 35.7388 348.57 33.3972C349.796 31.0522 350.415 28.0527 350.415 24.392C350.415 19.3529 349.004 15.435 346.186 12.6371C343.369 9.83779 339.353 8.43848 334.141 8.43848C329.056 8.43848 325.094 9.86477 322.243 12.7102C319.396 15.56 317.973 19.537 317.973 24.6496C317.973 28.3092 318.693 31.3565 320.13 33.7903Z" fill="white"/>
<path fill-rule="evenodd" clip-rule="evenodd" d="M373.35 7.23187L376.195 4.41686L372.311 3.68561L370.245 0L368.319 3.785L364.176 4.3424L367.243 7.45934L366.56 11.4332L370.235 9.61448L374.084 11.4332L373.35 7.23187Z" fill="white"/>
<path opacity="0.3" fill-rule="evenodd" clip-rule="evenodd" d="M127.449 21.6399L122.037 26.9939L123.437 34.9898L116.111 31.5286L109.116 34.9898L110.411 27.4246L104.573 21.494L112.463 20.4349L116.122 13.2266L120.063 20.2426L127.449 21.6399ZM132.199 24.6294C132.199 15.6878 124.951 8.43848 116.01 8.43848C107.068 8.43848 99.8223 15.6878 99.8223 24.6294C99.8223 33.5693 107.068 40.8179 116.01 40.8179C124.951 40.8179 132.199 33.5693 132.199 24.6294Z" fill="white"/>
<path fill-rule="evenodd" clip-rule="evenodd" d="M12.9522 19.2355C11.9812 19.4661 11.0006 19.8148 10.0098 20.2752L10.7772 15.4987H25.0982V8.44238H3.95283L1.13269 25.5538L8.72182 26.6378C9.43667 25.8424 10.0921 25.2949 10.6891 24.9872C11.4911 24.5677 12.3231 24.3577 13.1827 24.3577C14.5383 24.3577 15.6234 24.8013 16.4407 25.6849C17.256 26.5685 17.6652 27.9559 17.6652 29.8514C17.6652 31.7064 17.2594 33.0999 16.4523 34.0333C15.6405 34.9671 14.6179 35.4347 13.3778 35.4347C12.2705 35.4347 11.3162 35.0627 10.5149 34.3171C9.71264 33.5691 9.20271 32.483 8.98276 31.0475L-0.0234375 32.0247C0.413057 33.5179 0.959187 34.7594 1.61359 35.7605C2.27038 36.7602 3.12765 37.653 4.18337 38.4416C5.23908 39.2306 6.52261 39.8245 8.03326 40.2214C9.54152 40.6217 11.3517 40.8201 13.4655 40.8201C16.4114 40.8201 18.8281 40.3205 20.7138 39.3197C22.6019 38.3234 24.0609 36.8732 25.0893 34.9784C26.1153 33.0835 26.6283 31.1056 26.6283 29.0502C26.6283 26.1248 25.6317 23.7012 23.6347 21.7742C21.6373 19.849 19.0358 18.8868 15.8277 18.8868C14.8792 18.8868 13.9215 19.0043 12.9522 19.2355Z" fill="white"/>
</g>
<path fill-rule="evenodd" clip-rule="evenodd" d="M45.8781 30.9196C45.8781 32.2905 45.4631 33.4217 44.6369 34.313C43.8104 35.204 42.8765 35.6483 41.836 35.6483C40.7548 35.6483 39.7911 35.2108 38.9502 34.3336C38.1101 33.4573 37.6897 32.3261 37.6897 30.9402C37.6897 29.4858 38.0897 28.3309 38.8956 27.4749C39.7017 26.6192 40.6458 26.1896 41.7284 26.1896C42.8266 26.1896 43.7924 26.6329 44.6278 27.5149C45.4608 28.4014 45.8781 29.5351 45.8781 30.9196ZM45.2998 17.5213C45.2998 18.5611 44.9782 19.4124 44.3374 20.0692C43.6973 20.7251 42.8765 21.0516 41.8792 21.0516C40.7548 21.0516 39.8522 20.7206 39.1733 20.058C38.4989 19.3953 38.159 18.5211 38.159 17.4371C38.159 16.3791 38.4898 15.52 39.154 14.8559C39.8152 14.1922 40.6753 13.8623 41.7284 13.8623C42.7699 13.8623 43.6246 14.2015 44.2933 14.8768C44.9643 15.5542 45.2998 16.4363 45.2998 17.5213ZM49.5765 23.6009C50.8584 22.7438 51.8015 21.8573 52.3978 20.9469C53.1982 19.7184 53.5962 18.3989 53.5962 16.9866C53.5962 14.5612 52.5951 12.5472 50.5908 10.9515C48.5917 9.35304 45.4913 8.55176 41.3032 8.55176C38.1363 8.55176 35.5938 9.19559 33.668 10.4778C31.2016 12.1495 29.9682 14.2973 29.9682 16.9226C29.9682 18.5211 30.3978 19.932 31.2525 21.1591C31.8794 22.0593 32.8768 22.8719 34.245 23.6009C32.4642 24.2975 31.1449 25.287 30.2905 26.563C29.4354 27.8404 29.0059 29.4013 29.0059 31.2417C29.0059 33.1246 29.464 34.8302 30.374 36.3554C31.2875 37.8844 32.6218 39.0382 34.3754 39.8245C36.128 40.608 38.6633 40.9985 41.9858 40.9985C43.755 40.9985 45.4186 40.8274 46.9797 40.4765C48.5394 40.126 49.8441 39.5821 50.8938 38.8394C51.94 38.0966 52.824 37.0458 53.5429 35.6815C54.2624 34.3199 54.6217 32.8525 54.6217 31.2828C54.6217 29.6583 54.2067 28.1731 53.3727 26.8317C52.5373 25.4903 51.2734 24.4121 49.5765 23.6009Z" fill="white"/>
<path fill-rule="evenodd" clip-rule="evenodd" d="M69.9496 19.2307C68.9786 19.4612 67.9981 19.8099 67.0076 20.2703L67.7747 15.4938H82.0957V8.4375H60.9503L58.1298 25.5489L65.7179 26.633C66.4328 25.8375 67.0882 25.29 67.6869 24.9823C68.4882 24.5629 69.3192 24.3528 70.1802 24.3528C71.5354 24.3528 72.6209 24.7965 73.4382 25.68C74.2531 26.5636 74.6616 27.951 74.6616 29.8465C74.6616 31.7015 74.2569 33.095 73.4495 34.0284C72.6379 34.9622 71.614 35.4298 70.3752 35.4298C69.2669 35.4298 68.3126 35.0578 67.5124 34.3122C66.7098 33.5643 66.1991 32.4781 65.9802 31.0426L56.9727 32.0198C57.4105 33.513 57.9566 34.7545 58.611 35.7556C59.2675 36.7553 60.1251 37.6481 61.1808 38.4367C62.2362 39.2257 63.5201 39.8197 65.0294 40.2165C66.5376 40.6168 68.3492 40.8153 70.4626 40.8153C73.4085 40.8153 75.8256 40.3156 77.7113 39.3148C79.599 38.3186 81.057 36.8684 82.0868 34.9735C83.1124 33.0786 83.6254 31.1007 83.6254 29.0453C83.6254 26.12 82.6292 23.6964 80.6318 21.7694C78.6334 19.8441 76.0329 18.8819 72.8248 18.8819C71.8766 18.8819 70.919 18.9994 69.9496 19.2307Z" fill="white"/>
</svg>
